{
DisplayStrings = (
"/alef-hb/bet-hb/gimel-hb/dalet-hb/he-hb/vav-hb/zayin-hb/het-hb/tet-hb/yod-hb/finalkaf-hb/kaf-hb/lamed-hb/finalmem-hb/mem-hb/finalnun-hb/nun-hb/samekh-hb/ayin-hb/finalpe-hb/pe-hb/finaltsadi-hb/tsadi-hb/qof-hb/resh-hb/shin-hb/tav-hb \012eman ym neB /shin-hb/shin-hb/mem-hb/yod-hb  /finalnun-hb \012/het-hb/tet-hb/yod-hb/bet-hb/pe-hb/he-hb  noinectS\012/mem-hb/alef-hb/het-hb/vav-hb/resh-hb/he-hb  /he-hb/alef-hb/mem-hb/mem-hb/tet-hb/tet-hb/yod-hb/kaf-hb  /bet-hb/he-hb  /shin-hb/bet-hb/vav-hb/resh-hb  /het-hb/shin-hb/vav-hb/bet-hb  /tet-hb/shin-hb/yod-hb/he-hb \012/het-hb/shin-hb/bet-hb/shin-hb/vav-hb/finalnun-hb  /alef-hb/mem-hb/alef-hb/tet-hb/shin-hb/pe-hb/pe-hb/he-hb  /bet-hb/shin-hb/resh-hb",
"fgh/idotless i/dotlessj jklmn",
/ts,
/tesh,
j,
"\012Dan Barnea\012/dalet-hb/finalnun-hb  /bet-hb/resh-hb/nun-hb/ayin-hb",
"/alef-hb/bet-hb/gimel-hb/dalet-hb/he-hb/vav-hb/zayin-hb/het-hb/tet-hb/tet-hb/yod-hb/finalkaf-hb/kaf-hb/lamed-hb/lamed-hb/finalmem-hb/mem-hb/finalnun-hb t/nun-hb/samekh-hb/samekh-hb/ayin-hb/ayin-hb/finalpe-hb/pe-hb/finaltsadi-hb/tsadi-hb/qof-hb/qof-hb/qof-hb/resh-hb/shin-hb/tav-hb  /tet-hb/qof-hb/vav-hb/mem-hb/he-hb  /qof-hb/tet-hb \012/alef-hb/nun-hb/tsadi-hb/nun-hb/yod-hb  /qof-hb/qof-hb/pe-hb/vav-hb/lamed-hb/dalet-hb/yod-hb/he-hb \012/mem-hb/yod-hb/finalmem-hb  /lamed-hb/dalet-hb/vav-hb/dalet-hb  /he-hb/mem-hb/lamed-hb/finalkaf-hb  /mem-hb/yod-hb/finalmem-hb",
"/alef-hb/bet-hb/gimel-hb/dalet-hb/he-hb/vav-hb/zayin-hb/het-hb/tet-hb/yod-hb/finalkaf-hb/kaf-hb/lamed-hb/finalmem-hb/mem-hb/finalnun-hb/nun-hb/samekh-hb/ayin-hb/finalpe-hb/pe-hb/finaltsadi-hb/tsadi-hb/qof-hb/resh-hb/shin-hb/tav-hb \012\012\012"
);
copyright = "Copyright 2010, 2012, 2014 Adobe Systems Incorporated (http://www.adobe.com/), with Reserved Font Name 'Source'.";
customParameters = (
{
name = glyphOrder;
value = (
    ".notdef",
    space,
    heAlef,
    heBet,
    heGimel,
    heDalet,
    heHe,
    heVav,
    heZayin,
    heHet,
    heTet,
    heYod,
    heKafFin,

glyphs = (
{
glyphname = .notdef;
lastChange = "2015-11-05 20:57:25 +0000";
layers = (
{
layerId = "786F3AE7-681A-4E36-83D7-614DB6CCA2F0";
name = Regular;
paths = (
{
closed = 1;
nodes = (
"528 0 LINE",
"528 660 LINE",
"96 660 LINE",
"96 0 LINE"
);
},
{
closed = 1;
nodes = (
"246 208 LINE",
"310 314 LINE",
"314 314 LINE",
"376 208 LINE",
"476 32 LINE",
"144 32 LINE"
);
},
{
closed = 1;
nodes = (
"134 610 LINE",
"288 340 LINE",
"134 74 LINE"
);
},
{
closed = 1;
nodes = (
"336 340 LINE",
"488 610 LINE",
"488 74 LINE"
);
},
{
closed = 1;
nodes = (
"254 458 LINE",
"160 626 LINE",
"462 626 LINE",
"368 458 LINE",
"314 366 LINE",
"310 366 LINE"
);
}
);
width = 624;
},
{
layerId = "A57419AF-C607-4C6D-867D-F9F312359F5B";
name = Bold;
paths = (
{
closed = 1;
nodes = (
"628 0 LINE",
"628 660 LINE",
"76 660 LINE",
"76 0 LINE"
);
},
{
closed = 1;
nodes = (
"314 160 LINE",
"350 256 LINE",
"354 256 LINE",
"390 160 LINE",
"416 104 LINE",
"288 104 LINE"
);
},
{
closed = 1;
nodes = (
"188 508 LINE",
"270 340 LINE",
"188 172 LINE"
);
},
{
closed = 1;
nodes = (
"434 340 LINE",
"516 508 LINE",
"516 172 LINE"
);
},
{
closed = 1;
nodes = (
"310 520 LINE",
"292 556 LINE",
"412 556 LINE",
"394 520 LINE",
"354 424 LINE",
"350 424 LINE"
);
}
);
width = 704;
}
);
},
{
color = (204,255,102,1);
glyphname = heGimel;
lastChange = "2015-11-05 15:49:24 +0000";
layers = (
{
layerId = "786F3AE7-681A-4E36-83D7-614DB6CCA2F0";
name = Regular;
paths = (
{
closed = 1;
nodes = (
"413 44 OFFCURVE",
"408 111 OFFCURVE",
"408 147 CURVE SMOOTH",
"408 545 LINE",
"62 545 LINE",
"62 515 LINE",
"376 515 LINE",
"376 147 LINE SMOOTH",
"376 93 OFFCURVE",
"388 50 OFFCURVE",
"405 30 CURVE",
"62 30 LINE",
"62 0 LINE",
"498 0 LINE",
"498 30 LINE",
"436 30 LINE"
);
}
);
width = 540;
},
{
layerId = "A57419AF-C607-4C6D-867D-F9F312359F5B";
name = Bold;
width = 540;
}
);
userData = {
com.typemytype.robofont.mark = (
0.8,
1,
0.4,
1
);
};
},
{
color = (204,255,102,1);
glyphname = heDalet;
lastChange = "2015-11-05 11:40:11 +0000";
layers = (
{
layerId = "786F3AE7-681A-4E36-83D7-614DB6CCA2F0";
name = Regular;
paths = (
{
closed = 1;
nodes = (
"488 545 LINE",
"488 515 LINE",
"426 515 LINE",
"403 501 OFFCURVE",
"398 434 OFFCURVE",
"398 398 CURVE SMOOTH",
"398 0 LINE",
"366 0 LINE",
"366 398 LINE SMOOTH",
"366 452 OFFCURVE",
"378 495 OFFCURVE",
"395 515 CURVE",
"77 515 LINE",
"77 545 LINE"
);
}
);
width = 540;
},
{
layerId = "A57419AF-C607-4C6D-867D-F9F312359F5B";
name = Bold;
width = 540;
}
);
userData = {
com.typemytype.robofont.mark = (
0.8,
1,
0.4,
1
);
};
},
{
color = (204,255,102,1);
glyphname = heHe;
lastChange = "2015-11-05 11:58:12 +0000";
layers = (
{
layerId = "786F3AE7-681A-4E36-83D7-614DB6CCA2F0";
name = Regular;
paths = (
{
closed = 1;
nodes = (
"460 500 OFFCURVE",
"469 450 OFFCURVE",
"469 398 CURVE SMOOTH",
"469 0 LINE",
"437 0 LINE",
"437 398 LINE SMOOTH",
"437 450 OFFCURVE",
"429 501 OFFCURVE",
"416 515 CURVE",
"77 515 LINE",
"77 545 LINE",
"437 545 LINE"
);
},
{
closed = 1;
nodes = (
"106 301 OFFCURVE",
"108 248 OFFCURVE",
"108 208 CURVE SMOOTH",
"108 0 LINE",
"76 0 LINE",
"76 208 LINE SMOOTH",
"76 252 OFFCURVE",
"81 305 OFFCURVE",
"88 325 CURVE",
"119 325 LINE"
);
}
);
width = 540;
},
{
layerId = "A57419AF-C607-4C6D-867D-F9F312359F5B";
name = Bold;
width = 540;
}
);
userData = {
com.typemytype.robofont.mark = (
0.8,
1,
0.4,
1
);
};
},
{
color = (204,255,102,1);
glyphname = heVav;
lastChange = "2015-11-05 11:58:05 +0000";
layers = (
{
layerId = "786F3AE7-681A-4E36-83D7-614DB6CCA2F0";
name = Regular;
paths = (
{
closed = 1;
nodes = (
"117 545 LINE",
"124 525 OFFCURVE",
"129 472 OFFCURVE",
"129 428 CURVE SMOOTH",
"129 0 LINE",
"97 0 LINE",
"97 428 LINE SMOOTH",
"97 468 OFFCURVE",
"95 521 OFFCURVE",
"86 545 CURVE"
);
}
);
width = 215;
},
{
layerId = "A57419AF-C607-4C6D-867D-F9F312359F5B";
name = Bold;
width = 540;
}
);
userData = {
com.typemytype.robofont.mark = (
0.8,
1,
0.4,
1
);
};
},
{
color = (204,255,102,1);
glyphname = heZayin;
lastChange = "2015-11-05 12:05:46 +0000";
layers = (
{
layerId = "786F3AE7-681A-4E36-83D7-614DB6CCA2F0";
name = Regular;
paths = (
{
closed = 1;
nodes = (
"266 545 LINE",
"274 515 LINE",
"211 501 OFFCURVE",
"133 427 OFFCURVE",
"160 268 CURVE",
"186 0 LINE SMOOTH",
"154 0 LINE SMOOTH",
"128 268 LINE",
"101 428 OFFCURVE",
"181 501 OFFCURVE",
"218 515 CURVE",
"85 515 LINE SMOOTH",
"85 545 LINE SMOOTH"
);
}
);
width = 359;
},
{
layerId = "A57419AF-C607-4C6D-867D-F9F312359F5B";
name = Bold;
width = 540;
}
);
userData = {
com.typemytype.robofont.mark = (
0.8,
1,
0.4,
1
);
};
},
{
color = (204,255,102,1);
glyphname = heHet;
lastChange = "2015-11-05 12:00:19 +0000";
layers = (
{
layerId = "786F3AE7-681A-4E36-83D7-614DB6CCA2F0";
name = Regular;
paths = (
{
closed = 1;
nodes = (
"76 545 LINE",
"76 0 LINE",
"108 0 LINE",
"108 515 LINE",
"396 515 LINE",
"409 501 OFFCURVE",
"417 450 OFFCURVE",
"417 398 CURVE SMOOTH",
"417 0 LINE",
"449 0 LINE",
"449 398 LINE SMOOTH",
"449 450 OFFCURVE",
"440 500 OFFCURVE",
"417 545 CURVE"
);
}
);
width = 540;
},
{
layerId = "A57419AF-C607-4C6D-867D-F9F312359F5B";
name = Bold;
width = 540;
}
);
userData = {
com.typemytype.robofont.mark = (
0.8,
1,
0.4,
1
);
};
},
{
color = (204,255,102,1);
glyphname = heTet;
lastChange = "2015-11-05 12:02:26 +0000";
layers = (
{
layerId = "786F3AE7-681A-4E36-83D7-614DB6CCA2F0";
name = Regular;
paths = (
{
closed = 1;
nodes = (
"54 258 LINE",
"54 80 OFFCURVE",
"152 -12 OFFCURVE",
"266 -12 CURVE SMOOTH",
"380 -12 OFFCURVE",
"478 80 OFFCURVE",
"478 258 CURVE SMOOTH",
"478 462 OFFCURVE",
"420 545 OFFCURVE",
"306 545 CURVE SMOOTH",
"305 545 OFFCURVE",
"264 545 OFFCURVE",
"263 545 CURVE",
"263 515 LINE",
"264 515 OFFCURVE",
"305 515 OFFCURVE",
"306 515 CURVE SMOOTH",
"408 515 OFFCURVE",
"446 434 OFFCURVE",
"446 258 CURVE SMOOTH",
"446 106 OFFCURVE",
"368 16 OFFCURVE",
"266 16 CURVE SMOOTH",
"164 16 OFFCURVE",
"86 106 OFFCURVE",
"86 258 CURVE"
);
},
{
closed = 1;
nodes = (
"74 545 LINE",
"81 525 OFFCURVE",
"86 472 OFFCURVE",
"86 428 CURVE SMOOTH",
"86 258 LINE",
"54 258 LINE",
"54 428 LINE SMOOTH",
"54 468 OFFCURVE",
"52 521 OFFCURVE",
"43 545 CURVE"
);
}
);
width = 540;
},
{
layerId = "A57419AF-C607-4C6D-867D-F9F312359F5B";
name = Bold;
width = 540;
}
);
userData = {
com.typemytype.robofont.mark = (
0.8,
1,
0.4,
1
);
};
},
{
color = (204,255,102,1);
glyphname = heYod;
lastChange = "2015-11-05 12:03:37 +0000";
layers = (
{
layerId = "786F3AE7-681A-4E36-83D7-614DB6CCA2F0";
name = Regular;
paths = (
{
closed = 1;
nodes = (
"117 545 LINE",
"124 525 OFFCURVE",
"129 472 OFFCURVE",
"129 428 CURVE SMOOTH",
"129 200 LINE",
"97 200 LINE",
"97 428 LINE SMOOTH",
"97 468 OFFCURVE",
"95 521 OFFCURVE",
"86 545 CURVE"
);
}
);
width = 215;
},
{
layerId = "A57419AF-C607-4C6D-867D-F9F312359F5B";
name = Bold;
width = 540;
}
);
userData = {
com.typemytype.robofont.mark = (
0.8,
1,
0.4,
1
);
};
},
{
color = (204,255,102,1);
glyphname = heKaf;
lastChange = "2015-11-05 12:05:06 +0000";
layers = (
{
layerId = "786F3AE7-681A-4E36-83D7-614DB6CCA2F0";
name = Regular;
paths = (
{
closed = 1;
nodes = (
"412 -12 OFFCURVE",
"472 124 OFFCURVE",
"472 272 CURVE SMOOTH",
"472 420 OFFCURVE",
"412 552 OFFCURVE",
"244 552 CURVE SMOOTH",
"178 552 OFFCURVE",
"110 521 OFFCURVE",
"76 484 CURVE",
"96 462 LINE",
"132 501 OFFCURVE",
"192 522 OFFCURVE",
"244 522 CURVE SMOOTH",
"396 522 OFFCURVE",
"438 402 OFFCURVE",
"438 272 CURVE SMOOTH",
"438 142 OFFCURVE",
"396 18 OFFCURVE",
"248 18 CURVE SMOOTH",
"188 18 OFFCURVE",
"126 38 OFFCURVE",
"76 92 CURVE",
"56 72 LINE",
"106 16 OFFCURVE",
"174 -12 OFFCURVE",
"250 -12 CURVE SMOOTH"
);
}
);
width = 540;
},
{
layerId = "A57419AF-C607-4C6D-867D-F9F312359F5B";
name = Bold;
width = 540;
}
);
userData = {
com.typemytype.robofont.mark = (
0.8,
1,
0.4,
1
);
};
},
{
color = (204,255,102,1);
glyphname = heLamed;
lastChange = "2015-11-05 15:51:29 +0000";
layers = (
{
layerId = "786F3AE7-681A-4E36-83D7-614DB6CCA2F0";
name = Regular;
paths = (
{
closed = 1;
nodes = (
"450 500 OFFCURVE",
"435 433 OFFCURVE",
"416 400 CURVE SMOOTH",
"193 0 LINE",
"159 0 LINE",
"384 400 LINE SMOOTH",
"409 445 OFFCURVE",
"419 501 OFFCURVE",
"406 515 CURVE",
"77 515 LINE",
"77 545 LINE",
"427 545 LINE"
);
},
{
closed = 1;
nodes = (
"97 760 LINE",
"104 740 OFFCURVE",
"109 687 OFFCURVE",
"109 643 CURVE SMOOTH",
"109 515 LINE",
"77 515 LINE",
"77 643 LINE SMOOTH",
"77 683 OFFCURVE",
"75 736 OFFCURVE",
"66 760 CURVE"
);
}
);
width = 540;
},
{
layerId = "A57419AF-C607-4C6D-867D-F9F312359F5B";
name = Bold;
width = 540;
}
);
userData = {
com.typemytype.robofont.mark = (
0.8,
1,
0.4,
1
);
};
},
{
color = (204,255,102,1);
glyphname = heMemFin;
lastChange = "2015-11-05 15:53:09 +0000";
layers = (
{
layerId = "786F3AE7-681A-4E36-83D7-614DB6CCA2F0";
name = Regular;
paths = (
{
closed = 1;
nodes = (
"43 545 LINE",
"52 521 OFFCURVE",
"54 468 OFFCURVE",
"54 428 CURVE SMOOTH",
"54 117 LINE SMOOTH",
"54 77 OFFCURVE",
"52 24 OFFCURVE",
"43 0 CURVE",
"74 0 LINE",
"81 20 OFFCURVE",
"86 73 OFFCURVE",
"86 117 CURVE SMOOTH",
"86 428 LINE SMOOTH",
"86 472 OFFCURVE",
"81 525 OFFCURVE",
"74 545 CURVE"
);
},
{
closed = 1;
nodes = (
"194 -10 OFFCURVE",
"230 -14 OFFCURVE",
"281 -14 CURVE SMOOTH",
"395 -14 OFFCURVE",
"478 83 OFFCURVE",
"478 287 CURVE SMOOTH",
"478 465 OFFCURVE",
"380 557 OFFCURVE",
"266 557 CURVE SMOOTH",
"152 557 OFFCURVE",
"63 465 OFFCURVE",
"63 287 CURVE",
"86 287 LINE",
"86 439 OFFCURVE",
"164 529 OFFCURVE",
"266 529 CURVE SMOOTH",
"368 529 OFFCURVE",
"446 439 OFFCURVE",
"446 287 CURVE SMOOTH",
"446 111 OFFCURVE",
"383 16 OFFCURVE",
"281 16 CURVE SMOOTH",
"229 16 OFFCURVE",
"193 20 OFFCURVE",
"173 30 CURVE",
"173 0 LINE"
);
}
);
width = 540;
},
{
layerId = "A57419AF-C607-4C6D-867D-F9F312359F5B";
name = Bold;
width = 540;
}
);
userData = {
com.typemytype.robofont.mark = (
0.8,
1,
0.4,
1
);
};
},
{
color = (204,255,102,1);
glyphname = heNun;
lastChange = "2015-11-05 15:53:55 +0000";
layers = (
{
layerId = "786F3AE7-681A-4E36-83D7-614DB6CCA2F0";
name = Regular;
paths = (
{
closed = 1;
nodes = (
"118 515 LINE",
"231 515 LINE",
"244 501 OFFCURVE",
"252 450 OFFCURVE",
"252 398 CURVE SMOOTH",
"252 0 LINE",
"284 0 LINE",
"284 398 LINE SMOOTH",
"284 450 OFFCURVE",
"275 500 OFFCURVE",
"252 545 CURVE",
"118 545 LINE"
);
},
{
closed = 1;
nodes = (
"284 30 LINE",
"78 30 LINE",
"78 0 LINE",
"284 0 LINE"
);
}
);
width = 375;
},
{
layerId = "A57419AF-C607-4C6D-867D-F9F312359F5B";
name = Bold;
width = 540;
}
);
leftMetricsKey = "7";
userData = {
com.typemytype.robofont.mark = (
0.8,
1,
0.4,
1
);
};
},
{
color = (204,255,102,1);
glyphname = heSamekh;
lastChange = "2015-11-05 12:41:13 +0000";
layers = (
{
layerId = "786F3AE7-681A-4E36-83D7-614DB6CCA2F0";
name = Regular;
paths = (
{
closed = 1;
nodes = (
"380 -12 OFFCURVE",
"478 80 OFFCURVE",
"478 258 CURVE SMOOTH",
"478 462 OFFCURVE",
"420 545 OFFCURVE",
"306 545 CURVE SMOOTH",
"305 545 OFFCURVE",
"61 545 OFFCURVE",
"60 545 CURVE",
"60 515 LINE",
"61 515 OFFCURVE",
"305 515 OFFCURVE",
"306 515 CURVE SMOOTH",
"408 515 OFFCURVE",
"446 434 OFFCURVE",
"446 258 CURVE SMOOTH",
"446 106 OFFCURVE",
"368 16 OFFCURVE",
"266 16 CURVE SMOOTH",
"164 16 OFFCURVE",
"86 106 OFFCURVE",
"86 258 CURVE",
"54 258 LINE",
"54 80 OFFCURVE",
"152 -12 OFFCURVE",
"266 -12 CURVE SMOOTH"
);
},
{
closed = 1;
nodes = (
"86 258 LINE",
"86 428 LINE SMOOTH",
"86 472 OFFCURVE",
"81 525 OFFCURVE",
"74 545 CURVE",
"43 545 LINE",
"52 521 OFFCURVE",
"54 468 OFFCURVE",
"54 428 CURVE SMOOTH",
"54 258 LINE"
);
}
);
width = 540;
},
{
layerId = "A57419AF-C607-4C6D-867D-F9F312359F5B";
name = Bold;
width = 540;
}
);
userData = {
com.typemytype.robofont.mark = (
0.8,
1,
0.4,
1
);
};
},
{
color = (204,255,102,1);
glyphname = heAyin;
lastChange = "2015-11-05 15:51:04 +0000";
layers = (
{
layerId = "786F3AE7-681A-4E36-83D7-614DB6CCA2F0";
name = Regular;
paths = (
{
closed = 1;
nodes = (
"237 18 LINE",
"481 104 OFFCURVE",
"468 313 OFFCURVE",
"468 401 CURVE",
"468 545 LINE",
"436 545 LINE",
"436 401 LINE",
"436 299 OFFCURVE",
"445 127 OFFCURVE",
"237 46 CURVE",
"43 -26 LINE",
"52 -51 LINE"
);
},
{
closed = 1;
nodes = (
"246 27 LINE",
"156 428 LINE SMOOTH",
"146 472 OFFCURVE",
"130 525 OFFCURVE",
"119 545 CURVE",
"88 545 LINE",
"102 521 OFFCURVE",
"115 468 OFFCURVE",
"124 428 CURVE SMOOTH",
"214 27 LINE"
);
}
);
width = 540;
},
{
layerId = "A57419AF-C607-4C6D-867D-F9F312359F5B";
name = Bold;
width = 540;
}
);
userData = {
com.typemytype.robofont.mark = (
0.8,
1,
0.4,
1
);
};
},
{
color = (204,255,102,1);
glyphname = hePe;
lastChange = "2015-11-05 12:50:08 +0000";
layers = (
{
layerId = "786F3AE7-681A-4E36-83D7-614DB6CCA2F0";
name = Regular;
paths = (
{
closed = 1;
nodes = (
"380 -12 OFFCURVE",
"478 80 OFFCURVE",
"478 258 CURVE SMOOTH",
"478 462 OFFCURVE",
"385 545 OFFCURVE",
"271 545 CURVE SMOOTH",
"270 545 OFFCURVE",
"183 545 OFFCURVE",
"182 545 CURVE",
"174 515 LINE",
"175 515 OFFCURVE",
"270 515 OFFCURVE",
"271 515 CURVE SMOOTH",
"373 515 OFFCURVE",
"446 434 OFFCURVE",
"446 258 CURVE SMOOTH",
"446 106 OFFCURVE",
"368 16 OFFCURVE",
"266 16 CURVE SMOOTH",
"204 16 OFFCURVE",
"167 17 OFFCURVE",
"100 59 CURVE",
"84 35 LINE",
"152 -10 OFFCURVE",
"192 -12 OFFCURVE",
"266 -12 CURVE SMOOTH"
);
},
{
closed = 1;
nodes = (
"107 276 LINE",
"113 333 OFFCURVE",
"130 383 OFFCURVE",
"150 436 CURVE SMOOTH",
"171 494 OFFCURVE",
"186 521 OFFCURVE",
"202 545 CURVE",
"171 545 LINE",
"159 525 OFFCURVE",
"142 498 OFFCURVE",
"118 436 CURVE SMOOTH",
"97 383 OFFCURVE",
"81 333 OFFCURVE",
"75 276 CURVE"
);
},
{
closed = 1;
nodes = (
"142 235 LINE",
"107 276 LINE",
"75 276 LINE",
"119 215 LINE SMOOTH"
);
}
);
width = 540;
},
{
layerId = "A57419AF-C607-4C6D-867D-F9F312359F5B";
name = Bold;
width = 540;
}
);
userData = {
com.typemytype.robofont.mark = (
0.8,
1,
0.4,
1
);
};
},
{
color = (204,255,102,1);
glyphname = heTsadi;
lastChange = "2015-11-05 12:49:19 +0000";
layers = (
{
layerId = "786F3AE7-681A-4E36-83D7-614DB6CCA2F0";
name = Regular;
paths = (
{
closed = 1;
nodes = (
"465 0 LINE",
"185 428 LINE SMOOTH",
"159 468 OFFCURVE",
"130 515 OFFCURVE",
"131 545 CURVE",
"100 545 LINE",
"101 511 OFFCURVE",
"126 467 OFFCURVE",
"151 428 CURVE SMOOTH",
"430 0 LINE"
);
},
{
closed = 1;
nodes = (
"466 545 LINE",
"434 545 LINE",
"311 187 LINE",
"331 165 LINE"
);
},
{
closed = 1;
nodes = (
"87 30 LINE",
"87 0 LINE",
"443 0 LINE",
"433 30 LINE"
);
}
);
width = 540;
},
{
layerId = "A57419AF-C607-4C6D-867D-F9F312359F5B";
name = Bold;
width = 540;
}
);
userData = {
com.typemytype.robofont.mark = (
0.8,
1,
0.4,
1
);
};
},
{
color = (204,255,102,1);
glyphname = heQof;
lastChange = "2015-11-05 16:29:49 +0000";
layers = (
{
layerId = "786F3AE7-681A-4E36-83D7-614DB6CCA2F0";
name = Regular;
paths = (
{
closed = 1;
nodes = (
"500 500 OFFCURVE",
"479 435 OFFCURVE",
"466 400 CURVE SMOOTH",
"313 0 LINE",
"279 0 LINE",
"434 400 LINE SMOOTH",
"452 446 OFFCURVE",
"469 501 OFFCURVE",
"456 515 CURVE",
"57 515 LINE",
"57 545 LINE",
"477 545 LINE"
);
},
{
closed = 1;
nodes = (
"100 341 OFFCURVE",
"98 288 OFFCURVE",
"98 248 CURVE SMOOTH",
"98 -200 LINE",
"66 -200 LINE",
"66 248 LINE SMOOTH",
"66 292 OFFCURVE",
"71 345 OFFCURVE",
"78 365 CURVE",
"109 365 LINE"
);
}
);
width = 540;
},
{
layerId = "A57419AF-C607-4C6D-867D-F9F312359F5B";
name = Bold;
width = 540;
}
);
userData = {
com.typemytype.robofont.mark = (
0.8,
1,
0.4,
1
);
};
},
{
color = (204,255,102,1);
glyphname = heResh;
lastChange = "2015-11-05 16:29:45 +0000";
layers = (
{
layerId = "786F3AE7-681A-4E36-83D7-614DB6CCA2F0";
name = Regular;
paths = (
{
closed = 1;
nodes = (
"460 500 OFFCURVE",
"469 450 OFFCURVE",
"469 398 CURVE SMOOTH",
"469 0 LINE",
"437 0 LINE",
"437 398 LINE SMOOTH",
"437 450 OFFCURVE",
"429 501 OFFCURVE",
"416 515 CURVE",
"77 515 LINE",
"77 545 LINE",
"437 545 LINE"
);
}
);
width = 540;
},
{
layerId = "A57419AF-C607-4C6D-867D-F9F312359F5B";
name = Bold;
width = 540;
}
);
userData = {
com.typemytype.robofont.mark = (
0.8,
1,
0.4,
1
);
};
},
{
color = (204,255,102,1);
glyphname = zero.heb;
lastChange = "2015-11-05 20:57:25 +0000";
layers = (
{
layerId = "786F3AE7-681A-4E36-83D7-614DB6CCA2F0";
name = Regular;
paths = (
{
closed = 1;
nodes = (
"356 -12 OFFCURVE",
"422 110 OFFCURVE",
"422 322 CURVE SMOOTH",
"422 534 OFFCURVE",
"356 652 OFFCURVE",
"236 652 CURVE SMOOTH",
"116 652 OFFCURVE",
"50 534 OFFCURVE",
"50 322 CURVE SMOOTH",
"50 110 OFFCURVE",
"116 -12 OFFCURVE",
"236 -12 CURVE SMOOTH"
);
},
{
closed = 1;
nodes = (
"142 16 OFFCURVE",
"82 124 OFFCURVE",
"82 322 CURVE SMOOTH",
"82 520 OFFCURVE",
"142 624 OFFCURVE",
"236 624 CURVE SMOOTH",
"330 624 OFFCURVE",
"390 520 OFFCURVE",
"390 322 CURVE SMOOTH",
"390 124 OFFCURVE",
"330 16 OFFCURVE",
"236 16 CURVE SMOOTH"
);
}
);
width = 472;
},
{
layerId = "A57419AF-C607-4C6D-867D-F9F312359F5B";
name = Bold;
paths = (
{
closed = 1;
nodes = (
"410 -12 OFFCURVE",
"506 103 OFFCURVE",
"506 320 CURVE SMOOTH",
"506 536 OFFCURVE",
"410 646 OFFCURVE",
"270 646 CURVE SMOOTH",
"130 646 OFFCURVE",
"34 537 OFFCURVE",
"34 320 CURVE SMOOTH",
"34 103 OFFCURVE",
"130 -12 OFFCURVE",
"270 -12 CURVE SMOOTH"
);
},
{
closed = 1;
nodes = (
"230 120 OFFCURVE",
"196 152 OFFCURVE",
"196 320 CURVE SMOOTH",
"196 488 OFFCURVE",
"230 514 OFFCURVE",
"270 514 CURVE SMOOTH",
"310 514 OFFCURVE",
"344 488 OFFCURVE",
"344 320 CURVE SMOOTH",
"344 152 OFFCURVE",
"310 120 OFFCURVE",
"270 120 CURVE SMOOTH"
);
}
);
width = 540;
}
);
userData = {
com.typemytype.robofont.mark = (
0.8,
1,
0.4,
1
);
};
},
{
color = (204,255,102,1);
glyphname = one.heb;
lastChange = "2015-11-05 20:57:25 +0000";
layers = (
{
layerId = "786F3AE7-681A-4E36-83D7-614DB6CCA2F0";
name = Regular;
paths = (
{
closed = 1;
nodes = (
"410 0 LINE",
"410 28 LINE",
"268 28 LINE",
"268 640 LINE",
"242 640 LINE",
"214 624 OFFCURVE",
"174 610 OFFCURVE",
"124 602 CURVE",
"124 580 LINE",
"238 580 LINE",
"238 28 LINE",
"86 28 LINE",
"86 0 LINE"
);
}
);
width = 472;
},
{
layerId = "A57419AF-C607-4C6D-867D-F9F312359F5B";
name = Bold;
paths = (
{
closed = 1;
nodes = (
"488 0 LINE",
"488 138 LINE",
"374 138 LINE",
"374 634 LINE",
"248 634 LINE",
"200 604 OFFCURVE",
"154 586 OFFCURVE",
"82 572 CURVE",
"82 466 LINE",
"202 466 LINE",
"202 138 LINE",
"66 138 LINE",
"66 0 LINE"
);
}
);
width = 540;
}
);
userData = {
com.typemytype.robofont.mark = (
0.8,
1,
0.4,
1
);
};
},
{
color = (204,255,102,1);
glyphname = two.heb;
lastChange = "2015-11-05 20:57:25 +0000";
layers = (
{
layerId = "786F3AE7-681A-4E36-83D7-614DB6CCA2F0";
name = Regular;
paths = (
{
closed = 1;
nodes = (
"426 0 LINE",
"426 28 LINE",
"196 28 LINE SMOOTH",
"160 28 OFFCURVE",
"124 26 OFFCURVE",
"88 24 CURVE",
"276 223 OFFCURVE",
"394 346 OFFCURVE",
"394 476 CURVE SMOOTH",
"394 582 OFFCURVE",
"330 652 OFFCURVE",
"218 652 CURVE SMOOTH",
"142 652 OFFCURVE",
"86 610 OFFCURVE",
"40 558 CURVE",
"62 538 LINE",
"102 588 OFFCURVE",
"156 624 OFFCURVE",
"216 624 CURVE SMOOTH",
"318 624 OFFCURVE",
"362 558 OFFCURVE",
"362 476 CURVE SMOOTH",
"362 362 OFFCURVE",
"258 242 OFFCURVE",
"42 20 CURVE",
"42 0 LINE"
);
}
);
width = 472;
},
{
layerId = "A57419AF-C607-4C6D-867D-F9F312359F5B";
name = Bold;
paths = (
{
closed = 1;
nodes = (
"496 0 LINE",
"496 144 LINE",
"390 144 LINE SMOOTH",
"362 144 OFFCURVE",
"316 140 OFFCURVE",
"284 136 CURVE",
"370 224 OFFCURVE",
"466 336 OFFCURVE",
"466 438 CURVE SMOOTH",
"466 564 OFFCURVE",
"376 646 OFFCURVE",
"248 646 CURVE SMOOTH",
"154 646 OFFCURVE",
"94 614 OFFCURVE",
"28 544 CURVE",
"120 452 LINE",
"150 482 OFFCURVE",
"182 512 OFFCURVE",
"224 512 CURVE SMOOTH",
"270 512 OFFCURVE",
"302 485 OFFCURVE",
"302 428 CURVE SMOOTH",
"302 342 OFFCURVE",
"186 236 OFFCURVE",
"36 98 CURVE",
"36 0 LINE"
);
}
);
width = 540;
}
);
userData = {
com.typemytype.robofont.mark = (
0.8,
1,
0.4,
1
);
};
},
{
color = (204,255,102,1);
glyphname = three.heb;
lastChange = "2015-11-05 20:57:25 +0000";
layers = (
{
layerId = "786F3AE7-681A-4E36-83D7-614DB6CCA2F0";
name = Regular;
paths = (
{
closed = 1;
nodes = (
"338 -12 OFFCURVE",
"420 58 OFFCURVE",
"420 168 CURVE SMOOTH",
"420 260 OFFCURVE",
"352 320 OFFCURVE",
"272 336 CURVE",
"272 340 LINE",
"342 363 OFFCURVE",
"396 414 OFFCURVE",
"396 500 CURVE SMOOTH",
"396 596 OFFCURVE",
"322 652 OFFCURVE",
"228 652 CURVE SMOOTH",
"154 652 OFFCURVE",
"100 616 OFFCURVE",
"58 574 CURVE",
"78 552 LINE",
"114 592 OFFCURVE",
"168 624 OFFCURVE",
"228 624 CURVE SMOOTH",
"310 624 OFFCURVE",
"364 574 OFFCURVE",
"364 498 CURVE SMOOTH",
"364 418 OFFCURVE",
"310 352 OFFCURVE",
"158 352 CURVE",
"158 322 LINE",
"320 322 OFFCURVE",
"388 258 OFFCURVE",
"388 166 CURVE SMOOTH",
"388 76 OFFCURVE",
"322 16 OFFCURVE",
"232 16 CURVE SMOOTH",
"140 16 OFFCURVE",
"88 58 OFFCURVE",
"50 100 CURVE",
"30 78 LINE",
"70 36 OFFCURVE",
"128 -12 OFFCURVE",
"230 -12 CURVE SMOOTH"
);
}
);
width = 472;
},
{
layerId = "A57419AF-C607-4C6D-867D-F9F312359F5B";
name = Bold;
paths = (
{
closed = 1;
nodes = (
"378 -12 OFFCURVE",
"492 54 OFFCURVE",
"492 174 CURVE SMOOTH",
"492 254 OFFCURVE",
"442 304 OFFCURVE",
"370 326 CURVE",
"370 330 LINE",
"438 360 OFFCURVE",
"472 406 OFFCURVE",
"472 467 CURVE SMOOTH",
"472 582 OFFCURVE",
"382 646 OFFCURVE",
"242 646 CURVE SMOOTH",
"164 646 OFFCURVE",
"98 616 OFFCURVE",
"36 564 CURVE",
"122 460 LINE",
"162 494 OFFCURVE",
"192 512 OFFCURVE",
"234 512 CURVE SMOOTH",
"277 512 OFFCURVE",
"300 492 OFFCURVE",
"300 454 CURVE SMOOTH",
"300 410 OFFCURVE",
"268 382 OFFCURVE",
"162 382 CURVE",
"162 262 LINE",
"295 262 OFFCURVE",
"320 234 OFFCURVE",
"320 186 CURVE SMOOTH",
"320 146 OFFCURVE",
"284 126 OFFCURVE",
"228 126 CURVE SMOOTH",
"183 126 OFFCURVE",
"137 150 OFFCURVE",
"98 186 CURVE",
"20 78 LINE",
"68 22 OFFCURVE",
"143 -12 OFFCURVE",
"246 -12 CURVE SMOOTH"
);
}
);
width = 540;
}
);
userData = {
com.typemytype.robofont.mark = (
0.8,
1,
0.4,
1
);
};
},
{
color = (204,255,102,1);
glyphname = four.heb;
lastChange = "2015-11-05 20:57:25 +0000";
layers = (
{
layerId = "786F3AE7-681A-4E36-83D7-614DB6CCA2F0";
name = Regular;
paths = (
{
closed = 1;
nodes = (
"342 0 LINE",
"342 640 LINE",
"322 640 LINE",
"16 212 LINE",
"16 196 LINE",
"440 196 LINE",
"440 224 LINE",
"58 224 LINE",
"260 506 LINE",
"278 534 OFFCURVE",
"296 556 OFFCURVE",
"312 582 CURVE",
"316 582 LINE",
"314 554 OFFCURVE",
"312 504 OFFCURVE",
"312 476 CURVE SMOOTH",
"312 0 LINE"
);
}
);
width = 472;
},
{
layerId = "A57419AF-C607-4C6D-867D-F9F312359F5B";
name = Bold;
paths = (
{
closed = 1;
nodes = (
"450 0 LINE",
"450 634 LINE",
"236 634 LINE",
"20 262 LINE",
"20 142 LINE",
"518 142 LINE",
"518 272 LINE",
"182 272 LINE",
"240 380 LINE",
"258 418 OFFCURVE",
"276 456 OFFCURVE",
"292 494 CURVE",
"296 494 LINE",
"294 451 OFFCURVE",
"290 387 OFFCURVE",
"290 344 CURVE SMOOTH",
"290 0 LINE"
);
}
);
width = 540;
}
);
userData = {
com.typemytype.robofont.mark = (
0.8,
1,
0.4,
1
);
};
},
{
color = (204,255,102,1);
glyphname = five.heb;
lastChange = "2015-11-05 20:57:25 +0000";
layers = (
{
layerId = "786F3AE7-681A-4E36-83D7-614DB6CCA2F0";
name = Regular;
paths = (
{
closed = 1;
nodes = (
"324 -12 OFFCURVE",
"424 64 OFFCURVE",
"424 200 CURVE SMOOTH",
"424 340 OFFCURVE",
"338 402 OFFCURVE",
"230 402 CURVE SMOOTH",
"180 402 OFFCURVE",
"144 387 OFFCURVE",
"110 366 CURVE",
"132 612 LINE",
"390 612 LINE",
"390 640 LINE",
"104 640 LINE",
"80 344 LINE",
"106 328 LINE",
"144 354 OFFCURVE",
"178 372 OFFCURVE",
"228 372 CURVE SMOOTH",
"328 372 OFFCURVE",
"392 306 OFFCURVE",
"392 198 CURVE SMOOTH",
"392 90 OFFCURVE",
"314 16 OFFCURVE",
"226 16 CURVE SMOOTH",
"134 16 OFFCURVE",
"84 56 OFFCURVE",
"46 96 CURVE",
"26 74 LINE",
"66 34 OFFCURVE",
"122 -12 OFFCURVE",
"224 -12 CURVE SMOOTH"
);
}
);
width = 472;
},
{
layerId = "A57419AF-C607-4C6D-867D-F9F312359F5B";
name = Bold;
paths = (
{
closed = 1;
nodes = (
"381 -12 OFFCURVE",
"492 70 OFFCURVE",
"492 212 CURVE SMOOTH",
"492 346 OFFCURVE",
"398 408 OFFCURVE",
"288 408 CURVE SMOOTH",
"267 408 OFFCURVE",
"250 406 OFFCURVE",
"228 398 CURVE",
"236 490 LINE",
"464 490 LINE",
"464 634 LINE",
"88 634 LINE",
"72 308 LINE",
"146 260 LINE",
"184 284 OFFCURVE",
"200 290 OFFCURVE",
"234 290 CURVE SMOOTH",
"284 290 OFFCURVE",
"320 262 OFFCURVE",
"320 208 CURVE SMOOTH",
"320 152 OFFCURVE",
"286 126 OFFCURVE",
"226 126 CURVE SMOOTH",
"180 126 OFFCURVE",
"136 152 OFFCURVE",
"98 186 CURVE",
"22 78 LINE",
"74 26 OFFCURVE",
"148 -12 OFFCURVE",
"252 -12 CURVE SMOOTH"
);
}
);
width = 540;
}
);
userData = {
com.typemytype.robofont.mark = (
0.8,
1,
0.4,
1
);
};
},
{
color = (204,255,102,1);
glyphname = six.heb;
lastChange = "2015-11-05 20:57:25 +0000";
layers = (
{
layerId = "786F3AE7-681A-4E36-83D7-614DB6CCA2F0";
name = Regular;
paths = (
{
closed = 1;
nodes = (
"350 -12 OFFCURVE",
"428 72 OFFCURVE",
"428 186 CURVE SMOOTH",
"428 314 OFFCURVE",
"364 384 OFFCURVE",
"252 384 CURVE SMOOTH",
"188 384 OFFCURVE",
"128 346 OFFCURVE",
"82 288 CURVE",
"82 248 LINE",
"138 326 OFFCURVE",
"202 356 OFFCURVE",
"250 356 CURVE SMOOTH",
"354 356 OFFCURVE",
"396 282 OFFCURVE",
"396 186 CURVE SMOOTH",
"396 92 OFFCURVE",
"338 16 OFFCURVE",
"260 16 CURVE SMOOTH",
"138 16 OFFCURVE",
"86 132 OFFCURVE",
"86 288 CURVE SMOOTH",
"86 538 OFFCURVE",
"178 624 OFFCURVE",
"284 624 CURVE SMOOTH",
"326 624 OFFCURVE",
"365 606 OFFCURVE",
"394 570 CURVE",
"414 592 LINE",
"382 628 OFFCURVE",
"342 652 OFFCURVE",
"286 652 CURVE SMOOTH",
"164 652 OFFCURVE",
"54 560 OFFCURVE",
"54 288 CURVE SMOOTH",
"54 98 OFFCURVE",
"130 -12 OFFCURVE",
"258 -12 CURVE SMOOTH"
);
}
);
width = 472;
},
{
layerId = "A57419AF-C607-4C6D-867D-F9F312359F5B";
name = Bold;
paths = (
{
closed = 1;
nodes = (
"406 -12 OFFCURVE",
"506 68 OFFCURVE",
"506 204 CURVE SMOOTH",
"506 340 OFFCURVE",
"422 400 OFFCURVE",
"314 400 CURVE SMOOTH",
"277 400 OFFCURVE",
"218 374 OFFCURVE",
"188 328 CURVE",
"196 220 LINE",
"219 264 OFFCURVE",
"250 280 OFFCURVE",
"280 280 CURVE SMOOTH",
"316 280 OFFCURVE",
"350 265 OFFCURVE",
"350 204 CURVE SMOOTH",
"350 137 OFFCURVE",
"318 116 OFFCURVE",
"282 116 CURVE SMOOTH",
"243 116 OFFCURVE",
"194 148 OFFCURVE",
"194 306 CURVE SMOOTH",
"194 458 OFFCURVE",
"245 508 OFFCURVE",
"312 508 CURVE SMOOTH",
"348 508 OFFCURVE",
"388 486 OFFCURVE",
"408 464 CURVE",
"498 566 LINE",
"456 608 OFFCURVE",
"390 646 OFFCURVE",
"300 646 CURVE SMOOTH",
"164 646 OFFCURVE",
"38 536 OFFCURVE",
"38 306 CURVE SMOOTH",
"38 76 OFFCURVE",
"164 -12 OFFCURVE",
"286 -12 CURVE SMOOTH"
);
}
);
width = 540;
}
);
userData = {
com.typemytype.robofont.mark = (
0.8,
1,
0.4,
1
);
};
},
{
color = (204,255,102,1);
glyphname = seven.heb;
lastChange = "2015-11-05 20:57:25 +0000";
layers = (
{
layerId = "786F3AE7-681A-4E36-83D7-614DB6CCA2F0";
name = Regular;
paths = (
{
closed = 1;
nodes = (
"226 0 LINE",
"236 250 OFFCURVE",
"276 416 OFFCURVE",
"430 622 CURVE",
"430 640 LINE",
"44 640 LINE",
"44 612 LINE",
"388 612 LINE",
"258 430 OFFCURVE",
"202 264 OFFCURVE",
"192 0 CURVE"
);
}
);
width = 472;
},
{
layerId = "A57419AF-C607-4C6D-867D-F9F312359F5B";
name = Bold;
paths = (
{
closed = 1;
nodes = (
"324 0 LINE",
"336 247 OFFCURVE",
"352 357 OFFCURVE",
"498 528 CURVE",
"498 634 LINE",
"44 634 LINE",
"44 490 LINE",
"316 490 LINE",
"198 327 OFFCURVE",
"164 200 OFFCURVE",
"152 0 CURVE"
);
}
);
width = 540;
}
);
userData = {
com.typemytype.robofont.mark = (
0.8,
1,
0.4,
1
);
};
},
{
color = (204,255,102,1);
glyphname = eight.heb;
lastChange = "2015-11-05 20:57:25 +0000";
layers = (
{
layerId = "786F3AE7-681A-4E36-83D7-614DB6CCA2F0";
name = Regular;
paths = (
{
closed = 1;
nodes = (
"354 -12 OFFCURVE",
"430 62 OFFCURVE",
"430 154 CURVE SMOOTH",
"430 240 OFFCURVE",
"372 282 OFFCURVE",
"318 316 CURVE",
"318 320 LINE",
"354 350 OFFCURVE",
"410 414 OFFCURVE",
"410 486 CURVE SMOOTH",
"410 580 OFFCURVE",
"348 652 OFFCURVE",
"240 652 CURVE SMOOTH",
"150 652 OFFCURVE",
"78 588 OFFCURVE",
"78 498 CURVE SMOOTH",
"78 430 OFFCURVE",
"124 382 OFFCURVE",
"170 352 CURVE",
"170 348 LINE",
"110 316 OFFCURVE",
"40 252 OFFCURVE",
"40 164 CURVE SMOOTH",
"40 64 OFFCURVE",
"124 -12 OFFCURVE",
"240 -12 CURVE SMOOTH"
);
},
{
closed = 1;
nodes = (
"142 16 OFFCURVE",
"72 82 OFFCURVE",
"72 164 CURVE SMOOTH",
"72 238 OFFCURVE",
"124 294 OFFCURVE",
"194 334 CURVE",
"296 294 OFFCURVE",
"398 258 OFFCURVE",
"398 154 CURVE SMOOTH",
"398 78 OFFCURVE",
"336 16 OFFCURVE",
"240 16 CURVE SMOOTH"
);
},
{
closed = 1;
nodes = (
"202 364 OFFCURVE",
"110 402 OFFCURVE",
"110 498 CURVE SMOOTH",
"110 570 OFFCURVE",
"164 624 OFFCURVE",
"240 624 CURVE SMOOTH",
"328 624 OFFCURVE",
"378 560 OFFCURVE",
"378 486 CURVE SMOOTH",
"378 428 OFFCURVE",
"346 376 OFFCURVE",
"288 330 CURVE"
);
}
);
width = 472;
},
{
layerId = "A57419AF-C607-4C6D-867D-F9F312359F5B";
name = Bold;
paths = (
{
closed = 1;
nodes = (
"407 -12 OFFCURVE",
"500 64 OFFCURVE",
"500 166 CURVE SMOOTH",
"500 250 OFFCURVE",
"453 300 OFFCURVE",
"391 333 CURVE",
"391 337 LINE",
"436 366 OFFCURVE",
"472 412 OFFCURVE",
"472 470 CURVE SMOOTH",
"472 578 OFFCURVE",
"392 646 OFFCURVE",
"274 646 CURVE SMOOTH",
"150 646 OFFCURVE",
"62 578 OFFCURVE",
"62 466 CURVE SMOOTH",
"62 400 OFFCURVE",
"96 354 OFFCURVE",
"146 316 CURVE",
"146 312 LINE",
"86 280 OFFCURVE",
"42 236 OFFCURVE",
"42 162 CURVE SMOOTH",
"42 58 OFFCURVE",
"139 -12 OFFCURVE",
"268 -12 CURVE SMOOTH"
);
},
{
closed = 1;
nodes = (
"228 106 OFFCURVE",
"189 132 OFFCURVE",
"189 182 CURVE SMOOTH",
"189 214 OFFCURVE",
"203 246 OFFCURVE",
"222 268 CURVE",
"297 236 OFFCURVE",
"341 218 OFFCURVE",
"341 172 CURVE SMOOTH",
"341 124 OFFCURVE",
"310 106 OFFCURVE",
"272 106 CURVE SMOOTH"
);
},
{
closed = 1;
nodes = (
"246 402 OFFCURVE",
"212 424 OFFCURVE",
"212 466 CURVE SMOOTH",
"212 510 OFFCURVE",
"239 528 OFFCURVE",
"270 528 CURVE SMOOTH",
"310 528 OFFCURVE",
"334 502 OFFCURVE",
"334 458 CURVE SMOOTH",
"334 430 OFFCURVE",
"324 404 OFFCURVE",
"306 378 CURVE"
);
}
);
width = 540;
}
);
userData = {
com.typemytype.robofont.mark = (
0.8,
1,
0.4,
1
);
};
},
{
color = (204,255,102,1);
glyphname = nine.heb;
lastChange = "2015-11-05 20:57:25 +0000";
layers = (
{
layerId = "786F3AE7-681A-4E36-83D7-614DB6CCA2F0";
name = Regular;
paths = (
{
closed = 1;
nodes = (
"308 -12 OFFCURVE",
"418 80 OFFCURVE",
"418 352 CURVE SMOOTH",
"418 542 OFFCURVE",
"342 652 OFFCURVE",
"214 652 CURVE SMOOTH",
"122 652 OFFCURVE",
"44 568 OFFCURVE",
"44 454 CURVE SMOOTH",
"44 326 OFFCURVE",
"108 256 OFFCURVE",
"220 256 CURVE SMOOTH",
"284 256 OFFCURVE",
"344 294 OFFCURVE",
"390 352 CURVE",
"390 392 LINE",
"334 314 OFFCURVE",
"270 284 OFFCURVE",
"222 284 CURVE SMOOTH",
"118 284 OFFCURVE",
"76 358 OFFCURVE",
"76 454 CURVE SMOOTH",
"76 548 OFFCURVE",
"134 624 OFFCURVE",
"212 624 CURVE SMOOTH",
"334 624 OFFCURVE",
"386 508 OFFCURVE",
"386 352 CURVE SMOOTH",
"386 102 OFFCURVE",
"294 16 OFFCURVE",
"188 16 CURVE SMOOTH",
"146 16 OFFCURVE",
"107 34 OFFCURVE",
"78 70 CURVE",
"58 48 LINE",
"89 12 OFFCURVE",
"130 -12 OFFCURVE",
"186 -12 CURVE SMOOTH"
);
}
);
width = 472;
},
{
layerId = "A57419AF-C607-4C6D-867D-F9F312359F5B";
name = Bold;
paths = (
{
closed = 1;
nodes = (
"374 -12 OFFCURVE",
"500 98 OFFCURVE",
"500 328 CURVE SMOOTH",
"500 558 OFFCURVE",
"374 646 OFFCURVE",
"252 646 CURVE SMOOTH",
"132 646 OFFCURVE",
"32 566 OFFCURVE",
"32 430 CURVE SMOOTH",
"32 294 OFFCURVE",
"116 234 OFFCURVE",
"224 234 CURVE SMOOTH",
"261 234 OFFCURVE",
"320 260 OFFCURVE",
"350 306 CURVE",
"342 414 LINE",
"319 370 OFFCURVE",
"288 354 OFFCURVE",
"258 354 CURVE SMOOTH",
"222 354 OFFCURVE",
"188 369 OFFCURVE",
"188 430 CURVE SMOOTH",
"188 497 OFFCURVE",
"220 518 OFFCURVE",
"256 518 CURVE SMOOTH",
"295 518 OFFCURVE",
"344 486 OFFCURVE",
"344 328 CURVE SMOOTH",
"344 176 OFFCURVE",
"294 126 OFFCURVE",
"226 126 CURVE SMOOTH",
"190 126 OFFCURVE",
"150 148 OFFCURVE",
"130 170 CURVE",
"40 68 LINE",
"82 26 OFFCURVE",
"148 -12 OFFCURVE",
"238 -12 CURVE SMOOTH"
);
}
);
width = 540;
}
);
userData = {
com.typemytype.robofont.mark = (
0.8,
1,
0.4,
1
);
};
},
{
color = (204,255,102,1);
glyphname = zero.pnumheb;
lastChange = "2015-11-05 20:57:25 +0000";
layers = (
{
layerId = "786F3AE7-681A-4E36-83D7-614DB6CCA2F0";
name = Regular;
paths = (
{
closed = 1;
nodes = (
"378 -12 OFFCURVE",
"448 110 OFFCURVE",
"448 322 CURVE SMOOTH",
"448 534 OFFCURVE",
"378 652 OFFCURVE",
"252 652 CURVE SMOOTH",
"126 652 OFFCURVE",
"56 534 OFFCURVE",
"56 322 CURVE SMOOTH",
"56 110 OFFCURVE",
"126 -12 OFFCURVE",
"252 -12 CURVE SMOOTH"
);
},
{
closed = 1;
nodes = (
"152 16 OFFCURVE",
"88 124 OFFCURVE",
"88 322 CURVE SMOOTH",
"88 520 OFFCURVE",
"152 624 OFFCURVE",
"252 624 CURVE SMOOTH",
"352 624 OFFCURVE",
"416 520 OFFCURVE",
"416 322 CURVE SMOOTH",
"416 124 OFFCURVE",
"352 16 OFFCURVE",
"252 16 CURVE SMOOTH"
);
}
);
width = 504;
},
{
layerId = "A57419AF-C607-4C6D-867D-F9F312359F5B";
name = Bold;
width = 540;
}
);
userData = {
com.typemytype.robofont.mark = (
0.8,
1,
0.4,
1
);
};
},
{
color = (204,255,102,1);
glyphname = one.pnumheb;
lastChange = "2015-11-05 20:57:25 +0000";
layers = (
{
layerId = "786F3AE7-681A-4E36-83D7-614DB6CCA2F0";
name = Regular;
paths = (
{
closed = 1;
nodes = (
"204 0 LINE",
"204 640 LINE",
"178 640 LINE",
"150 624 OFFCURVE",
"110 610 OFFCURVE",
"60 602 CURVE",
"60 580 LINE",
"174 580 LINE",
"174 0 LINE"
);
}
);
width = 336;
},
{
layerId = "A57419AF-C607-4C6D-867D-F9F312359F5B";
name = Bold;
width = 540;
}
);
userData = {
com.typemytype.robofont.mark = (
0.8,
1,
0.4,
1
);
};
},
{
color = (204,255,102,1);
glyphname = two.pnumheb;
lastChange = "2015-11-05 20:57:25 +0000";
layers = (
{
layerId = "786F3AE7-681A-4E36-83D7-614DB6CCA2F0";
name = Regular;
paths = (
{
closed = 1;
nodes = (
"426 0 LINE",
"426 28 LINE",
"196 28 LINE SMOOTH",
"160 28 OFFCURVE",
"124 26 OFFCURVE",
"88 24 CURVE",
"276 223 OFFCURVE",
"394 346 OFFCURVE",
"394 476 CURVE SMOOTH",
"394 582 OFFCURVE",
"330 652 OFFCURVE",
"218 652 CURVE SMOOTH",
"144 652 OFFCURVE",
"90 614 OFFCURVE",
"40 558 CURVE",
"62 538 LINE",
"102 588 OFFCURVE",
"156 624 OFFCURVE",
"216 624 CURVE SMOOTH",
"318 624 OFFCURVE",
"362 558 OFFCURVE",
"362 476 CURVE SMOOTH",
"362 362 OFFCURVE",
"258 242 OFFCURVE",
"42 20 CURVE",
"42 0 LINE"
);
}
);
width = 480;
},
{
layerId = "A57419AF-C607-4C6D-867D-F9F312359F5B";
name = Bold;
width = 540;
}
);
userData = {
com.typemytype.robofont.mark = (
0.8,
1,
0.4,
1
);
};
},
{
color = (204,255,102,1);
glyphname = seven.pnumheb;
lastChange = "2015-11-05 20:57:25 +0000";
layers = (
{
layerId = "786F3AE7-681A-4E36-83D7-614DB6CCA2F0";
name = Regular;
paths = (
{
closed = 1;
nodes = (
"216 0 LINE",
"226 250 OFFCURVE",
"264 416 OFFCURVE",
"416 622 CURVE",
"416 640 LINE",
"44 640 LINE",
"44 612 LINE",
"374 612 LINE",
"246 430 OFFCURVE",
"192 264 OFFCURVE",
"182 0 CURVE"
);
}
);
width = 470;
},
{
layerId = "A57419AF-C607-4C6D-867D-F9F312359F5B";
name = Bold;
width = 540;
}
);
userData = {
com.typemytype.robofont.mark = (
0.8,
1,
0.4,
1
);
};
},
{
color = (204,255,102,1);
glyphname = one.supsheb;
lastChange = "2015-11-05 20:57:25 +0000";
layers = (
{
layerId = "786F3AE7-681A-4E36-83D7-614DB6CCA2F0";
name = Regular;
paths = (
{
closed = 1;
nodes = (
"206 410 LINE",
"206 800 LINE",
"180 800 LINE",
"158 782 OFFCURVE",
"132 770 OFFCURVE",
"96 762 CURVE",
"96 740 LINE",
"178 740 LINE",
"178 410 LINE"
);
}
);
width = 360;
},
{
layerId = "A57419AF-C607-4C6D-867D-F9F312359F5B";
name = Bold;
width = 540;
}
);
userData = {
com.typemytype.robofont.mark = (
0.8,
1,
0.4,
1
);
};
},
{
color = (204,255,102,1);
glyphname = two.supsheb;
lastChange = "2015-11-05 20:57:25 +0000";
layers = (
{
layerId = "786F3AE7-681A-4E36-83D7-614DB6CCA2F0";
name = Regular;
paths = (
{
closed = 1;
nodes = (
"308 410 LINE",
"308 436 LINE",
"106 436 LINE",
"212 540 OFFCURVE",
"284 606 OFFCURVE",
"284 690 CURVE SMOOTH",
"284 772 OFFCURVE",
"236 812 OFFCURVE",
"166 812 CURVE SMOOTH",
"118 812 OFFCURVE",
"72 778 OFFCURVE",
"50 740 CURVE",
"70 722 LINE",
"92 756 OFFCURVE",
"126 786 OFFCURVE",
"164 786 CURVE SMOOTH",
"218 786 OFFCURVE",
"254 748 OFFCURVE",
"254 688 CURVE SMOOTH",
"254 620 OFFCURVE",
"196 560 OFFCURVE",
"58 430 CURVE",
"58 410 LINE"
);
}
);
width = 360;
},
{
layerId = "A57419AF-C607-4C6D-867D-F9F312359F5B";
name = Bold;
width = 540;
}
);
userData = {
com.typemytype.robofont.mark = (
0.8,
1,
0.4,
1
);
};
},
{
color = (204,255,102,1);
glyphname = three.supsheb;
lastChange = "2015-11-05 20:57:25 +0000";
layers = (
{
layerId = "786F3AE7-681A-4E36-83D7-614DB6CCA2F0";
name = Regular;
paths = (
{
closed = 1;
nodes = (
"248 398 OFFCURVE",
"304 440 OFFCURVE",
"304 512 CURVE SMOOTH",
"304 568 OFFCURVE",
"258 602 OFFCURVE",
"210 610 CURVE",
"254 626 OFFCURVE",
"288 660 OFFCURVE",
"288 710 CURVE SMOOTH",
"288 774 OFFCURVE",
"236 812 OFFCURVE",
"172 812 CURVE SMOOTH",
"124 812 OFFCURVE",
"84 784 OFFCURVE",
"58 750 CURVE",
"78 732 LINE",
"104 764 OFFCURVE",
"138 786 OFFCURVE",
"170 786 CURVE SMOOTH",
"224 786 OFFCURVE",
"258 754 OFFCURVE",
"258 708 CURVE SMOOTH",
"258 662 OFFCURVE",
"212 620 OFFCURVE",
"130 620 CURVE",
"130 596 LINE",
"218 596 OFFCURVE",
"274 566 OFFCURVE",
"274 512 CURVE SMOOTH",
"274 456 OFFCURVE",
"230 424 OFFCURVE",
"178 424 CURVE SMOOTH",
"132 424 OFFCURVE",
"90 452 OFFCURVE",
"66 490 CURVE",
"42 472 LINE",
"68 434 OFFCURVE",
"116 398 OFFCURVE",
"176 398 CURVE SMOOTH"
);
}
);
width = 360;
},
{
layerId = "A57419AF-C607-4C6D-867D-F9F312359F5B";
name = Bold;
width = 540;
}
);
userData = {
com.typemytype.robofont.mark = (
0.8,
1,
0.4,
1
);
};
},
{
color = (204,204,153,1);
glyphname = A;
lastChange = "2015-11-05 20:56:23 +0000";
layers = (
{
anchors = (
{
name = aboveUC;
position = "{260, 680}";
},
{
name = baseLC;
position = "{260, 0}";
},
{
name = belowLC;
position = "{260, -20}";
},
{
name = ogonekUC;
position = "{456, 0}";
}
);
layerId = "786F3AE7-681A-4E36-83D7-614DB6CCA2F0";
name = Regular;
paths = (
{
closed = 1;
nodes = (
"42 0 LINE",
"182 396 LINE SMOOTH",
"210 476 OFFCURVE",
"234 544 OFFCURVE",
"258 626 CURVE",
"262 626 LINE",
"286 544 OFFCURVE",
"310 476 OFFCURVE",
"338 396 CURVE SMOOTH",
"476 0 LINE",
"510 0 LINE",
"274 660 LINE",
"246 660 LINE",
"10 0 LINE"
);
},
{
closed = 1;
nodes = (
"405 236 LINE",
"405 264 LINE",
"112 264 LINE",
"112 236 LINE"
);
}
);
width = 520;
},
{
anchors = (
{
name = aboveUC;
position = "{288, 670}";
},
{
name = baseLC;
position = "{500, 0}";
},
{
name = belowLC;
position = "{288, -20}";
},
{
name = ogonekUC;
position = "{484, 0}";
}
);
layerId = "A57419AF-C607-4C6D-867D-F9F312359F5B";
name = Bold;
paths = (
{
closed = 1;
nodes = (
"166 0 LINE",
"240 316 LINE SMOOTH",
"256 378 OFFCURVE",
"272 456 OFFCURVE",
"286 522 CURVE",
"290 522 LINE",
"306 457 OFFCURVE",
"322 378 OFFCURVE",
"338 316 CURVE SMOOTH",
"412 0 LINE",
"594 0 LINE",
"396 650 LINE",
"188 650 LINE",
"-10 0 LINE"
);
},
{
closed = 1;
nodes = (
"450 138 LINE",
"450 271 LINE",
"132 271 LINE",
"132 138 LINE"
);
}
);
width = 584;
}
);
leftKerningGroup = LAT_A_UC_RIGHT;
rightKerningGroup = LAT_A_UC_LEFT;
unicode = 0041;
userData = {
com.typemytype.robofont.mark = (
0.8,
0.8,
0.6,
1
);
};
},
{
glyphname = B;
lastChange = "2015-11-05 20:56:23 +0000";
layers = (
{
anchors = (
{
name = aboveUC;
position = "{276, 680}";
},
{
name = belowLC;
position = "{292, -20}";
}
);
layerId = "786F3AE7-681A-4E36-83D7-614DB6CCA2F0";
name = Regular;
paths = (
{
closed = 1;
nodes = (
"284 0 LINE SMOOTH",
"434 0 OFFCURVE",
"528 66 OFFCURVE",
"528 192 CURVE SMOOTH",
"528 284 OFFCURVE",
"470 338 OFFCURVE",
"382 352 CURVE",
"382 356 LINE",
"450 376 OFFCURVE",
"486 430 OFFCURVE",
"486 500 CURVE SMOOTH",
"486 608 OFFCURVE",
"404 660 OFFCURVE",
"272 660 CURVE SMOOTH",
"100 660 LINE",
"100 0 LINE"
);
},
{
closed = 1;
nodes = (
"132 338 LINE",
"272 338 LINE SMOOTH",
"414 338 OFFCURVE",
"496 290 OFFCURVE",
"496 190 CURVE SMOOTH",
"496 78 OFFCURVE",
"410 28 OFFCURVE",
"272 28 CURVE SMOOTH",
"132 28 LINE"
);
},
{
closed = 1;
nodes = (
"132 632 LINE",
"258 632 LINE SMOOTH",
"386 632 OFFCURVE",
"454 596 OFFCURVE",
"454 498 CURVE SMOOTH",
"454 416 OFFCURVE",
"396 366 OFFCURVE",
"252 366 CURVE SMOOTH",
"132 366 LINE"
);
}
);
width = 574;
},
{
anchors = (
{
name = aboveUC;
position = "{305, 670}";
},
{
name = belowLC;
position = "{320, -20}";
}
);
layerId = "A57419AF-C607-4C6D-867D-F9F312359F5B";
name = Bold;
paths = (
{
closed = 1;
nodes = (
"326 0 LINE SMOOTH",
"466 0 OFFCURVE",
"582 58 OFFCURVE",
"582 192 CURVE SMOOTH",
"582 278 OFFCURVE",
"532 326 OFFCURVE",
"470 344 CURVE",
"470 348 LINE",
"520 368 OFFCURVE",
"552 432 OFFCURVE",
"552 488 CURVE SMOOTH",
"552 616 OFFCURVE",
"442 650 OFFCURVE",
"306 650 CURVE SMOOTH",
"72 650 LINE",
"72 0 LINE"
);
},
{
closed = 1;
nodes = (
"244 270 LINE",
"314 270 LINE SMOOTH",
"382 270 OFFCURVE",
"414 252 OFFCURVE",
"414 204 CURVE SMOOTH",
"414 156 OFFCURVE",
"382 132 OFFCURVE",
"314 132 CURVE SMOOTH",
"244 132 LINE"
);
},
{
closed = 1;
nodes = (
"244 518 LINE",
"302 518 LINE SMOOTH",
"358 518 OFFCURVE",
"384 502 OFFCURVE",
"384 462 CURVE SMOOTH",
"384 422 OFFCURVE",
"358 396 OFFCURVE",
"302 396 CURVE SMOOTH",
"244 396 LINE"
);
}
);
width = 612;
}
);
leftKerningGroup = LAT_H_UC_RIGHT;
rightKerningGroup = LAT_B_UC_LEFT;
unicode = 0042;
},
{
glyphname = C;
lastChange = "2015-11-05 20:56:23 +0000";
layers = (
{
anchors = (
{
name = aboveUC;
position = "{318, 680}";
},
{
name = baseLC;
position = "{338, 0}";
},
{
name = belowLC;
position = "{338, -20}";
}
);
layerId = "786F3AE7-681A-4E36-83D7-614DB6CCA2F0";
name = Regular;
paths = (
{
closed = 1;
nodes = (
"414 -12 OFFCURVE",
"472 24 OFFCURVE",
"522 82 CURVE",
"502 102 LINE",
"452 46 OFFCURVE",
"400 18 OFFCURVE",
"330 18 CURVE SMOOTH",
"182 18 OFFCURVE",
"90 142 OFFCURVE",
"90 332 CURVE SMOOTH",
"90 522 OFFCURVE",
"182 642 OFFCURVE",
"334 642 CURVE SMOOTH",
"396 642 OFFCURVE",
"446 614 OFFCURVE",
"482 572 CURVE",
"502 594 LINE",
"468 634 OFFCURVE",
"410 672 OFFCURVE",
"334 672 CURVE SMOOTH",
"166 672 OFFCURVE",
"56 540 OFFCURVE",
"56 332 CURVE SMOOTH",
"56 124 OFFCURVE",
"166 -12 OFFCURVE",
"328 -12 CURVE SMOOTH"
);
}
);
width = 562;
},
{
anchors = (
{
name = aboveUC;
position = "{348, 670}";
},
{
name = baseLC;
position = "{352, 0}";
},
{
name = belowLC;
position = "{352, -20}";
}
);
layerId = "A57419AF-C607-4C6D-867D-F9F312359F5B";
name = Bold;
paths = (
{
closed = 1;
nodes = (
"438 -12 OFFCURVE",
"513 20 OFFCURVE",
"568 84 CURVE",
"478 192 LINE",
"450 162 OFFCURVE",
"410 136 OFFCURVE",
"360 136 CURVE SMOOTH",
"276 136 OFFCURVE",
"220 204 OFFCURVE",
"220 326 CURVE SMOOTH",
"220 444 OFFCURVE",
"286 514 OFFCURVE",
"362 514 CURVE SMOOTH",
"406 514 OFFCURVE",
"438 494 OFFCURVE",
"470 466 CURVE",
"560 576 LINE",
"514 622 OFFCURVE",
"444 662 OFFCURVE",
"358 662 CURVE SMOOTH",
"194 662 OFFCURVE",
"44 538 OFFCURVE",
"44 320 CURVE SMOOTH",
"44 98 OFFCURVE",
"188 -12 OFFCURVE",
"354 -12 CURVE SMOOTH"
);
}
);
width = 586;
}
);
leftKerningGroup = LAT_O_UC_RIGHT;
rightKerningGroup = LAT_C_UC_LEFT;
unicode = 0043;
},
{
color = (204,204,153,1);
glyphname = D;
lastChange = "2015-11-05 20:56:23 +0000";
layers = (
{
anchors = (
{
name = aboveUC;
position = "{300, 680}";
},
{
name = baseLC;
position = "{300, 0}";
},
{
name = belowLC;
position = "{298, -20}";
}
);
layerId = "786F3AE7-681A-4E36-83D7-614DB6CCA2F0";
name = Regular;
paths = (
{
closed = 1;
nodes = (
"248 0 LINE SMOOTH",
"452 0 OFFCURVE",
"544 136 OFFCURVE",
"544 332 CURVE SMOOTH",
"544 528 OFFCURVE",
"452 660 OFFCURVE",
"248 660 CURVE SMOOTH",
"100 660 LINE",
"100 0 LINE"
);
},
{
closed = 1;
nodes = (
"132 632 LINE",
"244 632 LINE SMOOTH",
"432 632 OFFCURVE",
"510 506 OFFCURVE",
"510 332 CURVE SMOOTH",
"510 158 OFFCURVE",
"432 28 OFFCURVE",
"244 28 CURVE SMOOTH",
"132 28 LINE"
);
}
);
width = 600;
},
{
anchors = (
{
name = aboveUC;
position = "{322, 670}";
},
{
name = baseLC;
position = "{300, 0}";
},
{
name = belowLC;
position = "{316, -20}";
}
);
layerId = "A57419AF-C607-4C6D-867D-F9F312359F5B";
name = Bold;
paths = (
{
closed = 1;
nodes = (
"274 0 LINE SMOOTH",
"462 0 OFFCURVE",
"598 98 OFFCURVE",
"598 328 CURVE SMOOTH",
"598 558 OFFCURVE",
"462 650 OFFCURVE",
"264 650 CURVE SMOOTH",
"72 650 LINE",
"72 0 LINE"
);
},
{
closed = 1;
nodes = (
"244 512 LINE",
"254 512 LINE SMOOTH",
"348 512 OFFCURVE",
"422 480 OFFCURVE",
"422 328 CURVE SMOOTH",
"422 176 OFFCURVE",
"348 138 OFFCURVE",
"254 138 CURVE SMOOTH",
"244 138 LINE"
);
}
);
width = 642;
}
);
leftKerningGroup = LAT_H_UC_RIGHT;
rightKerningGroup = LAT_O_UC_LEFT;
unicode = 0044;
userData = {
com.typemytype.robofont.mark = (
0.8,
0.8,
0.6,
1
);
};
},
{
color = (204,204,153,1);
glyphname = E;
lastChange = "2015-11-05 20:56:23 +0000";
layers = (
{
anchors = (
{
name = aboveUC;
position = "{282, 680}";
},
{
name = baseLC;
position = "{255, 0}";
},
{
name = belowLC;
position = "{290, -20}";
},
{
name = ogonekUC;
position = "{384, 0}";
}
);
layerId = "786F3AE7-681A-4E36-83D7-614DB6CCA2F0";
name = Regular;
paths = (
{
closed = 1;
nodes = (
"464 0 LINE",
"464 28 LINE",
"132 28 LINE",
"132 338 LINE",
"402 338 LINE",
"402 366 LINE",
"132 366 LINE",
"132 632 LINE",
"454 632 LINE",
"454 660 LINE",
"100 660 LINE",
"100 0 LINE"
);
}
);
width = 510;
},
{
anchors = (
{
name = aboveUC;
position = "{290, 670}";
},
{
name = baseLC;
position = "{310, 0}";
},
{
name = belowLC;
position = "{290, -20}";
},
{
name = ogonekUC;
position = "{396, 0}";
}
);
layerId = "A57419AF-C607-4C6D-867D-F9F312359F5B";
name = Bold;
paths = (
{
closed = 1;
nodes = (
"502 0 LINE",
"502 144 LINE",
"244 144 LINE",
"244 260 LINE",
"456 260 LINE",
"456 404 LINE",
"244 404 LINE",
"244 506 LINE",
"492 506 LINE",
"492 650 LINE",
"72 650 LINE",
"72 0 LINE"
);
}
);
width = 556;
}
);
leftKerningGroup = LAT_H_UC_RIGHT;
rightKerningGroup = LAT_E_UC_LEFT;
unicode = 0045;
userData = {
com.typemytype.robofont.mark = (
0.8,
0.8,
0.6,
1
);
};
},
{
color = (204,204,153,1);
glyphname = F;
lastChange = "2015-11-05 20:56:23 +0000";
layers = (
{
anchors = (
{
name = aboveUC;
position = "{284, 680}";
},
{
name = baseLC;
position = "{235, 0}";
},
{
name = belowLC;
position = "{116, -20}";
}
);
layerId = "786F3AE7-681A-4E36-83D7-614DB6CCA2F0";
name = Regular;
paths = (
{
closed = 1;
nodes = (
"132 0 LINE",
"132 326 LINE",
"402 326 LINE",
"402 354 LINE",
"132 354 LINE",
"132 632 LINE",
"452 632 LINE",
"452 660 LINE",
"100 660 LINE",
"100 0 LINE"
);
}
);
width = 470;
},
{
anchors = (
{
name = aboveUC;
position = "{290, 670}";
},
{
name = baseLC;
position = "{160, 0}";
},
{
name = belowLC;
position = "{168, -20}";
}
);
layerId = "A57419AF-C607-4C6D-867D-F9F312359F5B";
name = Bold;
paths = (
{
closed = 1;
nodes = (
"244 0 LINE",
"244 238 LINE",
"460 238 LINE",
"460 382 LINE",
"244 382 LINE",
"244 506 LINE",
"496 506 LINE",
"496 650 LINE",
"72 650 LINE",
"72 0 LINE"
);
}
);
width = 536;
}
);
leftKerningGroup = LAT_H_UC_RIGHT;
rightKerningGroup = LAT_F_UC_LEFT;
unicode = 0046;
userData = {
com.typemytype.robofont.mark = (
0.8,
0.8,
0.6,
1
);
};
},
{
glyphname = G;
lastChange = "2015-11-05 20:56:23 +0000";
layers = (
{
anchors = (
{
name = aboveUC;
position = "{342, 680}";
},
{
name = belowLC;
position = "{336, -20}";
}
);
layerId = "786F3AE7-681A-4E36-83D7-614DB6CCA2F0";
name = Regular;
paths = (
{
closed = 1;
nodes = (
"420 -12 OFFCURVE",
"486 18 OFFCURVE",
"526 62 CURVE",
"526 318 LINE",
"330 318 LINE",
"330 290 LINE",
"494 290 LINE",
"494 72 LINE",
"460 38 OFFCURVE",
"400 18 OFFCURVE",
"336 18 CURVE SMOOTH",
"182 18 OFFCURVE",
"90 142 OFFCURVE",
"90 332 CURVE SMOOTH",
"90 522 OFFCURVE",
"186 642 OFFCURVE",
"344 642 CURVE SMOOTH",
"418 642 OFFCURVE",
"466 610 OFFCURVE",
"500 572 CURVE",
"520 594 LINE",
"486 630 OFFCURVE",
"432 672 OFFCURVE",
"344 672 CURVE SMOOTH",
"170 672 OFFCURVE",
"56 540 OFFCURVE",
"56 332 CURVE SMOOTH",
"56 124 OFFCURVE",
"166 -12 OFFCURVE",
"334 -12 CURVE SMOOTH"
);
}
);
width = 600;
},
{
anchors = (
{
name = aboveUC;
position = "{372, 670}";
},
{
name = belowLC;
position = "{368, -20}";
}
);
layerId = "A57419AF-C607-4C6D-867D-F9F312359F5B";
name = Bold;
paths = (
{
closed = 1;
nodes = (
"464 -12 OFFCURVE",
"546 24 OFFCURVE",
"592 68 CURVE",
"592 378 LINE",
"344 378 LINE",
"344 238 LINE",
"440 238 LINE",
"440 148 LINE",
"428 140 OFFCURVE",
"408 136 OFFCURVE",
"390 136 CURVE SMOOTH",
"274 136 OFFCURVE",
"220 204 OFFCURVE",
"220 326 CURVE SMOOTH",
"220 444 OFFCURVE",
"286 514 OFFCURVE",
"374 514 CURVE SMOOTH",
"426 514 OFFCURVE",
"458 494 OFFCURVE",
"490 466 CURVE",
"580 576 LINE",
"534 622 OFFCURVE",
"464 662 OFFCURVE",
"368 662 CURVE SMOOTH",
"194 662 OFFCURVE",
"44 538 OFFCURVE",
"44 320 CURVE SMOOTH",
"44 98 OFFCURVE",
"190 -12 OFFCURVE",
"372 -12 CURVE SMOOTH"
);
}
);
width = 646;
}
);
leftKerningGroup = LAT_O_UC_RIGHT;
rightKerningGroup = LAT_G_UC_LEFT;
unicode = 0047;
},
{
color = (204,204,153,1);
glyphname = H;
lastChange = "2015-11-05 20:56:23 +0000";
layers = (
{
anchors = (
{
name = aboveUC;
position = "{316, 680}";
},
{
name = baseLC;
position = "{317, 0}";
},
{
name = belowLC;
position = "{316, -20}";
}
);
layerId = "786F3AE7-681A-4E36-83D7-614DB6CCA2F0";
name = Regular;
paths = (
{
closed = 1;
nodes = (
"132 0 LINE",
"132 338 LINE",
"502 338 LINE",
"502 0 LINE",
"534 0 LINE",
"534 660 LINE",
"502 660 LINE",
"502 366 LINE",
"132 366 LINE",
"132 660 LINE",
"100 660 LINE",
"100 0 LINE"
);
}
);
width = 634;
},
{
anchors = (
{
name = aboveUC;
position = "{340, 670}";
},
{
name = baseLC;
position = "{160, 0}";
},
{
name = belowLC;
position = "{340, -20}";
}
);
layerId = "A57419AF-C607-4C6D-867D-F9F312359F5B";
name = Bold;
paths = (
{
closed = 1;
nodes = (
"244 0 LINE",
"244 258 LINE",
"438 258 LINE",
"438 0 LINE",
"610 0 LINE",
"610 650 LINE",
"438 650 LINE",
"438 408 LINE",
"244 408 LINE",
"244 650 LINE",
"72 650 LINE",
"72 0 LINE"
);
}
);
width = 682;
}
);
leftKerningGroup = LAT_H_UC_RIGHT;
rightKerningGroup = LAT_H_UC_LEFT;
unicode = 0048;
userData = {
com.typemytype.robofont.mark = (
0.8,
0.8,
0.6,
1
);
};
},
{
color = (204,204,153,1);
glyphname = I;
lastChange = "2015-11-05 20:56:23 +0000";
layers = (
{
anchors = (
{
name = aboveUC;
position = "{116, 680}";
},
{
name = baseLC;
position = "{116, 0}";
},
{
name = belowLC;
position = "{116, -20}";
},
{
name = ogonekUC;
position = "{90, 0}";
}
);
layerId = "786F3AE7-681A-4E36-83D7-614DB6CCA2F0";
name = Regular;
paths = (
{
closed = 1;
nodes = (
"132 0 LINE",
"132 660 LINE",
"100 660 LINE",
"100 0 LINE"
);
}
);
width = 232;
},
{
anchors = (
{
name = aboveUC;
position = "{158, 670}";
},
{
name = baseLC;
position = "{160, 0}";
},
{
name = belowLC;
position = "{158, -20}";
},
{
name = ogonekUC;
position = "{140, 0}";
}
);
layerId = "A57419AF-C607-4C6D-867D-F9F312359F5B";
name = Bold;
paths = (
{
closed = 1;
nodes = (
"244 0 LINE",
"244 650 LINE",
"72 650 LINE",
"72 0 LINE"
);
}
);
width = 316;
}
);
leftKerningGroup = LAT_I_UC_RIGHT;
rightKerningGroup = LAT_I_UC_LEFT;
unicode = 0049;
userData = {
com.typemytype.robofont.mark = (
0.8,
0.8,
0.6,
1
);
};
},
{
glyphname = J;
lastChange = "2015-11-05 20:56:23 +0000";
layers = (
{
anchors = (
{
name = aboveUC;
position = "{338, 680}";
},
{
name = belowLC;
position = "{240, -20}";
}
);
layerId = "786F3AE7-681A-4E36-83D7-614DB6CCA2F0";
name = Regular;
paths = (
{
closed = 1;
nodes = (
"316 -12 OFFCURVE",
"358 70 OFFCURVE",
"358 174 CURVE SMOOTH",
"358 660 LINE",
"326 660 LINE",
"326 178 LINE SMOOTH",
"326 68 OFFCURVE",
"286 18 OFFCURVE",
"202 18 CURVE SMOOTH",
"144 18 OFFCURVE",
"104 40 OFFCURVE",
"70 98 CURVE",
"44 82 LINE",
"76 22 OFFCURVE",
"130 -12 OFFCURVE",
"200 -12 CURVE SMOOTH"
);
}
);
width = 456;
},
{
anchors = (
{
name = aboveUC;
position = "{364, 670}";
},
{
name = belowLC;
position = "{276, -20}";
}
);
layerId = "A57419AF-C607-4C6D-867D-F9F312359F5B";
name = Bold;
paths = (
{
closed = 1;
nodes = (
"382 -12 OFFCURVE",
"452 96 OFFCURVE",
"452 226 CURVE SMOOTH",
"452 650 LINE",
"280 650 LINE",
"280 240 LINE SMOOTH",
"280 158 OFFCURVE",
"254 136 OFFCURVE",
"208 136 CURVE SMOOTH",
"180 136 OFFCURVE",
"148 156 OFFCURVE",
"126 198 CURVE",
"10 111 LINE",
"58 28 OFFCURVE",
"126 -12 OFFCURVE",
"232 -12 CURVE SMOOTH"
);
}
);
width = 520;
}
);
leftKerningGroup = LAT_J_UC_RIGHT;
rightKerningGroup = LAT_J_UC_LEFT;
unicode = 004A;
},
{
glyphname = K;
lastChange = "2015-11-05 20:56:23 +0000";
layers = (
{
anchors = (
{
name = aboveUC;
position = "{304, 680}";
},
{
name = belowLC;
position = "{324, -20}";
}
);
layerId = "786F3AE7-681A-4E36-83D7-614DB6CCA2F0";
name = Regular;
paths = (
{
closed = 1;
nodes = (
"132 0 LINE",
"132 234 LINE",
"274 394 LINE",
"500 0 LINE",
"538 0 LINE",
"298 418 LINE",
"510 660 LINE",
"470 660 LINE",
"134 280 LINE",
"132 280 LINE",
"132 660 LINE",
"100 660 LINE",
"100 0 LINE"
);
}
);
width = 550;
},
{
anchors = (
{
name = aboveUC;
position = "{322, 670}";
},
{
name = belowLC;
position = "{334, -20}";
}
);
layerId = "A57419AF-C607-4C6D-867D-F9F312359F5B";
name = Bold;
paths = (
{
closed = 1;
nodes = (
"244 0 LINE",
"244 162 LINE",
"306 250 LINE",
"450 0 LINE",
"638 0 LINE",
"406 386 LINE",
"600 650 LINE",
"412 650 LINE",
"248 408 LINE",
"244 408 LINE",
"244 650 LINE",
"72 650 LINE",
"72 0 LINE"
);
}
);
width = 628;
}
);
leftKerningGroup = LAT_H_UC_RIGHT;
rightKerningGroup = LAT_K_UC_LEFT;
unicode = 004B;
},
{
color = (204,204,153,1);
glyphname = L;
lastChange = "2015-11-05 20:56:23 +0000";
layers = (
{
anchors = (
{
name = aboveUC;
position = "{116, 680}";
},
{
name = baseLC;
position = "{230, 0}";
},
{
name = belowLC;
position = "{288, -20}";
},
{
name = center;
position = "{230, 0}";
}
);
layerId = "786F3AE7-681A-4E36-83D7-614DB6CCA2F0";
name = Regular;
paths = (
{
closed = 1;
nodes = (
"442 0 LINE",
"442 28 LINE",
"132 28 LINE",
"132 660 LINE",
"100 660 LINE",
"100 0 LINE"
);
}
);
width = 460;
},
{
anchors = (
{
name = aboveUC;
position = "{162, 670}";
},
{
name = baseLC;
position = "{290, 0}";
},
{
name = belowLC;
position = "{291, -20}";
},
{
name = center;
position = "{156, 350}";
}
);
layerId = "A57419AF-C607-4C6D-867D-F9F312359F5B";
name = Bold;
paths = (
{
closed = 1;
nodes = (
"490 0 LINE",
"490 144 LINE",
"244 144 LINE",
"244 650 LINE",
"72 650 LINE",
"72 0 LINE"
);
}
);
width = 530;
}
);
leftKerningGroup = LAT_H_UC_RIGHT;
rightKerningGroup = LAT_L_UC_LEFT;
unicode = 004C;
userData = {
com.typemytype.robofont.mark = (
0.8,
0.8,
0.6,
1
);
};
},
{
color = (204,204,153,1);
glyphname = M;
lastChange = "2015-11-05 20:56:23 +0000";
layers = (
{
anchors = (
{
name = aboveUC;
position = "{348, 680}";
},
{
name = baseLC;
position = "{349, 0}";
},
{
name = belowLC;
position = "{350, -20}";
}
);
layerId = "786F3AE7-681A-4E36-83D7-614DB6CCA2F0";
name = Regular;
paths = (
{
closed = 1;
nodes = (
"130 0 LINE",
"130 460 LINE SMOOTH",
"130 512 OFFCURVE",
"128 578 OFFCURVE",
"126 632 CURVE",
"130 632 LINE",
"182 486 LINE",
"332 74 LINE",
"366 74 LINE",
"515 486 LINE",
"566 632 LINE",
"570 632 LINE",
"568 578 OFFCURVE",
"566 512 OFFCURVE",
"566 460 CURVE SMOOTH",
"566 0 LINE",
"598 0 LINE",
"598 660 LINE",
"546 660 LINE",
"404 260 LINE",
"386 210 OFFCURVE",
"370 160 OFFCURVE",
"352 110 CURVE",
"348 110 LINE",
"330 160 OFFCURVE",
"312 210 OFFCURVE",
"294 260 CURVE",
"152 660 LINE",
"100 660 LINE",
"100 0 LINE"
);
}
);
width = 698;
},
{
anchors = (
{
name = aboveUC;
position = "{388, 670}";
},
{
name = baseLC;
position = "{630, 0}";
},
{
name = belowLC;
position = "{390, -20}";
}
);
layerId = "A57419AF-C607-4C6D-867D-F9F312359F5B";
name = Bold;
paths = (
{
closed = 1;
nodes = (
"226 0 LINE",
"226 192 LINE SMOOTH",
"226 258 OFFCURVE",
"212 359 OFFCURVE",
"204 424 CURVE",
"208 424 LINE",
"260 268 LINE",
"340 53 LINE",
"432 53 LINE",
"512 268 LINE",
"566 424 LINE",
"570 424 LINE",
"562 359 OFFCURVE",
"548 258 OFFCURVE",
"548 192 CURVE SMOOTH",
"548 0 LINE",
"704 0 LINE",
"704 650 LINE",
"520 650 LINE",
"426 384 LINE",
"414 348 OFFCURVE",
"404 308 OFFCURVE",
"392 270 CURVE",
"388 270 LINE",
"376 308 OFFCURVE",
"366 348 OFFCURVE",
"354 384 CURVE",
"256 650 LINE",
"72 650 LINE",
"72 0 LINE"
);
}
);
width = 776;
}
);
leftKerningGroup = LAT_H_UC_RIGHT;
rightKerningGroup = LAT_H_UC_LEFT;
unicode = 004D;
userData = {
com.typemytype.robofont.mark = (
0.8,
0.8,
0.6,
1
);
};
},
{
color = (204,204,153,1);
glyphname = N;
lastChange = "2015-11-05 20:56:23 +0000";
layers = (
{
anchors = (
{
name = aboveUC;
position = "{322, 680}";
},
{
name = baseLC;
position = "{316, 0}";
},
{
name = belowLC;
position = "{314, -20}";
}
);
layerId = "786F3AE7-681A-4E36-83D7-614DB6CCA2F0";
name = Regular;
paths = (
{
closed = 1;
nodes = (
"130 0 LINE",
"130 434 LINE SMOOTH",
"130 496 OFFCURVE",
"128 552 OFFCURVE",
"126 614 CURVE",
"130 614 LINE",
"206 484 LINE",
"498 0 LINE",
"532 0 LINE",
"532 660 LINE",
"502 660 LINE",
"502 232 LINE SMOOTH",
"502 170 OFFCURVE",
"504 110 OFFCURVE",
"506 46 CURVE",
"502 46 LINE",
"426 176 LINE",
"134 660 LINE",
"100 660 LINE",
"100 0 LINE"
);
}
);
width = 632;
},
{
anchors = (
{
name = aboveUC;
position = "{336, 670}";
},
{
name = baseLC;
position = "{520, 0}";
},
{
name = belowLC;
position = "{350, -20}";
}
);
layerId = "A57419AF-C607-4C6D-867D-F9F312359F5B";
name = Bold;
paths = (
{
closed = 1;
nodes = (
"236 0 LINE",
"236 188 LINE SMOOTH",
"236 268 OFFCURVE",
"222 362 OFFCURVE",
"214 436 CURVE",
"218 436 LINE",
"280 291 LINE",
"424 0 LINE",
"600 0 LINE",
"600 650 LINE",
"436 650 LINE",
"436 462 LINE SMOOTH",
"436 382 OFFCURVE",
"450 284 OFFCURVE",
"458 214 CURVE",
"454 214 LINE",
"392 360 LINE",
"248 650 LINE",
"72 650 LINE",
"72 0 LINE"
);
}
);
width = 672;
}
);
leftKerningGroup = LAT_H_UC_RIGHT;
rightKerningGroup = LAT_H_UC_LEFT;
unicode = 004E;
userData = {
com.typemytype.robofont.mark = (
0.8,
0.8,
0.6,
1
);
};
},
{
color = (204,204,153,1);
glyphname = O;
lastChange = "2015-11-05 20:56:23 +0000";
layers = (
{
anchors = (
{
name = aboveUC;
position = "{324, 680}";
},
{
name = baseLC;
position = "{324, 0}";
},
{
name = belowLC;
position = "{324, -20}";
},
{
name = hornLC;
position = "{456, 650}";
},
{
name = ogonekUC;
position = "{324, 0}";
}
);
layerId = "786F3AE7-681A-4E36-83D7-614DB6CCA2F0";
name = Regular;
paths = (
{
closed = 1;
nodes = (
"480 -12 OFFCURVE",
"592 124 OFFCURVE",
"592 332 CURVE SMOOTH",
"592 540 OFFCURVE",
"480 672 OFFCURVE",
"324 672 CURVE SMOOTH",
"168 672 OFFCURVE",
"56 540 OFFCURVE",
"56 332 CURVE SMOOTH",
"56 124 OFFCURVE",
"168 -12 OFFCURVE",
"324 -12 CURVE SMOOTH"
);
},
{
closed = 1;
nodes = (
"184 18 OFFCURVE",
"90 142 OFFCURVE",
"90 332 CURVE SMOOTH",
"90 522 OFFCURVE",
"184 642 OFFCURVE",
"324 642 CURVE SMOOTH",
"464 642 OFFCURVE",
"558 522 OFFCURVE",
"558 332 CURVE SMOOTH",
"558 142 OFFCURVE",
"464 18 OFFCURVE",
"324 18 CURVE SMOOTH"
);
}
);
width = 648;
},
{
anchors = (
{
name = aboveUC;
position = "{346, 670}";
},
{
name = baseLC;
position = "{346, 0}";
},
{
name = belowLC;
position = "{346, -20}";
},
{
name = hornLC;
position = "{490, 640}";
},
{
name = ogonekUC;
position = "{346, 0}";
}
);
layerId = "A57419AF-C607-4C6D-867D-F9F312359F5B";
name = Bold;
paths = (
{
closed = 1;
nodes = (
"526 -12 OFFCURVE",
"648 114 OFFCURVE",
"648 328 CURVE SMOOTH",
"648 541 OFFCURVE",
"526 662 OFFCURVE",
"346 662 CURVE SMOOTH",
"166 662 OFFCURVE",
"44 542 OFFCURVE",
"44 328 CURVE SMOOTH",
"44 114 OFFCURVE",
"166 -12 OFFCURVE",
"346 -12 CURVE SMOOTH"
);
},
{
closed = 1;
nodes = (
"268 136 OFFCURVE",
"220 210 OFFCURVE",
"220 328 CURVE SMOOTH",
"220 446 OFFCURVE",
"268 514 OFFCURVE",
"346 514 CURVE SMOOTH",
"424 514 OFFCURVE",
"472 446 OFFCURVE",
"472 328 CURVE SMOOTH",
"472 210 OFFCURVE",
"424 136 OFFCURVE",
"346 136 CURVE SMOOTH"
);
}
);
width = 692;
}
);
leftKerningGroup = LAT_O_UC_RIGHT;
rightKerningGroup = LAT_O_UC_LEFT;
unicode = 004F;
userData = {
com.typemytype.robofont.mark = (
0.8,
0.8,
0.6,
1
);
};
},
{
glyphname = P;
lastChange = "2015-11-05 20:56:23 +0000";
layers = (
{
anchors = (
{
name = aboveUC;
position = "{292, 680}";
},
{
name = belowLC;
position = "{118, -20}";
}
);
layerId = "786F3AE7-681A-4E36-83D7-614DB6CCA2F0";
name = Regular;
paths = (
{
closed = 1;
nodes = (
"132 0 LINE",
"132 292 LINE",
"262 292 LINE SMOOTH",
"410 292 OFFCURVE",
"494 354 OFFCURVE",
"494 480 CURVE SMOOTH",
"494 612 OFFCURVE",
"408 660 OFFCURVE",
"258 660 CURVE SMOOTH",
"100 660 LINE",
"100 0 LINE"
);
},
{
closed = 1;
nodes = (
"132 632 LINE",
"246 632 LINE SMOOTH",
"390 632 OFFCURVE",
"460 596 OFFCURVE",
"460 480 CURVE SMOOTH",
"460 366 OFFCURVE",
"392 320 OFFCURVE",
"250 320 CURVE SMOOTH",
"132 320 LINE"
);
}
);
width = 542;
},
{
anchors = (
{
name = aboveUC;
position = "{321, 670}";
},
{
name = belowLC;
position = "{170, -20}";
}
);
layerId = "A57419AF-C607-4C6D-867D-F9F312359F5B";
name = Bold;
paths = (
{
closed = 1;
nodes = (
"244 0 LINE",
"244 206 LINE",
"314 206 LINE SMOOTH",
"450 206 OFFCURVE",
"574 275 OFFCURVE",
"574 434 CURVE SMOOTH",
"574 598 OFFCURVE",
"452 650 OFFCURVE",
"310 650 CURVE SMOOTH",
"72 650 LINE",
"72 0 LINE"
);
},
{
closed = 1;
nodes = (
"244 514 LINE",
"302 514 LINE SMOOTH",
"368 514 OFFCURVE",
"406 492 OFFCURVE",
"406 434 CURVE SMOOTH",
"406 376 OFFCURVE",
"374 342 OFFCURVE",
"306 342 CURVE SMOOTH",
"244 342 LINE"
);
}
);
width = 608;
}
);
leftKerningGroup = LAT_H_UC_RIGHT;
rightKerningGroup = LAT_P_UC_LEFT;
unicode = 0050;
},
{
glyphname = Q;
lastChange = "2015-11-05 20:56:23 +0000";
layers = (
{
anchors = (
{
name = aboveUC;
position = "{324, 680}";
}
);
layerId = "786F3AE7-681A-4E36-83D7-614DB6CCA2F0";
name = Regular;
paths = (
{
closed = 1;
nodes = (
"480 -12 OFFCURVE",
"592 124 OFFCURVE",
"592 332 CURVE SMOOTH",
"592 540 OFFCURVE",
"480 672 OFFCURVE",
"324 672 CURVE SMOOTH",
"168 672 OFFCURVE",
"56 540 OFFCURVE",
"56 332 CURVE SMOOTH",
"56 124 OFFCURVE",
"168 -12 OFFCURVE",
"324 -12 CURVE SMOOTH"
);
},
{
closed = 1;
nodes = (
"544 -152 OFFCURVE",
"574 -146 OFFCURVE",
"590 -142 CURVE",
"582 -112 LINE",
"566 -116 OFFCURVE",
"546 -120 OFFCURVE",
"516 -120 CURVE SMOOTH",
"426 -120 OFFCURVE",
"364 -76 OFFCURVE",
"336 0 CURVE",
"300 0 LINE",
"328 -86 OFFCURVE",
"402 -152 OFFCURVE",
"514 -152 CURVE SMOOTH"
);
},
{
closed = 1;
nodes = (
"184 16 OFFCURVE",
"90 142 OFFCURVE",
"90 332 CURVE SMOOTH",
"90 522 OFFCURVE",
"184 642 OFFCURVE",
"324 642 CURVE SMOOTH",
"464 642 OFFCURVE",
"558 522 OFFCURVE",
"558 332 CURVE SMOOTH",
"558 142 OFFCURVE",
"464 16 OFFCURVE",
"324 16 CURVE SMOOTH"
);
}
);
width = 648;
},
{
anchors = (
{
name = aboveUC;
position = "{346, 670}";
}
);
layerId = "A57419AF-C607-4C6D-867D-F9F312359F5B";
name = Bold;
paths = (
{
closed = 1;
nodes = (
"526 -12 OFFCURVE",
"648 114 OFFCURVE",
"648 328 CURVE SMOOTH",
"648 541 OFFCURVE",
"526 662 OFFCURVE",
"346 662 CURVE SMOOTH",
"166 662 OFFCURVE",
"44 542 OFFCURVE",
"44 328 CURVE SMOOTH",
"44 114 OFFCURVE",
"166 -12 OFFCURVE",
"346 -12 CURVE SMOOTH"
);
},
{
closed = 1;
nodes = (
"621 -188 OFFCURVE",
"664 -178 OFFCURVE",
"690 -164 CURVE",
"660 -40 LINE",
"640 -47 OFFCURVE",
"614 -52 OFFCURVE",
"586 -52 CURVE SMOOTH",
"530 -52 OFFCURVE",
"462 -34 OFFCURVE",
"438 24 CURVE",
"264 6 LINE",
"312 -106 OFFCURVE",
"416 -188 OFFCURVE",
"566 -188 CURVE SMOOTH"
);
},
{
closed = 1;
nodes = (
"268 128 OFFCURVE",
"220 200 OFFCURVE",
"220 328 CURVE SMOOTH",
"220 446 OFFCURVE",
"268 514 OFFCURVE",
"346 514 CURVE SMOOTH",
"424 514 OFFCURVE",
"472 446 OFFCURVE",
"472 328 CURVE SMOOTH",
"472 200 OFFCURVE",
"424 128 OFFCURVE",
"346 128 CURVE SMOOTH"
);
}
);
width = 692;
}
);
leftKerningGroup = LAT_O_UC_RIGHT;
rightKerningGroup = LAT_O_UC_LEFT;
unicode = 0051;
},
{
color = (204,204,153,1);
glyphname = R;
lastChange = "2015-11-05 20:56:23 +0000";
layers = (
{
anchors = (
{
name = aboveUC;
position = "{282, 680}";
},
{
name = baseLC;
position = "{267, 0}";
},
{
name = belowLC;
position = "{296, -20}";
}
);
layerId = "786F3AE7-681A-4E36-83D7-614DB6CCA2F0";
name = Regular;
paths = (
{
closed = 1;
nodes = (
"132 0 LINE",
"132 312 LINE",
"282 312 LINE SMOOTH",
"412 312 OFFCURVE",
"494 374 OFFCURVE",
"494 490 CURVE SMOOTH",
"494 612 OFFCURVE",
"412 660 OFFCURVE",
"282 660 CURVE SMOOTH",
"100 660 LINE",
"100 0 LINE"
);
},
{
closed = 1;
nodes = (
"504 0 LINE",
"310 324 LINE",
"274 322 LINE",
"466 0 LINE"
);
},
{
closed = 1;
nodes = (
"132 632 LINE",
"270 632 LINE SMOOTH",
"392 632 OFFCURVE",
"460 594 OFFCURVE",
"460 490 CURVE SMOOTH",
"460 388 OFFCURVE",
"392 340 OFFCURVE",
"270 340 CURVE SMOOTH",
"132 340 LINE"
);
}
);
width = 534;
},
{
anchors = (
{
name = aboveUC;
position = "{316, 670}";
},
{
name = baseLC;
position = "{160, 0}";
},
{
name = belowLC;
position = "{334, -20}";
}
);
layerId = "A57419AF-C607-4C6D-867D-F9F312359F5B";
name = Bold;
paths = (
{
closed = 1;
nodes = (
"244 0 LINE",
"244 218 LINE",
"318 218 LINE SMOOTH",
"458 218 OFFCURVE",
"578 283 OFFCURVE",
"578 440 CURVE SMOOTH",
"578 602 OFFCURVE",
"458 650 OFFCURVE",
"318 650 CURVE SMOOTH",
"72 650 LINE",
"72 0 LINE"
);
},
{
closed = 1;
nodes = (
"614 0 LINE",
"403 377 LINE",
"287 263 LINE",
"422 0 LINE"
);
},
{
closed = 1;
nodes = (
"244 514 LINE",
"306 514 LINE SMOOTH",
"374 514 OFFCURVE",
"410 496 OFFCURVE",
"410 440 CURVE SMOOTH",
"410 384 OFFCURVE",
"374 354 OFFCURVE",
"306 354 CURVE SMOOTH",
"244 354 LINE"
);
}
);
width = 630;
}
);
leftKerningGroup = LAT_H_UC_RIGHT;
rightKerningGroup = LAT_R_UC_LEFT;
unicode = 0052;
userData = {
com.typemytype.robofont.mark = (
0.8,
0.8,
0.6,
1
);
};
},
{
glyphname = S;
lastChange = "2015-11-05 20:56:23 +0000";
layers = (
{
anchors = (
{
name = aboveUC;
position = "{268, 680}";
},
{
name = baseLC;
position = "{268, 0}";
},
{
name = belowLC;
position = "{268, -20}";
}
);
layerId = "786F3AE7-681A-4E36-83D7-614DB6CCA2F0";
name = Regular;
paths = (
{
closed = 1;
nodes = (
"392 -12 OFFCURVE",
"474 62 OFFCURVE",
"474 162 CURVE SMOOTH",
"474 264 OFFCURVE",
"407 303 OFFCURVE",
"334 336 CURVE SMOOTH",
"232 382 LINE SMOOTH",
"185 403 OFFCURVE",
"116 434 OFFCURVE",
"116 516 CURVE SMOOTH",
"116 592 OFFCURVE",
"178 642 OFFCURVE",
"270 642 CURVE SMOOTH",
"338 642 OFFCURVE",
"392 614 OFFCURVE",
"430 572 CURVE",
"450 594 LINE",
"412 635 OFFCURVE",
"350 672 OFFCURVE",
"270 672 CURVE SMOOTH",
"164 672 OFFCURVE",
"84 608 OFFCURVE",
"84 514 CURVE SMOOTH",
"84 416 OFFCURVE",
"162 377 OFFCURVE",
"218 352 CURVE SMOOTH",
"320 306 LINE SMOOTH",
"386 276 OFFCURVE",
"442 248 OFFCURVE",
"442 160 CURVE SMOOTH",
"442 76 OFFCURVE",
"374 18 OFFCURVE",
"268 18 CURVE SMOOTH",
"188 18 OFFCURVE",
"118 54 OFFCURVE",
"70 110 CURVE",
"48 88 LINE",
"98 30 OFFCURVE",
"170 -12 OFFCURVE",
"268 -12 CURVE SMOOTH"
);
}
);
width = 516;
},
{
anchors = (
{
name = aboveUC;
position = "{296, 670}";
},
{
name = baseLC;
position = "{282, 0}";
},
{
name = belowLC;
position = "{282, -20}";
}
);
layerId = "A57419AF-C607-4C6D-867D-F9F312359F5B";
name = Bold;
paths = (
{
closed = 1;
nodes = (
"440 -12 OFFCURVE",
"532 86 OFFCURVE",
"532 196 CURVE SMOOTH",
"532 286 OFFCURVE",
"486 342 OFFCURVE",
"405 374 CURVE SMOOTH",
"326 405 LINE SMOOTH",
"267 428 OFFCURVE",
"230 439 OFFCURVE",
"230 470 CURVE SMOOTH",
"230 499 OFFCURVE",
"256 514 OFFCURVE",
"298 514 CURVE SMOOTH",
"346 514 OFFCURVE",
"384 498 OFFCURVE",
"428 467 CURVE",
"514 575 LINE",
"454 634 OFFCURVE",
"372 662 OFFCURVE",
"298 662 CURVE SMOOTH",
"156 662 OFFCURVE",
"56 571 OFFCURVE",
"56 460 CURVE SMOOTH",
"56 366 OFFCURVE",
"117 307 OFFCURVE",
"187 279 CURVE SMOOTH",
"268 245 LINE SMOOTH",
"323 223 OFFCURVE",
"356 213 OFFCURVE",
"356 182 CURVE SMOOTH",
"356 153 OFFCURVE",
"334 136 OFFCURVE",
"282 136 CURVE SMOOTH",
"234 136 OFFCURVE",
"176 162 OFFCURVE",
"130 199 CURVE",
"32 81 LINE",
"102 18 OFFCURVE",
"196 -12 OFFCURVE",
"278 -12 CURVE SMOOTH"
);
}
);
width = 564;
}
);
leftKerningGroup = LAT_S_UC_RIGHT;
rightKerningGroup = LAT_S_UC_LEFT;
unicode = 0053;
},
{
glyphname = T;
lastChange = "2015-11-05 20:56:23 +0000";
layers = (
{
anchors = (
{
name = aboveUC;
position = "{258, 680}";
},
{
name = baseLC;
position = "{260, 0}";
},
{
name = belowLC;
position = "{260, -20}";
}
);
layerId = "786F3AE7-681A-4E36-83D7-614DB6CCA2F0";
name = Regular;
paths = (
{
closed = 1;
nodes = (
"276 0 LINE",
"276 632 LINE",
"490 632 LINE",
"490 660 LINE",
"30 660 LINE",
"30 632 LINE",
"244 632 LINE",
"244 0 LINE"
);
}
);
width = 520;
},
{
anchors = (
{
name = aboveUC;
position = "{282, 670}";
},
{
name = baseLC;
position = "{282, 0}";
},
{
name = belowLC;
position = "{282, -20}";
}
);
layerId = "A57419AF-C607-4C6D-867D-F9F312359F5B";
name = Bold;
paths = (
{
closed = 1;
nodes = (
"368 0 LINE",
"368 506 LINE",
"540 506 LINE",
"540 650 LINE",
"24 650 LINE",
"24 506 LINE",
"196 506 LINE",
"196 0 LINE"
);
}
);
width = 564;
}
);
leftKerningGroup = LAT_T_UC_RIGHT;
rightKerningGroup = LAT_T_UC_LEFT;
unicode = 0054;
},
{
color = (204,204,153,1);
glyphname = U;
lastChange = "2015-11-05 20:56:23 +0000";
layers = (
{
anchors = (
{
name = aboveUC;
position = "{314, 680}";
},
{
name = baseLC;
position = "{315, 0}";
},
{
name = belowLC;
position = "{314, -20}";
},
{
name = hornLC;
position = "{510, 670}";
},
{
name = ogonekUC;
position = "{314, 0}";
}
);
layerId = "786F3AE7-681A-4E36-83D7-614DB6CCA2F0";
name = Regular;
paths = (
{
closed = 1;
nodes = (
"420 -12 OFFCURVE",
"532 42 OFFCURVE",
"532 246 CURVE SMOOTH",
"532 660 LINE",
"502 660 LINE",
"502 254 LINE SMOOTH",
"502 72 OFFCURVE",
"412 18 OFFCURVE",
"314 18 CURVE SMOOTH",
"218 18 OFFCURVE",
"130 72 OFFCURVE",
"130 254 CURVE SMOOTH",
"130 660 LINE",
"98 660 LINE",
"98 246 LINE SMOOTH",
"98 42 OFFCURVE",
"208 -12 OFFCURVE",
"314 -12 CURVE SMOOTH"
);
}
);
width = 630;
},
{
anchors = (
{
name = aboveUC;
position = "{336, 670}";
},
{
name = baseLC;
position = "{336, 0}";
},
{
name = belowLC;
position = "{336, -20}";
},
{
name = hornLC;
position = "{552, 660}";
},
{
name = ogonekUC;
position = "{336, 0}";
}
);
layerId = "A57419AF-C607-4C6D-867D-F9F312359F5B";
name = Bold;
paths = (
{
closed = 1;
nodes = (
"520 -12 OFFCURVE",
"604 92 OFFCURVE",
"604 314 CURVE SMOOTH",
"604 650 LINE",
"438 650 LINE",
"438 294 LINE SMOOTH",
"438 178 OFFCURVE",
"406 136 OFFCURVE",
"338 136 CURVE SMOOTH",
"270 136 OFFCURVE",
"240 178 OFFCURVE",
"240 294 CURVE SMOOTH",
"240 650 LINE",
"68 650 LINE",
"68 314 LINE SMOOTH",
"68 92 OFFCURVE",
"156 -12 OFFCURVE",
"338 -12 CURVE SMOOTH"
);
}
);
width = 672;
}
);
leftKerningGroup = LAT_U_UC_RIGHT;
rightKerningGroup = LAT_U_UC_LEFT;
unicode = 0055;
userData = {
com.typemytype.robofont.mark = (
0.8,
0.8,
0.6,
1
);
};
},
{
glyphname = V;
lastChange = "2015-11-05 20:56:23 +0000";
layers = (
{
anchors = (
{
name = aboveUC;
position = "{240, 680}";
},
{
name = belowLC;
position = "{244, -20}";
}
);
layerId = "786F3AE7-681A-4E36-83D7-614DB6CCA2F0";
name = Regular;
paths = (
{
closed = 1;
nodes = (
"258 0 LINE",
"476 660 LINE",
"444 660 LINE",
"316 264 LINE SMOOTH",
"290 182 OFFCURVE",
"272 122 OFFCURVE",
"244 41 CURVE",
"240 41 LINE",
"212 122 OFFCURVE",
"194 182 OFFCURVE",
"168 264 CURVE SMOOTH",
"40 660 LINE",
"6 660 LINE",
"226 0 LINE"
);
}
);
width = 482;
},
{
anchors = (
{
name = aboveUC;
position = "{286, 670}";
},
{
name = belowLC;
position = "{282, -20}";
}
);
layerId = "A57419AF-C607-4C6D-867D-F9F312359F5B";
name = Bold;
paths = (
{
closed = 1;
nodes = (
"390 0 LINE",
"582 650 LINE",
"406 650 LINE",
"340 366 LINE SMOOTH",
"323 297 OFFCURVE",
"310 230 OFFCURVE",
"292 160 CURVE",
"288 160 LINE",
"270 230 OFFCURVE",
"258 297 OFFCURVE",
"240 366 CURVE SMOOTH",
"172 650 LINE",
"-10 650 LINE",
"182 0 LINE"
);
}
);
width = 572;
}
);
leftKerningGroup = LAT_V_UC_RIGHT;
rightKerningGroup = LAT_V_UC_LEFT;
unicode = 0056;
},
{
glyphname = W;
lastChange = "2015-11-05 20:56:23 +0000";
layers = (
{
anchors = (
{
name = aboveUC;
position = "{382, 680}";
},
{
name = belowLC;
position = "{386, -20}";
}
);
layerId = "786F3AE7-681A-4E36-83D7-614DB6CCA2F0";
name = Regular;
paths = (
{
closed = 1;
nodes = (
"216 0 LINE",
"342 474 LINE",
"354 526 OFFCURVE",
"368 570 OFFCURVE",
"380 622 CURVE",
"384 622 LINE",
"396 570 OFFCURVE",
"408 526 OFFCURVE",
"420 474 CURVE",
"548 0 LINE",
"580 0 LINE",
"732 660 LINE",
"700 660 LINE",
"612 260 LINE",
"596 188 OFFCURVE",
"582 116 OFFCURVE",
"566 44 CURVE",
"562 44 LINE",
"544 116 OFFCURVE",
"526 188 OFFCURVE",
"508 260 CURVE",
"400 660 LINE",
"364 660 LINE",
"256 260 LINE",
"238 188 OFFCURVE",
"220 116 OFFCURVE",
"204 44 CURVE",
"200 44 LINE",
"184 116 OFFCURVE",
"168 188 OFFCURVE",
"152 260 CURVE",
"64 660 LINE",
"30 660 LINE",
"184 0 LINE"
);
}
);
width = 764;
},
{
anchors = (
{
name = aboveUC;
position = "{412, 670}";
},
{
name = belowLC;
position = "{414, -20}";
}
);
layerId = "A57419AF-C607-4C6D-867D-F9F312359F5B";
name = Bold;
paths = (
{
closed = 1;
nodes = (
"338 0 LINE",
"386 258 LINE",
"396 308 OFFCURVE",
"403 362 OFFCURVE",
"410 410 CURVE",
"414 410 LINE",
"420 362 OFFCURVE",
"428 308 OFFCURVE",
"438 258 CURVE",
"488 0 LINE",
"706 0 LINE",
"814 650 LINE",
"650 650 LINE",
"614 366 LINE",
"607 300 OFFCURVE",
"599 231 OFFCURVE",
"592 162 CURVE",
"588 162 LINE",
"576 231 OFFCURVE",
"564 301 OFFCURVE",
"552 366 CURVE",
"490 650 LINE",
"346 650 LINE",
"284 366 LINE",
"272 299 OFFCURVE",
"260 230 OFFCURVE",
"248 162 CURVE",
"244 162 LINE",
"237 230 OFFCURVE",
"229 298 OFFCURVE",
"222 366 CURVE",
"186 650 LINE",
"10 650 LINE",
"124 0 LINE"
);
}
);
width = 824;
}
);
leftKerningGroup = LAT_W_UC_RIGHT;
rightKerningGroup = LAT_W_UC_LEFT;
unicode = 0057;
},
{
color = (204,204,153,1);
glyphname = X;
lastChange = "2015-11-05 20:56:23 +0000";
layers = (
{
anchors = (
{
name = aboveUC;
position = "{236, 680}";
},
{
name = baseLC;
position = "{235, 0}";
},
{
name = belowLC;
position = "{234, -20}";
}
);
layerId = "786F3AE7-681A-4E36-83D7-614DB6CCA2F0";
name = Regular;
paths = (
{
closed = 1;
nodes = (
"50 0 LINE",
"172 212 LINE SMOOTH",
"190 244 OFFCURVE",
"208 276 OFFCURVE",
"230 316 CURVE",
"234 316 LINE",
"258 276 OFFCURVE",
"278 244 OFFCURVE",
"296 212 CURVE SMOOTH",
"418 0 LINE",
"452 0 LINE",
"252 340 LINE",
"438 660 LINE",
"406 660 LINE",
"290 456 LINE SMOOTH",
"272 426 OFFCURVE",
"260 404 OFFCURVE",
"240 368 CURVE",
"236 368 LINE",
"214 404 OFFCURVE",
"200 426 OFFCURVE",
"182 456 CURVE SMOOTH",
"66 660 LINE",
"32 660 LINE",
"218 342 LINE",
"18 0 LINE"
);
}
);
width = 470;
},
{
anchors = (
{
name = aboveUC;
position = "{294, 670}";
},
{
name = baseLC;
position = "{480, 0}";
},
{
name = belowLC;
position = "{282, -20}";
}
);
layerId = "A57419AF-C607-4C6D-867D-F9F312359F5B";
name = Bold;
paths = (
{
closed = 1;
nodes = (
"194 0 LINE",
"242 116 LINE SMOOTH",
"256 150 OFFCURVE",
"270 184 OFFCURVE",
"284 224 CURVE",
"288 224 LINE",
"304 184 OFFCURVE",
"318 150 OFFCURVE",
"334 116 CURVE SMOOTH",
"386 0 LINE",
"578 0 LINE",
"402 326 LINE",
"568 650 LINE",
"384 650 LINE",
"346 544 LINE SMOOTH",
"334 514 OFFCURVE",
"320 478 OFFCURVE",
"306 436 CURVE",
"302 436 LINE",
"284 478 OFFCURVE",
"270 514 OFFCURVE",
"256 544 CURVE SMOOTH",
"212 650 LINE",
"20 650 LINE",
"186 334 LINE",
"10 0 LINE"
);
}
);
width = 588;
}
);
leftKerningGroup = LAT_X_UC_RIGHT;
rightKerningGroup = LAT_X_UC_LEFT;
unicode = 0058;
userData = {
com.typemytype.robofont.mark = (
0.8,
0.8,
0.6,
1
);
};
},
{
color = (204,204,153,1);
glyphname = Y;
lastChange = "2015-11-05 20:56:23 +0000";
layers = (
{
anchors = (
{
name = aboveUC;
position = "{218, 680}";
},
{
name = belowLC;
position = "{220, -20}";
},
{
name = ogonekUC;
position = "{218, 0}";
}
);
layerId = "786F3AE7-681A-4E36-83D7-614DB6CCA2F0";
name = Regular;
paths = (
{
closed = 1;
nodes = (
"234 0 LINE",
"234 272 LINE",
"432 660 LINE",
"400 660 LINE",
"294 446 LINE",
"272 398 OFFCURVE",
"246 352 OFFCURVE",
"220 304 CURVE",
"216 304 LINE",
"190 352 OFFCURVE",
"168 398 OFFCURVE",
"144 446 CURVE",
"38 660 LINE",
"4 660 LINE",
"202 272 LINE",
"202 0 LINE"
);
}
);
width = 436;
},
{
anchors = (
{
name = aboveUC;
position = "{272, 670}";
},
{
name = belowLC;
position = "{274, -20}";
},
{
name = ogonekUC;
position = "{272, 0}";
}
);
layerId = "A57419AF-C607-4C6D-867D-F9F312359F5B";
name = Bold;
paths = (
{
closed = 1;
nodes = (
"358 0 LINE",
"358 224 LINE",
"554 650 LINE",
"374 650 LINE",
"326 514 LINE",
"309 465 OFFCURVE",
"292 420 OFFCURVE",
"275 369 CURVE",
"271 369 LINE",
"254 420 OFFCURVE",
"238 465 OFFCURVE",
"222 514 CURVE",
"174 650 LINE",
"-10 650 LINE",
"186 224 LINE",
"186 0 LINE"
);
}
);
width = 544;
}
);
leftKerningGroup = LAT_Y_UC_RIGHT;
rightKerningGroup = LAT_Y_UC_LEFT;
unicode = 0059;
userData = {
com.typemytype.robofont.mark = (
0.8,
0.8,
0.6,
1
);
};
},
{
color = (204,204,153,1);
glyphname = Z;
lastChange = "2015-11-05 20:56:23 +0000";
layers = (
{
anchors = (
{
name = aboveUC;
position = "{278, 680}";
},
{
name = baseLC;
position = "{269, 0}";
},
{
name = belowLC;
position = "{282, -20}";
}
);
layerId = "786F3AE7-681A-4E36-83D7-614DB6CCA2F0";
name = Regular;
paths = (
{
closed = 1;
nodes = (
"488 0 LINE",
"488 28 LINE",
"92 28 LINE",
"484 642 LINE",
"484 660 LINE",
"86 660 LINE",
"86 632 LINE",
"444 632 LINE",
"52 18 LINE",
"52 0 LINE"
);
}
);
width = 538;
},
{
anchors = (
{
name = aboveUC;
position = "{284, 670}";
},
{
name = baseLC;
position = "{300, 0}";
},
{
name = belowLC;
position = "{282, -20}";
}
);
layerId = "A57419AF-C607-4C6D-867D-F9F312359F5B";
name = Bold;
paths = (
{
closed = 1;
nodes = (
"512 0 LINE",
"512 144 LINE",
"244 144 LINE",
"510 546 LINE",
"510 650 LINE",
"58 650 LINE",
"58 506 LINE",
"298 506 LINE",
"32 104 LINE",
"32 0 LINE"
);
}
);
width = 542;
}
);
leftKerningGroup = LAT_Z_UC_RIGHT;
rightKerningGroup = LAT_Z_UC_LEFT;
unicode = 005A;
userData = {
com.typemytype.robofont.mark = (
0.8,
0.8,
0.6,
1
);
};
},
{
color = (204,204,153,1);
glyphname = AE;
lastChange = "2015-11-05 20:56:23 +0000";
layers = (
{
anchors = (
{
name = aboveUC;
position = "{586, 694}";
},
{
name = baseLC;
position = "{402, 0}";
},
{
name = belowLC;
position = "{402, -20}";
}
);
layerId = "786F3AE7-681A-4E36-83D7-614DB6CCA2F0";
name = Regular;
paths = (
{
closed = 1;
nodes = (
"60 0 LINE",
"280 392 LINE",
"324 474 OFFCURVE",
"368 554 OFFCURVE",
"410 630 CURVE",
"414 630 LINE",
"414 0 LINE",
"758 0 LINE",
"758 28 LINE",
"446 28 LINE",
"446 338 LINE",
"696 338 LINE",
"696 366 LINE",
"446 366 LINE",
"446 632 LINE",
"748 632 LINE",
"748 660 LINE",
"398 660 LINE",
"26 0 LINE"
);
},
{
closed = 1;
nodes = (
"442 226 LINE",
"442 254 LINE",
"174 254 LINE",
"174 226 LINE"
);
}
);
width = 804;
},
{
anchors = (
{
name = aboveUC;
position = "{540, 694}";
},
{
name = baseLC;
position = "{630, 0}";
},
{
name = belowLC;
position = "{460, -20}";
}
);
layerId = "A57419AF-C607-4C6D-867D-F9F312359F5B";
name = Bold;
paths = (
{
closed = 1;
nodes = (
"158 0 LINE",
"308 348 LINE",
"330 400 OFFCURVE",
"352 460 OFFCURVE",
"376 522 CURVE",
"380 522 LINE",
"380 0 LINE",
"800 0 LINE",
"800 144 LINE",
"552 144 LINE",
"552 260 LINE",
"754 260 LINE",
"754 404 LINE",
"552 404 LINE",
"552 506 LINE",
"790 506 LINE",
"790 650 LINE",
"274 650 LINE",
"-22 0 LINE"
);
},
{
closed = 1;
nodes = (
"468 132 LINE",
"468 265 LINE",
"130 265 LINE",
"130 132 LINE"
);
}
);
width = 854;
}
);
leftKerningGroup = LAT_AE_UC_RIGHT;
rightKerningGroup = LAT_E_UC_LEFT;
unicode = 00C6;
userData = {
com.typemytype.robofont.mark = (
0.8,
0.8,
0.6,
1
);
};
},
{
color = (204,204,153,1);
glyphname = Lslash;
lastChange = "2015-11-05 20:56:23 +0000";
layers = (
{
anchors = (
{
name = aboveUC;
position = "{230, 680}";
},
{
name = belowLC;
position = "{230, -20}";
}
);
components = (
{
name = L;
transform = "{1, 0, 0, 1, 4, 0}";
}
);
layerId = "786F3AE7-681A-4E36-83D7-614DB6CCA2F0";
name = Regular;
paths = (
{
closed = 1;
nodes = (
"110 267 LINE",
"122 271 LINE",
"340 384 LINE",
"326 408 LINE",
"122 301 LINE",
"110 297 LINE",
"8 244 LINE",
"22 220 LINE"
);
}
);
width = 460;
},
{
associatedMasterId = "786F3AE7-681A-4E36-83D7-614DB6CCA2F0";
layerId = "71D74B79-B367-4E14-8147-170177F679D0";
name = mask;
paths = (
{
closed = 1;
nodes = (
"14 216 LINE",
"110 267 LINE",
"122 271 LINE",
"332 380 LINE",
"332 410 LINE",
"122 301 LINE",
"110 297 LINE",
"14 246 LINE"
);
}
);
width = 460;
},
{
anchors = (
{
name = aboveUC;
position = "{269, 670}";
},
{
name = belowLC;
position = "{269, -20}";
}
);
components = (
{
name = L;
transform = "{1, 0, 0, 1, 8, 0}";
}
);
layerId = "A57419AF-C607-4C6D-867D-F9F312359F5B";
name = Bold;
paths = (
{
closed = 1;
nodes = (
"99 210 LINE",
"235 268 LINE",
"460 392 LINE",
"402 494 LINE",
"235 400 LINE",
"99 342 LINE",
"-30 268 LINE",
"28 166 LINE"
);
}
);
width = 538;
}
);
leftKerningGroup = LAT_LSLASH_UC_RIGHT;
rightKerningGroup = LAT_L_UC_LEFT;
unicode = 0141;
userData = {
com.typemytype.robofont.layerData = {
mask = {
anchors = (
);
components = (
);
contours = (
{
points = (
{
segmentType = line;
smooth = 0;
x = 14;
y = 216;
},
{
segmentType = line;
smooth = 0;
x = 110;
y = 267;
},
{
segmentType = line;
smooth = 0;
x = 122;
y = 271;
},
{
segmentType = line;
smooth = 0;
x = 332;
y = 380;
},
{
segmentType = line;
smooth = 0;
x = 332;
y = 410;
},
{
segmentType = line;
smooth = 0;
x = 122;
y = 301;
},
{
segmentType = line;
smooth = 0;
x = 110;
y = 297;
},
{
segmentType = line;
smooth = 0;
x = 14;
y = 246;
}
);
}
);
lib = {
};
name = Lslash;
unicodes = (
);
width = 460;
};
};
com.typemytype.robofont.mark = (
0.8,
0.8,
0.6,
1
);
};
},
{
color = (204,204,153,1);
glyphname = Oslash;
lastChange = "2015-11-05 20:56:23 +0000";
layers = (
{
anchors = (
{
name = aboveUC;
position = "{328, 680}";
},
{
name = baseLC;
position = "{324, 0}";
}
);
components = (
{
name = O;
transform = "{1, 0, 0, 1, 4, 0}";
}
);
layerId = "786F3AE7-681A-4E36-83D7-614DB6CCA2F0";
name = Regular;
paths = (
{
closed = 1;
nodes = (
"586 664 LINE",
"564 680 LINE",
"58 -4 LINE",
"80 -20 LINE"
);
}
);
width = 648;
},
{
anchors = (
{
name = aboveUC;
position = "{346, 670}";
},
{
name = baseLC;
position = "{346, 0}";
}
);
components = (
{
name = O;
}
);
layerId = "A57419AF-C607-4C6D-867D-F9F312359F5B";
name = Bold;
paths = (
{
closed = 1;
nodes = (
"676 628 LINE",
"588 696 LINE",
"36 22 LINE",
"124 -46 LINE"
);
}
);
width = 692;
}
);
leftKerningGroup = LAT_O_UC_RIGHT;
rightKerningGroup = LAT_O_UC_LEFT;
unicode = 00D8;
userData = {
com.typemytype.robofont.mark = (
0.8,
0.8,
0.6,
1
);
};
},
{
color = (204,204,153,1);
glyphname = OE;
lastChange = "2015-11-05 20:56:23 +0000";
layers = (
{
anchors = (
{
name = aboveUC;
position = "{534, 680}";
},
{
name = baseLC;
position = "{414, 0}";
}
);
layerId = "786F3AE7-681A-4E36-83D7-614DB6CCA2F0";
name = Regular;
paths = (
{
closed = 1;
nodes = (
"782 0 LINE",
"782 28 LINE",
"470 28 LINE",
"470 338 LINE",
"720 338 LINE",
"720 366 LINE",
"470 366 LINE",
"470 632 LINE",
"772 632 LINE",
"772 660 LINE",
"366 660 LINE SMOOTH",
"156 660 OFFCURVE",
"56 528 OFFCURVE",
"56 332 CURVE SMOOTH",
"56 136 OFFCURVE",
"156 0 OFFCURVE",
"366 0 CURVE SMOOTH"
);
},
{
closed = 1;
nodes = (
"176 28 OFFCURVE",
"90 158 OFFCURVE",
"90 332 CURVE SMOOTH",
"90 506 OFFCURVE",
"176 632 OFFCURVE",
"370 632 CURVE SMOOTH",
"438 632 LINE",
"438 28 LINE",
"370 28 LINE SMOOTH"
);
}
);
width = 828;
},
{
anchors = (
{
name = aboveUC;
position = "{528, 670}";
},
{
name = baseLC;
position = "{650, 0}";
}
);
layerId = "A57419AF-C607-4C6D-867D-F9F312359F5B";
name = Bold;
paths = (
{
closed = 1;
nodes = (
"826 0 LINE",
"826 144 LINE",
"580 144 LINE",
"580 260 LINE",
"780 260 LINE",
"780 404 LINE",
"580 404 LINE",
"580 506 LINE",
"816 506 LINE",
"816 650 LINE",
"384 650 LINE SMOOTH",
"194 650 OFFCURVE",
"44 558 OFFCURVE",
"44 328 CURVE SMOOTH",
"44 98 OFFCURVE",
"194 0 OFFCURVE",
"374 0 CURVE SMOOTH"
);
},
{
closed = 1;
nodes = (
"297 138 OFFCURVE",
"220 174 OFFCURVE",
"220 328 CURVE SMOOTH",
"220 482 OFFCURVE",
"297 512 OFFCURVE",
"394 512 CURVE SMOOTH",
"408 512 LINE",
"408 138 LINE",
"394 138 LINE SMOOTH"
);
}
);
width = 880;
}
);
leftKerningGroup = LAT_O_UC_RIGHT;
rightKerningGroup = LAT_E_UC_LEFT;
unicode = 0152;
userData = {
com.typemytype.robofont.mark = (
0.8,
0.8,
0.6,
1
);
};
},
{
color = (204,204,153,1);
glyphname = Eth;
lastChange = "2015-11-05 20:56:23 +0000";
layers = (
{
anchors = (
{
name = aboveUC;
position = "{310, 680}";
},
{
name = belowLC;
position = "{310, -20}";
}
);
components = (
{
name = D;
transform = "{1, 0, 0, 1, 20, 0}";
}
);
layerId = "786F3AE7-681A-4E36-83D7-614DB6CCA2F0";
name = Regular;
paths = (
{
closed = 1;
nodes = (
"320 336 LINE",
"320 364 LINE",
"122 364 LINE",
"38 362 LINE",
"38 336 LINE"
);
}
);
width = 620;
},
{
anchors = (
{
name = aboveUC;
position = "{334, 670}";
},
{
name = belowLC;
position = "{334, -20}";
}
);
components = (
{
name = D;
transform = "{1, 0, 0, 1, 26, 0}";
}
);
layerId = "A57419AF-C607-4C6D-867D-F9F312359F5B";
name = Bold;
paths = (
{
closed = 1;
nodes = (
"386 294 LINE",
"386 374 LINE",
"100 374 LINE",
"24 368 LINE",
"24 294 LINE"
);
}
);
width = 668;
}
);
leftKerningGroup = LAT_DCROAT_UC_RIGHT;
rightKerningGroup = LAT_O_UC_LEFT;
unicode = 00D0;
userData = {
com.typemytype.robofont.mark = (
0.8,
0.8,
0.6,
1
);
};
},
{
glyphname = Thorn;
lastChange = "2015-11-05 20:56:23 +0000";
layers = (
{
layerId = "786F3AE7-681A-4E36-83D7-614DB6CCA2F0";
name = Regular;
paths = (
{
closed = 1;
nodes = (
"132 0 LINE",
"132 172 LINE",
"272 172 LINE SMOOTH",
"420 172 OFFCURVE",
"504 234 OFFCURVE",
"504 360 CURVE SMOOTH",
"504 492 OFFCURVE",
"420 540 OFFCURVE",
"272 540 CURVE SMOOTH",
"132 540 LINE",
"132 660 LINE",
"100 660 LINE",
"100 0 LINE"
);
},
{
closed = 1;
nodes = (
"132 512 LINE",
"260 512 LINE SMOOTH",
"402 512 OFFCURVE",
"470 476 OFFCURVE",
"470 360 CURVE SMOOTH",
"470 246 OFFCURVE",
"402 200 OFFCURVE",
"260 200 CURVE SMOOTH",
"132 200 LINE"
);
}
);
width = 556;
},
{
layerId = "A57419AF-C607-4C6D-867D-F9F312359F5B";
name = Bold;
paths = (
{
closed = 1;
nodes = (
"244 0 LINE",
"244 112 LINE",
"324 112 LINE SMOOTH",
"460 112 OFFCURVE",
"584 181 OFFCURVE",
"584 340 CURVE SMOOTH",
"584 504 OFFCURVE",
"464 556 OFFCURVE",
"324 556 CURVE SMOOTH",
"244 556 LINE",
"244 650 LINE",
"72 650 LINE",
"72 0 LINE"
);
},
{
closed = 1;
nodes = (
"244 420 LINE",
"316 420 LINE SMOOTH",
"380 420 OFFCURVE",
"416 398 OFFCURVE",
"416 340 CURVE SMOOTH",
"416 282 OFFCURVE",
"384 248 OFFCURVE",
"316 248 CURVE SMOOTH",
"244 248 LINE"
);
}
);
width = 630;
}
);
leftKerningGroup = LAT_H_UC_RIGHT;
rightKerningGroup = LAT_THORN_UC_LEFT;
unicode = 00DE;
},
{
glyphname = Eogonek;
lastChange = "2015-11-05 20:56:23 +0000";
layers = (
{
anchors = (
{
name = aboveUC;
position = "{282, 680}";
}
);
layerId = "786F3AE7-681A-4E36-83D7-614DB6CCA2F0";
name = Regular;
paths = (
{
closed = 1;
nodes = (
"436 -202 OFFCURVE",
"462 -192 OFFCURVE",
"476 -180 CURVE",
"462 -160 LINE",
"448 -170 OFFCURVE",
"436 -174 OFFCURVE",
"418 -174 CURVE SMOOTH",
"392 -174 OFFCURVE",
"366 -156 OFFCURVE",
"366 -120 CURVE SMOOTH",
"366 -60 OFFCURVE",
"417 -10 OFFCURVE",
"462 0 CURVE SMOOTH",
"464 0 LINE",
"464 28 LINE",
"132 28 LINE",
"132 338 LINE",
"402 338 LINE",
"402 366 LINE",
"132 366 LINE",
"132 632 LINE",
"454 632 LINE",
"454 660 LINE",
"100 660 LINE",
"100 0 LINE",
"408 0 LINE",
"368 -26 OFFCURVE",
"336 -72 OFFCURVE",
"336 -122 CURVE SMOOTH",
"336 -176 OFFCURVE",
"372 -202 OFFCURVE",
"416 -202 CURVE SMOOTH"
);
}
);
width = 510;
},
{
anchors = (
{
name = aboveUC;
position = "{290, 670}";
}
);
layerId = "A57419AF-C607-4C6D-867D-F9F312359F5B";
name = Bold;
paths = (
{
closed = 1;
nodes = (
"448 -228 OFFCURVE",
"496 -212 OFFCURVE",
"524 -190 CURVE",
"486 -104 LINE",
"477 -110 OFFCURVE",
"464 -118 OFFCURVE",
"452 -118 CURVE SMOOTH",
"432 -118 OFFCURVE",
"412 -108 OFFCURVE",
"412 -84 CURVE SMOOTH",
"412 -43 OFFCURVE",
"450 0 OFFCURVE",
"496 0 CURVE SMOOTH",
"502 0 LINE",
"502 144 LINE",
"244 144 LINE",
"244 260 LINE",
"456 260 LINE",
"456 404 LINE",
"244 404 LINE",
"244 506 LINE",
"492 506 LINE",
"492 650 LINE",
"72 650 LINE",
"72 0 LINE",
"368 0 LINE",
"335 -20 OFFCURVE",
"288 -67 OFFCURVE",
"288 -130 CURVE SMOOTH",
"288 -192 OFFCURVE",
"342 -228 OFFCURVE",
"410 -228 CURVE SMOOTH"
);
}
);
width = 556;
}
);
leftKerningGroup = LAT_H_UC_RIGHT;
rightKerningGroup = LAT_E_UC_LEFT;
unicode = 0118;
},
{
glyphname = Hbar;
lastChange = "2015-11-05 20:56:23 +0000";
layers = (
{
components = (
{
name = H;
transform = "{1, 0, 0, 1, 20, 0}";
}
);
layerId = "786F3AE7-681A-4E36-83D7-614DB6CCA2F0";
name = Regular;
paths = (
{
closed = 1;
nodes = (
"628 496 LINE",
"628 524 LINE",
"121 524 LINE",
"38 520 LINE",
"38 496 LINE"
);
}
);
width = 666;
},
{
components = (
{
name = H;
transform = "{1, 0, 0, 1, 20, 0}";
}
);
layerId = "A57419AF-C607-4C6D-867D-F9F312359F5B";
name = Bold;
paths = (
{
closed = 1;
nodes = (
"700 484 LINE",
"700 564 LINE",
"98 564 LINE",
"22 558 LINE",
"22 484 LINE"
);
}
);
width = 722;
}
);
leftKerningGroup = LAT_HBAR_UC_RIGHT;
rightKerningGroup = LAT_HBAR_UC_LEFT;
unicode = 0126;
},
{
color = (204,204,153,1);
glyphname = Schwa;
lastChange = "2015-11-05 20:56:23 +0000";
layers = (
{
anchors = (
{
name = aboveUC;
position = "{338, 680}";
},
{
name = baseLC;
position = "{322, 0}";
},
{
name = belowLC;
position = "{336, -20}";
},
{
name = ogonekUC;
position = "{322, 0}";
}
);
layerId = "786F3AE7-681A-4E36-83D7-614DB6CCA2F0";
name = Regular;
paths = (
{
closed = 1;
nodes = (
"484 -12 OFFCURVE",
"588 116 OFFCURVE",
"588 332 CURVE SMOOTH",
"588 548 OFFCURVE",
"494 672 OFFCURVE",
"324 672 CURVE SMOOTH",
"244 672 OFFCURVE",
"176 640 OFFCURVE",
"134 598 CURVE",
"152 576 LINE",
"194 618 OFFCURVE",
"258 644 OFFCURVE",
"326 644 CURVE SMOOTH",
"476 644 OFFCURVE",
"556 528 OFFCURVE",
"556 332 CURVE SMOOTH",
"556 136 OFFCURVE",
"468 16 OFFCURVE",
"320 16 CURVE SMOOTH",
"190 16 OFFCURVE",
"100 130 OFFCURVE",
"96 304 CURVE",
"560 304 LINE",
"560 332 LINE",
"64 332 LINE",
"64 330 OFFCURVE",
"64 328 OFFCURVE",
"64 326 CURVE SMOOTH",
"64 130 OFFCURVE",
"156 -12 OFFCURVE",
"320 -12 CURVE SMOOTH"
);
}
);
width = 644;
},
{
anchors = (
{
name = aboveUC;
position = "{350, 670}";
},
{
name = baseLC;
position = "{341, 0}";
},
{
name = belowLC;
position = "{362, -20}";
},
{
name = ogonekUC;
position = "{341, 0}";
}
);
layerId = "A57419AF-C607-4C6D-867D-F9F312359F5B";
name = Bold;
paths = (
{
closed = 1;
nodes = (
"518 -12 OFFCURVE",
"638 104 OFFCURVE",
"638 326 CURVE SMOOTH",
"638 548 OFFCURVE",
"516 662 OFFCURVE",
"344 662 CURVE SMOOTH",
"238 662 OFFCURVE",
"162 628 OFFCURVE",
"108 580 CURVE",
"186 462 LINE",
"220 492 OFFCURVE",
"262 522 OFFCURVE",
"322 522 CURVE SMOOTH",
"420 522 OFFCURVE",
"468 464 OFFCURVE",
"468 326 CURVE SMOOTH",
"468 182 OFFCURVE",
"416 128 OFFCURVE",
"340 128 CURVE SMOOTH",
"274 128 OFFCURVE",
"232 160 OFFCURVE",
"224 256 CURVE",
"512 256 LINE",
"512 380 LINE",
"52 380 LINE",
"50 360 OFFCURVE",
"48 340 OFFCURVE",
"48 322 CURVE SMOOTH",
"48 100 OFFCURVE",
"162 -12 OFFCURVE",
"340 -12 CURVE SMOOTH"
);
}
);
width = 682;
}
);
leftKerningGroup = LAT_SCHWA_UC_RIGHT;
rightKerningGroup = LAT_O_UC_LEFT;
unicode = 018F;
userData = {
com.typemytype.robofont.mark = (
0.8,
0.8,
0.6,
1
);
};
},
{
color = (204,204,153,1);
glyphname = a;
lastChange = "2015-11-05 20:56:23 +0000";
layers = (
{
anchors = (
{
name = aboveLC;
position = "{260, 500}";
},
{
name = baseLC;
position = "{243, 0}";
},
{
name = belowLC;
position = "{242, -20}";
},
{
name = ogonekLC;
position = "{404, 0}";
}
);
layerId = "786F3AE7-681A-4E36-83D7-614DB6CCA2F0";
name = Regular;
paths = (
{
closed = 1;
nodes = (
"262 -12 OFFCURVE",
"322 24 OFFCURVE",
"372 64 CURVE",
"374 64 LINE",
"378 0 LINE",
"404 0 LINE",
"404 310 LINE SMOOTH",
"404 406 OFFCURVE",
"370 490 OFFCURVE",
"258 490 CURVE SMOOTH",
"180 490 OFFCURVE",
"114 450 OFFCURVE",
"84 428 CURVE",
"100 404 LINE",
"130 428 OFFCURVE",
"188 462 OFFCURVE",
"256 462 CURVE SMOOTH",
"356 462 OFFCURVE",
"376 376 OFFCURVE",
"374 298 CURVE",
"158 274 OFFCURVE",
"60 224 OFFCURVE",
"60 117 CURVE SMOOTH",
"60 26 OFFCURVE",
"124 -12 OFFCURVE",
"198 -12 CURVE SMOOTH"
);
},
{
closed = 1;
nodes = (
"142 16 OFFCURVE",
"92 44 OFFCURVE",
"92 118 CURVE SMOOTH",
"92 200 OFFCURVE",
"164 248 OFFCURVE",
"374 272 CURVE",
"374 98 LINE",
"310 44 OFFCURVE",
"258 16 OFFCURVE",
"200 16 CURVE SMOOTH"
);
}
);
width = 486;
},
{
anchors = (
{
name = aboveLC;
position = "{290, 520}";
},
{
name = baseLC;
position = "{410, 0}";
},
{
name = belowLC;
position = "{260, -20}";
},
{
name = ogonekLC;
position = "{370, 0}";
}
);
layerId = "A57419AF-C607-4C6D-867D-F9F312359F5B";
name = Bold;
paths = (
{
closed = 1;
nodes = (
"242 -12 OFFCURVE",
"286 12 OFFCURVE",
"326 48 CURVE",
"330 48 LINE",
"342 0 LINE",
"482 0 LINE",
"482 278 LINE SMOOTH",
"482 442 OFFCURVE",
"404 512 OFFCURVE",
"274 512 CURVE SMOOTH",
"196 512 OFFCURVE",
"124 488 OFFCURVE",
"54 446 CURVE",
"114 334 LINE",
"166 362 OFFCURVE",
"204 376 OFFCURVE",
"240 376 CURVE SMOOTH",
"284 376 OFFCURVE",
"306 360 OFFCURVE",
"310 324 CURVE",
"118 304 OFFCURVE",
"38 246 OFFCURVE",
"38 142 CURVE SMOOTH",
"38 60 OFFCURVE",
"94 -12 OFFCURVE",
"188 -12 CURVE SMOOTH"
);
},
{
closed = 1;
nodes = (
"218 120 OFFCURVE",
"202 133 OFFCURVE",
"202 156 CURVE SMOOTH",
"202 184 OFFCURVE",
"228 210 OFFCURVE",
"310 222 CURVE",
"310 154 LINE",
"292 134 OFFCURVE",
"276 120 OFFCURVE",
"248 120 CURVE SMOOTH"
);
}
);
width = 536;
}
);
leftKerningGroup = LAT_A_LC_RIGHT;
rightKerningGroup = LAT_A_LC_LEFT;
unicode = 0061;
userData = {
com.typemytype.robofont.mark = (
0.8,
0.8,
0.6,
1
);
};
},
{
glyphname = b;
lastChange = "2015-11-05 20:56:23 +0000";
layers = (
{
anchors = (
{
name = aboveUC;
position = "{114, 730}";
},
{
name = belowLC;
position = "{276, -20}";
}
);
layerId = "786F3AE7-681A-4E36-83D7-614DB6CCA2F0";
name = Regular;
paths = (
{
closed = 1;
nodes = (
"388 -12 OFFCURVE",
"486 84 OFFCURVE",
"486 246 CURVE SMOOTH",
"486 394 OFFCURVE",
"424 490 OFFCURVE",
"294 490 CURVE SMOOTH",
"234 490 OFFCURVE",
"174 454 OFFCURVE",
"124 412 CURVE",
"126 508 LINE",
"126 722 LINE",
"96 722 LINE",
"96 0 LINE",
"122 0 LINE",
"126 48 LINE",
"128 48 LINE",
"174 12 OFFCURVE",
"228 -12 OFFCURVE",
"274 -12 CURVE SMOOTH"
);
},
{
closed = 1;
nodes = (
"238 16 OFFCURVE",
"182 34 OFFCURVE",
"126 82 CURVE",
"126 378 LINE",
"186 432 OFFCURVE",
"242 462 OFFCURVE",
"292 462 CURVE SMOOTH",
"410 462 OFFCURVE",
"454 368 OFFCURVE",
"454 246 CURVE SMOOTH",
"454 112 OFFCURVE",
"380 16 OFFCURVE",
"276 16 CURVE SMOOTH"
);
}
);
width = 538;
},
{
anchors = (
{
name = aboveUC;
position = "{140, 730}";
},
{
name = belowLC;
position = "{290, -20}";
}
);
layerId = "A57419AF-C607-4C6D-867D-F9F312359F5B";
name = Bold;
paths = (
{
closed = 1;
nodes = (
"442 -12 OFFCURVE",
"544 86 OFFCURVE",
"544 259 CURVE SMOOTH",
"544 412 OFFCURVE",
"467 512 OFFCURVE",
"349 512 CURVE SMOOTH",
"305 512 OFFCURVE",
"261 494 OFFCURVE",
"226 462 CURVE",
"230 534 LINE",
"230 696 LINE",
"58 696 LINE",
"58 0 LINE",
"192 0 LINE",
"206 54 LINE",
"210 54 LINE",
"248 10 OFFCURVE",
"292 -12 OFFCURVE",
"336 -12 CURVE SMOOTH"
);
},
{
closed = 1;
nodes = (
"272 128 OFFCURVE",
"250 134 OFFCURVE",
"230 152 CURVE",
"230 336 LINE",
"252 362 OFFCURVE",
"272 372 OFFCURVE",
"298 372 CURVE SMOOTH",
"344 372 OFFCURVE",
"368 338 OFFCURVE",
"368 256 CURVE SMOOTH",
"368 160 OFFCURVE",
"334 128 OFFCURVE",
"294 128 CURVE SMOOTH"
);
}
);
width = 580;
}
);
leftKerningGroup = LAT_L_LC_RIGHT;
rightKerningGroup = LAT_O_LC_LEFT;
unicode = 0062;
},
{
glyphname = c;
lastChange = "2015-11-05 20:56:23 +0000";
layers = (
{
anchors = (
{
name = aboveLC;
position = "{268, 500}";
},
{
name = baseLC;
position = "{266, 0}";
},
{
name = belowLC;
position = "{266, -20}";
}
);
layerId = "786F3AE7-681A-4E36-83D7-614DB6CCA2F0";
name = Regular;
paths = (
{
closed = 1;
nodes = (
"330 -12 OFFCURVE",
"380 16 OFFCURVE",
"420 52 CURVE",
"402 74 LINE",
"368 42 OFFCURVE",
"322 16 OFFCURVE",
"268 16 CURVE SMOOTH",
"158 16 OFFCURVE",
"86 106 OFFCURVE",
"86 238 CURVE SMOOTH",
"86 370 OFFCURVE",
"166 462 OFFCURVE",
"268 462 CURVE SMOOTH",
"318 462 OFFCURVE",
"356 438 OFFCURVE",
"388 408 CURVE",
"408 430 LINE",
"376 460 OFFCURVE",
"334 490 OFFCURVE",
"268 490 CURVE SMOOTH",
"154 490 OFFCURVE",
"54 398 OFFCURVE",
"54 238 CURVE SMOOTH",
"54 80 OFFCURVE",
"146 -12 OFFCURVE",
"268 -12 CURVE SMOOTH"
);
}
);
width = 446;
},
{
anchors = (
{
name = aboveLC;
position = "{280, 520}";
},
{
name = baseLC;
position = "{280, 0}";
},
{
name = belowLC;
position = "{270, -20}";
}
);
layerId = "A57419AF-C607-4C6D-867D-F9F312359F5B";
name = Bold;
paths = (
{
closed = 1;
nodes = (
"336 -12 OFFCURVE",
"400 2 OFFCURVE",
"450 46 CURVE",
"384 158 LINE",
"360 140 OFFCURVE",
"332 126 OFFCURVE",
"304 126 CURVE SMOOTH",
"250 126 OFFCURVE",
"208 174 OFFCURVE",
"208 250 CURVE SMOOTH",
"208 326 OFFCURVE",
"246 374 OFFCURVE",
"310 374 CURVE SMOOTH",
"328 374 OFFCURVE",
"344 368 OFFCURVE",
"366 350 CURVE",
"446 460 LINE",
"408 492 OFFCURVE",
"360 512 OFFCURVE",
"300 512 CURVE SMOOTH",
"158 512 OFFCURVE",
"32 416 OFFCURVE",
"32 250 CURVE SMOOTH",
"32 84 OFFCURVE",
"142 -12 OFFCURVE",
"284 -12 CURVE SMOOTH"
);
}
);
width = 472;
}
);
leftKerningGroup = LAT_O_LC_RIGHT;
rightKerningGroup = LAT_C_LC_LEFT;
unicode = 0063;
},
{
color = (204,204,153,1);
glyphname = d;
lastChange = "2015-11-05 20:56:23 +0000";
layers = (
{
anchors = (
{
name = aboveUC;
position = "{420, 730}";
},
{
name = baseLC;
position = "{270, 0}";
},
{
name = belowLC;
position = "{292, -20}";
}
);
layerId = "786F3AE7-681A-4E36-83D7-614DB6CCA2F0";
name = Regular;
paths = (
{
closed = 1;
nodes = (
"318 -12 OFFCURVE",
"372 24 OFFCURVE",
"412 64 CURVE",
"414 64 LINE",
"418 0 LINE",
"444 0 LINE",
"444 722 LINE",
"414 722 LINE",
"414 520 LINE",
"416 430 LINE",
"366 468 OFFCURVE",
"326 490 OFFCURVE",
"268 490 CURVE SMOOTH",
"152 490 OFFCURVE",
"54 392 OFFCURVE",
"54 238 CURVE SMOOTH",
"54 76 OFFCURVE",
"132 -12 OFFCURVE",
"252 -12 CURVE SMOOTH"
);
},
{
closed = 1;
nodes = (
"146 16 OFFCURVE",
"86 106 OFFCURVE",
"86 238 CURVE SMOOTH",
"86 362 OFFCURVE",
"164 462 OFFCURVE",
"266 462 CURVE SMOOTH",
"316 462 OFFCURVE",
"360 444 OFFCURVE",
"414 396 CURVE",
"414 100 LINE",
"360 46 OFFCURVE",
"310 16 OFFCURVE",
"254 16 CURVE SMOOTH"
);
}
);
width = 540;
},
{
anchors = (
{
name = aboveUC;
position = "{430, 730}";
},
{
name = baseLC;
position = "{250, 0}";
},
{
name = belowLC;
position = "{300, -20}";
}
);
layerId = "A57419AF-C607-4C6D-867D-F9F312359F5B";
name = Bold;
paths = (
{
closed = 1;
nodes = (
"284 -12 OFFCURVE",
"332 12 OFFCURVE",
"366 46 CURVE",
"370 46 LINE",
"382 0 LINE",
"522 0 LINE",
"522 696 LINE",
"350 696 LINE",
"350 534 LINE",
"356 462 LINE",
"326 492 OFFCURVE",
"294 512 OFFCURVE",
"240 512 CURVE SMOOTH",
"138 512 OFFCURVE",
"36 414 OFFCURVE",
"36 250 CURVE SMOOTH",
"36 88 OFFCURVE",
"116 -12 OFFCURVE",
"240 -12 CURVE SMOOTH"
);
},
{
closed = 1;
nodes = (
"240 128 OFFCURVE",
"212 162 OFFCURVE",
"212 252 CURVE SMOOTH",
"212 340 OFFCURVE",
"246 372 OFFCURVE",
"282 372 CURVE SMOOTH",
"304 372 OFFCURVE",
"330 366 OFFCURVE",
"350 348 CURVE",
"350 164 LINE",
"332 136 OFFCURVE",
"312 128 OFFCURVE",
"286 128 CURVE SMOOTH"
);
}
);
width = 580;
}
);
leftKerningGroup = LAT_O_LC_RIGHT;
rightKerningGroup = LAT_D_LC_LEFT;
unicode = 0064;
userData = {
com.typemytype.robofont.mark = (
0.8,
0.8,
0.6,
1
);
};
},
{
glyphname = e;
lastChange = "2015-11-05 20:56:23 +0000";
layers = (
{
anchors = (
{
name = aboveLC;
position = "{260, 500}";
},
{
name = baseLC;
position = "{250, 0}";
},
{
name = belowLC;
position = "{250, -20}";
},
{
name = ogonekLC;
position = "{382, 0}";
}
);
layerId = "786F3AE7-681A-4E36-83D7-614DB6CCA2F0";
name = Regular;
paths = (
{
closed = 1;
nodes = (
"344 -12 OFFCURVE",
"384 12 OFFCURVE",
"420 34 CURVE",
"406 60 LINE",
"370 34 OFFCURVE",
"328 16 OFFCURVE",
"274 16 CURVE SMOOTH",
"168 16 OFFCURVE",
"86 100 OFFCURVE",
"86 238 CURVE SMOOTH",
"86 389 OFFCURVE",
"175 462 OFFCURVE",
"260 462 CURVE SMOOTH",
"350 462 OFFCURVE",
"410 398 OFFCURVE",
"410 266 CURVE",
"76 266 LINE",
"76 238 LINE",
"438 238 LINE",
"440 250 OFFCURVE",
"440 260 OFFCURVE",
"440 270 CURVE SMOOTH",
"440 412 OFFCURVE",
"370 490 OFFCURVE",
"260 490 CURVE SMOOTH",
"154 490 OFFCURVE",
"54 394 OFFCURVE",
"54 238 CURVE SMOOTH",
"54 82 OFFCURVE",
"152 -12 OFFCURVE",
"272 -12 CURVE SMOOTH"
);
}
);
width = 478;
},
{
associatedMasterId = "786F3AE7-681A-4E36-83D7-614DB6CCA2F0";
layerId = "32FE1A05-D95E-4EFF-9FC0-229ABF915657";
name = mask;
paths = (
{
closed = 1;
nodes = (
"272 -12 CURVE SMOOTH",
"344 -12 OFFCURVE",
"384 12 OFFCURVE",
"420 34 CURVE",
"406 60 LINE",
"370 34 OFFCURVE",
"328 16 OFFCURVE",
"274 16 CURVE SMOOTH",
"160 16 OFFCURVE",
"86 110 OFFCURVE",
"86 238 CURVE",
"438 238 LINE",
"440 250 OFFCURVE",
"440 260 OFFCURVE",
"440 270 CURVE SMOOTH",
"440 412 OFFCURVE",
"370 490 OFFCURVE",
"260 490 CURVE SMOOTH",
"154 490 OFFCURVE",
"54 394 OFFCURVE",
"54 238 CURVE SMOOTH",
"54 82 OFFCURVE",
"152 -12 OFFCURVE"
);
},
{
closed = 1;
nodes = (
"86 266 LINE",
"96 388 OFFCURVE",
"174 462 OFFCURVE",
"260 462 CURVE SMOOTH",
"350 462 OFFCURVE",
"410 398 OFFCURVE",
"410 266 CURVE"
);
}
);
width = 478;
},
{
anchors = (
{
name = aboveLC;
position = "{280, 520}";
},
{
name = baseLC;
position = "{270, 0}";
},
{
name = belowLC;
position = "{270, -20}";
},
{
name = ogonekLC;
position = "{350, 0}";
}
);
layerId = "A57419AF-C607-4C6D-867D-F9F312359F5B";
name = Bold;
paths = (
{
closed = 1;
nodes = (
"346 -12 OFFCURVE",
"418 8 OFFCURVE",
"472 46 CURVE",
"416 148 LINE",
"380 128 OFFCURVE",
"348 118 OFFCURVE",
"314 118 CURVE SMOOTH",
"254 118 OFFCURVE",
"188 144 OFFCURVE",
"188 250 CURVE SMOOTH",
"188 350 OFFCURVE",
"232 382 OFFCURVE",
"276 382 CURVE SMOOTH",
"328 382 OFFCURVE",
"344 348 OFFCURVE",
"344 310 CURVE",
"166 310 LINE",
"168 198 LINE",
"483 198 LINE",
"486 210 OFFCURVE",
"490 240 OFFCURVE",
"490 270 CURVE SMOOTH",
"490 404 OFFCURVE",
"420 512 OFFCURVE",
"272 512 CURVE SMOOTH",
"150 512 OFFCURVE",
"32 412 OFFCURVE",
"32 250 CURVE SMOOTH",
"32 84 OFFCURVE",
"144 -12 OFFCURVE",
"290 -12 CURVE SMOOTH"
);
}
);
width = 526;
}
);
leftKerningGroup = LAT_O_LC_RIGHT;
rightKerningGroup = LAT_E_LC_LEFT;
unicode = 0065;
userData = {
com.typemytype.robofont.layerData = {
mask = {
anchors = (
);
components = (
);
contours = (
{
points = (
{
segmentType = curve;
smooth = 1;
x = 272;
y = -12;
},
{
smooth = 0;
x = 344;
y = -12;
},
{
smooth = 0;
x = 384;
y = 12;
},
{
segmentType = curve;
smooth = 0;
x = 420;
y = 34;
},
{
segmentType = line;
smooth = 0;
x = 406;
y = 60;
},
{
smooth = 0;
x = 370;
y = 34;
},
{
smooth = 0;
x = 328;
y = 16;
},
{
segmentType = curve;
smooth = 1;
x = 274;
y = 16;
},
{
smooth = 0;
x = 160;
y = 16;
},
{
smooth = 0;
x = 86;
y = 110;
},
{
segmentType = curve;
smooth = 0;
x = 86;
y = 238;
},
{
segmentType = line;
smooth = 0;
x = 438;
y = 238;
},
{
smooth = 0;
x = 440;
y = 250;
},
{
smooth = 0;
x = 440;
y = 260;
},
{
segmentType = curve;
smooth = 1;
x = 440;
y = 270;
},
{
smooth = 0;
x = 440;
y = 412;
},
{
smooth = 0;
x = 370;
y = 490;
},
{
segmentType = curve;
smooth = 1;
x = 260;
y = 490;
},
{
smooth = 0;
x = 154;
y = 490;
},
{
smooth = 0;
x = 54;
y = 394;
},
{
segmentType = curve;
smooth = 1;
x = 54;
y = 238;
},
{
smooth = 0;
x = 54;
y = 82;
},
{
smooth = 0;
x = 152;
y = -12;
}
);
},
{
points = (
{
segmentType = line;
smooth = 0;
x = 86;
y = 266;
},
{
smooth = 0;
x = 96;
y = 388;
},
{
smooth = 0;
x = 174;
y = 462;
},
{
segmentType = curve;
smooth = 1;
x = 260;
y = 462;
},
{
smooth = 0;
x = 350;
y = 462;
},
{
smooth = 0;
x = 410;
y = 398;
},
{
segmentType = curve;
smooth = 0;
x = 410;
y = 266;
}
);
}
);
lib = {
};
name = e;
unicodes = (
);
width = 478;
};
};
};
},
{
color = (204,204,153,1);
glyphname = f;
lastChange = "2015-11-05 20:56:23 +0000";
layers = (
{
anchors = (
{
name = aboveUC;
position = "{192, 730}";
},
{
name = baseLC;
position = "{126, 0}";
},
{
name = belowLC;
position = "{116, -20}";
}
);
layerId = "786F3AE7-681A-4E36-83D7-614DB6CCA2F0";
name = Regular;
paths = (
{
closed = 1;
nodes = (
"130 0 LINE",
"130 592 LINE SMOOTH",
"130 664 OFFCURVE",
"154 706 OFFCURVE",
"208 706 CURVE SMOOTH",
"226 706 OFFCURVE",
"246 702 OFFCURVE",
"266 692 CURVE",
"276 718 LINE",
"254 728 OFFCURVE",
"230 734 OFFCURVE",
"210 734 CURVE SMOOTH",
"142 734 OFFCURVE",
"100 690 OFFCURVE",
"100 596 CURVE SMOOTH",
"100 0 LINE"
);
},
{
closed = 1;
nodes = (
"244 450 LINE",
"244 478 LINE",
"100 478 LINE",
"34 474 LINE",
"34 450 LINE"
);
}
);
width = 252;
},
{
anchors = (
{
name = aboveUC;
position = "{250, 730}";
},
{
name = baseLC;
position = "{180, 0}";
},
{
name = belowLC;
position = "{174, -20}";
}
);
layerId = "A57419AF-C607-4C6D-867D-F9F312359F5B";
name = Bold;
paths = (
{
closed = 1;
nodes = (
"260 0 LINE",
"260 512 LINE SMOOTH",
"260 559 OFFCURVE",
"280 574 OFFCURVE",
"312 574 CURVE SMOOTH",
"328 574 OFFCURVE",
"346 570 OFFCURVE",
"362 564 CURVE",
"392 690 LINE",
"370 698 OFFCURVE",
"332 708 OFFCURVE",
"286 708 CURVE SMOOTH",
"138 708 OFFCURVE",
"88 613 OFFCURVE",
"88 506 CURVE SMOOTH",
"88 0 LINE"
);
},
{
closed = 1;
nodes = (
"344 366 LINE",
"344 500 LINE",
"98 500 LINE",
"22 494 LINE",
"22 366 LINE"
);
}
);
width = 360;
}
);
leftKerningGroup = LAT_F_LC_RIGHT;
rightKerningGroup = LAT_F_LC_LEFT;
unicode = 0066;
userData = {
com.typemytype.robofont.mark = (
0.8,
0.8,
0.6,
1
);
};
},
{
glyphname = g;
lastChange = "2015-11-05 20:56:23 +0000";
layers = (
{
anchors = (
{
name = aboveLC;
position = "{248, 500}";
},
{
name = belowLC;
position = "{250, -230}";
}
);
layerId = "786F3AE7-681A-4E36-83D7-614DB6CCA2F0";
name = Regular;
paths = (
{
closed = 1;
nodes = (
"384 -234 OFFCURVE",
"470 -154 OFFCURVE",
"470 -74 CURVE SMOOTH",
"470 0 OFFCURVE",
"422 34 OFFCURVE",
"316 34 CURVE SMOOTH",
"210 34 LINE SMOOTH",
"136 34 OFFCURVE",
"116 64 OFFCURVE",
"116 100 CURVE SMOOTH",
"116 134 OFFCURVE",
"136 156 OFFCURVE",
"158 174 CURVE",
"180 160 OFFCURVE",
"212 152 OFFCURVE",
"240 152 CURVE SMOOTH",
"332 152 OFFCURVE",
"404 226 OFFCURVE",
"404 322 CURVE SMOOTH",
"404 376 OFFCURVE",
"380 422 OFFCURVE",
"346 450 CURVE",
"462 450 LINE",
"462 478 LINE",
"302 478 LINE",
"288 484 OFFCURVE",
"266 490 OFFCURVE",
"240 490 CURVE SMOOTH",
"148 490 OFFCURVE",
"76 418 OFFCURVE",
"76 322 CURVE SMOOTH",
"76 264 OFFCURVE",
"106 216 OFFCURVE",
"136 190 CURVE",
"136 186 LINE",
"116 172 OFFCURVE",
"84 142 OFFCURVE",
"84 98 CURVE SMOOTH",
"84 62 OFFCURVE",
"102 36 OFFCURVE",
"126 22 CURVE",
"126 18 LINE",
"82 -14 OFFCURVE",
"54 -58 OFFCURVE",
"54 -100 CURVE SMOOTH",
"54 -180 OFFCURVE",
"128 -234 OFFCURVE",
"250 -234 CURVE SMOOTH"
);
},
{
closed = 1;
nodes = (
"146 -206 OFFCURVE",
"86 -162 OFFCURVE",
"86 -98 CURVE SMOOTH",
"86 -62 OFFCURVE",
"106 -22 OFFCURVE",
"154 10 CURVE",
"180 4 OFFCURVE",
"206 2 OFFCURVE",
"212 2 CURVE SMOOTH",
"322 2 LINE SMOOTH",
"398 2 OFFCURVE",
"438 -20 OFFCURVE",
"438 -76 CURVE SMOOTH",
"438 -140 OFFCURVE",
"366 -206 OFFCURVE",
"252 -206 CURVE SMOOTH"
);
},
{
closed = 1;
nodes = (
"170 180 OFFCURVE",
"108 238 OFFCURVE",
"108 322 CURVE SMOOTH",
"108 408 OFFCURVE",
"168 462 OFFCURVE",
"240 462 CURVE SMOOTH",
"312 462 OFFCURVE",
"372 407 OFFCURVE",
"372 322 CURVE SMOOTH",
"372 238 OFFCURVE",
"310 180 OFFCURVE",
"240 180 CURVE SMOOTH"
);
}
);
width = 480;
},
{
anchors = (
{
name = aboveLC;
position = "{280, 520}";
},
{
name = belowLC;
position = "{280, -200}";
}
);
layerId = "A57419AF-C607-4C6D-867D-F9F312359F5B";
name = Bold;
paths = (
{
closed = 1;
nodes = (
"418 -206 OFFCURVE",
"530 -132 OFFCURVE",
"530 -24 CURVE SMOOTH",
"530 68 OFFCURVE",
"458 106 OFFCURVE",
"333 106 CURVE SMOOTH",
"258 106 LINE SMOOTH",
"208 106 OFFCURVE",
"188 114 OFFCURVE",
"188 136 CURVE SMOOTH",
"188 150 OFFCURVE",
"190 156 OFFCURVE",
"200 165 CURVE",
"222 160 OFFCURVE",
"240 158 OFFCURVE",
"256 158 CURVE SMOOTH",
"368 158 OFFCURVE",
"458 206 OFFCURVE",
"458 324 CURVE SMOOTH",
"458 344 OFFCURVE",
"454 364 OFFCURVE",
"450 376 CURVE",
"522 376 LINE",
"522 500 LINE",
"336 500 LINE",
"312 508 OFFCURVE",
"284 512 OFFCURVE",
"256 512 CURVE SMOOTH",
"146 512 OFFCURVE",
"42 454 OFFCURVE",
"42 330 CURVE SMOOTH",
"42 272 OFFCURVE",
"74 226 OFFCURVE",
"110 202 CURVE",
"110 198 LINE",
"76 174 OFFCURVE",
"54 138 OFFCURVE",
"54 104 CURVE SMOOTH",
"54 62 OFFCURVE",
"74 36 OFFCURVE",
"100 18 CURVE",
"100 14 LINE",
"54 -10 OFFCURVE",
"30 -41 OFFCURVE",
"30 -82 CURVE SMOOTH",
"30 -172 OFFCURVE",
"126 -206 OFFCURVE",
"240 -206 CURVE SMOOTH"
);
},
{
closed = 1;
nodes = (
"210 -100 OFFCURVE",
"170 -86 OFFCURVE",
"170 -54 CURVE SMOOTH",
"170 -40 OFFCURVE",
"176 -30 OFFCURVE",
"188 -18 CURVE",
"202 -22 OFFCURVE",
"220 -24 OFFCURVE",
"260 -24 CURVE SMOOTH",
"299 -24 LINE SMOOTH",
"342 -24 OFFCURVE",
"366 -28 OFFCURVE",
"366 -54 CURVE SMOOTH",
"366 -82 OFFCURVE",
"324 -100 OFFCURVE",
"268 -100 CURVE SMOOTH"
);
},
{
closed = 1;
nodes = (
"224 260 OFFCURVE",
"202 282 OFFCURVE",
"202 330 CURVE SMOOTH",
"202 376 OFFCURVE",
"224 398 OFFCURVE",
"256 398 CURVE SMOOTH",
"288 398 OFFCURVE",
"310 376 OFFCURVE",
"310 330 CURVE SMOOTH",
"310 282 OFFCURVE",
"288 260 OFFCURVE",
"256 260 CURVE SMOOTH"
);
}
);
width = 546;
}
);
leftKerningGroup = LAT_G_LC_RIGHT;
rightKerningGroup = LAT_G_LC_LEFT;
unicode = 0067;
},
{
color = (204,204,153,1);
glyphname = h;
lastChange = "2015-11-05 20:56:23 +0000";
layers = (
{
anchors = (
{
name = aboveUC;
position = "{110, 730}";
},
{
name = baseLC;
position = "{261, 0}";
},
{
name = belowLC;
position = "{280, -20}";
}
);
layerId = "786F3AE7-681A-4E36-83D7-614DB6CCA2F0";
name = Regular;
paths = (
{
closed = 1;
nodes = (
"126 0 LINE",
"126 366 LINE",
"188 430 OFFCURVE",
"232 462 OFFCURVE",
"292 462 CURVE SMOOTH",
"374 462 OFFCURVE",
"408 410 OFFCURVE",
"408 304 CURVE SMOOTH",
"408 0 LINE",
"438 0 LINE",
"438 308 LINE SMOOTH",
"438 432 OFFCURVE",
"392 490 OFFCURVE",
"294 490 CURVE SMOOTH",
"228 490 OFFCURVE",
"178 452 OFFCURVE",
"126 400 CURVE",
"126 508 LINE",
"126 722 LINE",
"96 722 LINE",
"96 0 LINE"
);
}
);
width = 522;
},
{
anchors = (
{
name = aboveUC;
position = "{140, 730}";
},
{
name = baseLC;
position = "{291, 0}";
},
{
name = belowLC;
position = "{300, -20}";
}
);
layerId = "A57419AF-C607-4C6D-867D-F9F312359F5B";
name = Bold;
paths = (
{
closed = 1;
nodes = (
"230 0 LINE",
"230 328 LINE",
"256 352 OFFCURVE",
"274 366 OFFCURVE",
"306 366 CURVE SMOOTH",
"340 366 OFFCURVE",
"356 350 OFFCURVE",
"356 286 CURVE SMOOTH",
"356 0 LINE",
"528 0 LINE",
"528 308 LINE SMOOTH",
"528 432 OFFCURVE",
"482 512 OFFCURVE",
"372 512 CURVE SMOOTH",
"304 512 OFFCURVE",
"256 478 OFFCURVE",
"222 448 CURVE",
"230 534 LINE",
"230 696 LINE",
"58 696 LINE",
"58 0 LINE"
);
}
);
width = 582;
}
);
leftKerningGroup = LAT_L_LC_RIGHT;
rightKerningGroup = LAT_N_LC_LEFT;
unicode = 0068;
userData = {
com.typemytype.robofont.mark = (
0.8,
0.8,
0.6,
1
);
};
},
{
color = (202,77,255,1);
glyphname = j;
lastChange = "2015-11-05 21:05:45 +0000";
layers = (
{
anchors = (
{
name = aboveLC;
position = "{112, 688}";
},
{
name = aboveUC;
position = "{111, 500}";
},
{
name = belowLC;
position = "{111, -250}";
}
);
components = (
{
name = dotlessj;
},
{
name = dotaccentcomb;
transform = "{1, 0, 0, 1, 112, 0}";
}
);
layerId = "786F3AE7-681A-4E36-83D7-614DB6CCA2F0";
name = Regular;
paths = (
{
closed = 1;
nodes = (
"94 -234 OFFCURVE",
"126 -194 OFFCURVE",
"126 -102 CURVE SMOOTH",
"126 478 LINE",
"96 478 LINE",
"96 -98 LINE",
"96 -160 OFFCURVE",
"86 -206 OFFCURVE",
"30 -206 CURVE SMOOTH",
"10 -206 OFFCURVE",
"-10 -200 OFFCURVE",
"-22 -196 CURVE",
"-30 -222 LINE",
"-16 -228 OFFCURVE",
"8 -234 OFFCURVE",
"28 -234 CURVE SMOOTH"
);
}
);
width = 222;
},
{
anchors = (
{
name = aboveLC;
position = "{150, 758}";
},
{
name = aboveUC;
position = "{146, 528}";
},
{
name = belowLC;
position = "{145, -226}";
}
);
components = (
{
name = dotlessj;
},
{
name = dotaccentcomb;
transform = "{1, 0, 0, 1, 146, 0}";
}
);
layerId = "A57419AF-C607-4C6D-867D-F9F312359F5B";
name = Bold;
paths = (
{
closed = 1;
nodes = (
"194 -188 OFFCURVE",
"238 -86 OFFCURVE",
"238 26 CURVE SMOOTH",
"240 500 LINE",
"68 500 LINE",
"66 20 LINE",
"66 -34 OFFCURVE",
"52 -54 OFFCURVE",
"16 -54 CURVE SMOOTH",
"4 -54 OFFCURVE",
"-6 -52 OFFCURVE",
"-20 -48 CURVE",
"-50 -174 LINE",
"-28 -182 OFFCURVE",
"-2 -188 OFFCURVE",
"44 -188 CURVE SMOOTH"
);
}
);
width = 290;
}
);
leftKerningGroup = LAT_J_LC_RIGHT;
rightKerningGroup = LAT_J_LC_LEFT;
unicode = 006A;
userData = {
com.typemytype.robofont.mark = (
0.794,
0.3,
1,
1
);
};
},
{
glyphname = k;
lastChange = "2015-11-05 20:56:23 +0000";
layers = (
{
anchors = (
{
name = aboveUC;
position = "{114, 730}";
},
{
name = belowLC;
position = "{252, -20}";
}
);
layerId = "786F3AE7-681A-4E36-83D7-614DB6CCA2F0";
name = Regular;
paths = (
{
closed = 1;
nodes = (
"126 0 LINE",
"126 132 LINE",
"240 266 LINE",
"406 0 LINE",
"440 0 LINE",
"258 290 LINE",
"412 478 LINE",
"376 478 LINE",
"128 174 LINE",
"126 174 LINE",
"126 722 LINE",
"96 722 LINE",
"96 0 LINE"
);
}
);
width = 452;
},
{
anchors = (
{
name = aboveUC;
position = "{146, 730}";
},
{
name = belowLC;
position = "{304, -20}";
}
);
layerId = "A57419AF-C607-4C6D-867D-F9F312359F5B";
name = Bold;
paths = (
{
closed = 1;
nodes = (
"226 0 LINE",
"226 120 LINE",
"278 178 LINE",
"378 0 LINE",
"564 0 LINE",
"376 292 LINE",
"554 500 LINE",
"368 500 LINE",
"230 326 LINE",
"226 326 LINE",
"226 696 LINE",
"58 696 LINE",
"58 0 LINE"
);
}
);
width = 568;
}
);
leftKerningGroup = LAT_L_LC_RIGHT;
rightKerningGroup = LAT_K_LC_LEFT;
unicode = 006B;
},
{
color = (204,204,153,1);
glyphname = l;
lastChange = "2015-11-05 20:56:23 +0000";
layers = (
{
anchors = (
{
name = aboveUC;
position = "{110, 730}";
},
{
name = baseLC;
position = "{115, 0}";
},
{
name = belowLC;
position = "{134, -20}";
},
{
name = center;
position = "{115, 0}";
}
);
layerId = "786F3AE7-681A-4E36-83D7-614DB6CCA2F0";
name = Regular;
paths = (
{
closed = 1;
nodes = (
"156 -12 OFFCURVE",
"162 -10 OFFCURVE",
"170 -8 CURVE",
"164 18 LINE",
"154 16 OFFCURVE",
"150 16 OFFCURVE",
"146 16 CURVE SMOOTH",
"134 16 OFFCURVE",
"126 26 OFFCURVE",
"126 46 CURVE SMOOTH",
"126 722 LINE",
"96 722 LINE",
"96 52 LINE SMOOTH",
"96 6 OFFCURVE",
"114 -12 OFFCURVE",
"144 -12 CURVE SMOOTH"
);
}
);
width = 230;
},
{
anchors = (
{
name = aboveUC;
position = "{144, 730}";
},
{
name = baseLC;
position = "{149, 0}";
},
{
name = belowLC;
position = "{170, -20}";
},
{
name = center;
position = "{144, 360}";
}
);
layerId = "A57419AF-C607-4C6D-867D-F9F312359F5B";
name = Bold;
paths = (
{
closed = 1;
nodes = (
"250 -12 OFFCURVE",
"278 -6 OFFCURVE",
"296 2 CURVE",
"276 128 LINE",
"268 126 OFFCURVE",
"264 126 OFFCURVE",
"258 126 CURVE SMOOTH",
"246 126 OFFCURVE",
"230 136 OFFCURVE",
"230 170 CURVE SMOOTH",
"230 696 LINE",
"58 696 LINE",
"58 176 LINE SMOOTH",
"58 64 OFFCURVE",
"96 -12 OFFCURVE",
"212 -12 CURVE SMOOTH"
);
}
);
width = 298;
}
);
leftKerningGroup = LAT_L_LC_RIGHT;
rightKerningGroup = LAT_L_LC_LEFT;
unicode = 006C;
userData = {
com.typemytype.robofont.mark = (
0.8,
0.8,
0.6,
1
);
};
},
{
color = (204,204,153,1);
glyphname = m;
lastChange = "2015-11-05 20:56:23 +0000";
layers = (
{
anchors = (
{
name = aboveLC;
position = "{404, 500}";
},
{
name = baseLC;
position = "{403, 0}";
},
{
name = belowLC;
position = "{414, -20}";
}
);
layerId = "786F3AE7-681A-4E36-83D7-614DB6CCA2F0";
name = Regular;
paths = (
{
closed = 1;
nodes = (
"126 0 LINE",
"126 366 LINE",
"182 430 OFFCURVE",
"232 462 OFFCURVE",
"278 462 CURVE SMOOTH",
"356 462 OFFCURVE",
"392 410 OFFCURVE",
"392 304 CURVE SMOOTH",
"392 0 LINE",
"422 0 LINE",
"422 366 LINE",
"478 430 OFFCURVE",
"526 462 OFFCURVE",
"574 462 CURVE SMOOTH",
"652 462 OFFCURVE",
"688 410 OFFCURVE",
"688 304 CURVE SMOOTH",
"688 0 LINE",
"718 0 LINE",
"718 308 LINE SMOOTH",
"718 432 OFFCURVE",
"670 490 OFFCURVE",
"576 490 CURVE SMOOTH",
"522 490 OFFCURVE",
"468 452 OFFCURVE",
"412 390 CURVE",
"396 450 OFFCURVE",
"358 490 OFFCURVE",
"280 490 CURVE SMOOTH",
"228 490 OFFCURVE",
"172 452 OFFCURVE",
"128 402 CURVE",
"126 402 LINE",
"122 478 LINE",
"96 478 LINE",
"96 0 LINE"
);
}
);
width = 806;
},
{
anchors = (
{
name = aboveLC;
position = "{450, 520}";
},
{
name = baseLC;
position = "{730, 0}";
},
{
name = belowLC;
position = "{440, -20}";
}
);
layerId = "A57419AF-C607-4C6D-867D-F9F312359F5B";
name = Bold;
paths = (
{
closed = 1;
nodes = (
"230 0 LINE",
"230 328 LINE",
"256 354 OFFCURVE",
"280 366 OFFCURVE",
"300 366 CURVE SMOOTH",
"334 366 OFFCURVE",
"350 350 OFFCURVE",
"350 286 CURVE SMOOTH",
"350 0 LINE",
"522 0 LINE",
"522 328 LINE",
"548 354 OFFCURVE",
"572 366 OFFCURVE",
"592 366 CURVE SMOOTH",
"626 366 OFFCURVE",
"642 350 OFFCURVE",
"642 286 CURVE SMOOTH",
"642 0 LINE",
"814 0 LINE",
"814 308 LINE SMOOTH",
"814 432 OFFCURVE",
"766 512 OFFCURVE",
"656 512 CURVE SMOOTH",
"588 512 OFFCURVE",
"543 474 OFFCURVE",
"502 432 CURVE",
"475 484 OFFCURVE",
"432 512 OFFCURVE",
"364 512 CURVE SMOOTH",
"296 512 OFFCURVE",
"254 478 OFFCURVE",
"214 439 CURVE",
"210 439 LINE",
"198 500 LINE",
"58 500 LINE",
"58 0 LINE"
);
}
);
width = 868;
}
);
leftKerningGroup = LAT_N_LC_RIGHT;
rightKerningGroup = LAT_N_LC_LEFT;
unicode = 006D;
userData = {
com.typemytype.robofont.mark = (
0.8,
0.8,
0.6,
1
);
};
},
{
color = (204,204,153,1);
glyphname = n;
lastChange = "2015-11-05 20:56:23 +0000";
layers = (
{
anchors = (
{
name = aboveLC;
position = "{278, 500}";
},
{
name = baseLC;
position = "{263, 0}";
},
{
name = belowLC;
position = "{268, -20}";
}
);
layerId = "786F3AE7-681A-4E36-83D7-614DB6CCA2F0";
name = Regular;
paths = (
{
closed = 1;
nodes = (
"126 0 LINE",
"126 366 LINE",
"188 430 OFFCURVE",
"232 462 OFFCURVE",
"292 462 CURVE SMOOTH",
"374 462 OFFCURVE",
"408 410 OFFCURVE",
"408 304 CURVE SMOOTH",
"408 0 LINE",
"438 0 LINE",
"438 308 LINE SMOOTH",
"438 432 OFFCURVE",
"392 490 OFFCURVE",
"294 490 CURVE SMOOTH",
"228 490 OFFCURVE",
"178 452 OFFCURVE",
"128 402 CURVE",
"126 402 LINE",
"122 478 LINE",
"96 478 LINE",
"96 0 LINE"
);
}
);
width = 526;
},
{
anchors = (
{
name = aboveLC;
position = "{320, 520}";
},
{
name = baseLC;
position = "{440, 0}";
},
{
name = belowLC;
position = "{300, -20}";
}
);
layerId = "A57419AF-C607-4C6D-867D-F9F312359F5B";
name = Bold;
paths = (
{
closed = 1;
nodes = (
"230 0 LINE",
"230 328 LINE",
"256 352 OFFCURVE",
"274 366 OFFCURVE",
"306 366 CURVE SMOOTH",
"340 366 OFFCURVE",
"356 350 OFFCURVE",
"356 286 CURVE SMOOTH",
"356 0 LINE",
"528 0 LINE",
"528 308 LINE SMOOTH",
"528 432 OFFCURVE",
"482 512 OFFCURVE",
"372 512 CURVE SMOOTH",
"304 512 OFFCURVE",
"254 478 OFFCURVE",
"214 440 CURVE",
"210 440 LINE",
"198 500 LINE",
"58 500 LINE",
"58 0 LINE"
);
}
);
width = 582;
}
);
leftKerningGroup = LAT_N_LC_RIGHT;
rightKerningGroup = LAT_N_LC_LEFT;
unicode = 006E;
userData = {
com.typemytype.robofont.mark = (
0.8,
0.8,
0.6,
1
);
};
},
{
color = (204,204,153,1);
glyphname = o;
lastChange = "2015-11-05 20:56:23 +0000";
layers = (
{
anchors = (
{
name = aboveLC;
position = "{266, 500}";
},
{
name = baseLC;
position = "{266, 0}";
},
{
name = belowLC;
position = "{266, -20}";
},
{
name = hornLC;
position = "{358, 478}";
},
{
name = ogonekLC;
position = "{266, 0}";
}
);
layerId = "786F3AE7-681A-4E36-83D7-614DB6CCA2F0";
name = Regular;
paths = (
{
closed = 1;
nodes = (
"380 -12 OFFCURVE",
"478 80 OFFCURVE",
"478 238 CURVE SMOOTH",
"478 398 OFFCURVE",
"380 490 OFFCURVE",
"266 490 CURVE SMOOTH",
"152 490 OFFCURVE",
"54 398 OFFCURVE",
"54 238 CURVE SMOOTH",
"54 80 OFFCURVE",
"152 -12 OFFCURVE",
"266 -12 CURVE SMOOTH"
);
},
{
closed = 1;
nodes = (
"164 16 OFFCURVE",
"86 106 OFFCURVE",
"86 238 CURVE SMOOTH",
"86 370 OFFCURVE",
"164 462 OFFCURVE",
"266 462 CURVE SMOOTH",
"368 462 OFFCURVE",
"446 370 OFFCURVE",
"446 238 CURVE SMOOTH",
"446 106 OFFCURVE",
"368 16 OFFCURVE",
"266 16 CURVE SMOOTH"
);
}
);
width = 532;
},
{
anchors = (
{
name = aboveLC;
position = "{280, 520}";
},
{
name = baseLC;
position = "{280, 0}";
},
{
name = belowLC;
position = "{280, -20}";
},
{
name = hornLC;
position = "{374, 500}";
},
{
name = ogonekLC;
position = "{280, 0}";
}
);
layerId = "A57419AF-C607-4C6D-867D-F9F312359F5B";
name = Bold;
paths = (
{
closed = 1;
nodes = (
"408 -12 OFFCURVE",
"528 84 OFFCURVE",
"528 250 CURVE SMOOTH",
"528 416 OFFCURVE",
"408 512 OFFCURVE",
"280 512 CURVE SMOOTH",
"152 512 OFFCURVE",
"32 416 OFFCURVE",
"32 250 CURVE SMOOTH",
"32 84 OFFCURVE",
"152 -12 OFFCURVE",
"280 -12 CURVE SMOOTH"
);
},
{
closed = 1;
nodes = (
"228 126 OFFCURVE",
"208 174 OFFCURVE",
"208 250 CURVE SMOOTH",
"208 326 OFFCURVE",
"228 374 OFFCURVE",
"280 374 CURVE SMOOTH",
"332 374 OFFCURVE",
"352 326 OFFCURVE",
"352 250 CURVE SMOOTH",
"352 174 OFFCURVE",
"332 126 OFFCURVE",
"280 126 CURVE SMOOTH"
);
}
);
width = 560;
}
);
leftKerningGroup = LAT_O_LC_RIGHT;
rightKerningGroup = LAT_O_LC_LEFT;
unicode = 006F;
userData = {
com.typemytype.robofont.mark = (
0.8,
0.8,
0.6,
1
);
};
},
{
glyphname = p;
lastChange = "2015-11-05 20:56:23 +0000";
layers = (
{
anchors = (
{
name = aboveLC;
position = "{278, 500}";
},
{
name = belowLC;
position = "{110, -230}";
}
);
layerId = "786F3AE7-681A-4E36-83D7-614DB6CCA2F0";
name = Regular;
paths = (
{
closed = 1;
nodes = (
"126 -222 LINE",
"126 -42 LINE",
"126 48 LINE",
"178 10 OFFCURVE",
"228 -12 OFFCURVE",
"274 -12 CURVE SMOOTH",
"388 -12 OFFCURVE",
"486 84 OFFCURVE",
"486 246 CURVE SMOOTH",
"486 394 OFFCURVE",
"424 490 OFFCURVE",
"294 490 CURVE SMOOTH",
"234 490 OFFCURVE",
"176 454 OFFCURVE",
"128 416 CURVE",
"126 416 LINE",
"122 478 LINE",
"96 478 LINE",
"96 -222 LINE"
);
},
{
closed = 1;
nodes = (
"238 16 OFFCURVE",
"184 34 OFFCURVE",
"126 82 CURVE",
"126 378 LINE",
"188 432 OFFCURVE",
"242 462 OFFCURVE",
"292 462 CURVE SMOOTH",
"410 462 OFFCURVE",
"454 368 OFFCURVE",
"454 246 CURVE SMOOTH",
"454 112 OFFCURVE",
"380 16 OFFCURVE",
"276 16 CURVE SMOOTH"
);
}
);
width = 540;
},
{
anchors = (
{
name = aboveLC;
position = "{310, 520}";
},
{
name = belowLC;
position = "{140, -200}";
}
);
layerId = "A57419AF-C607-4C6D-867D-F9F312359F5B";
name = Bold;
paths = (
{
closed = 1;
nodes = (
"230 -176 LINE",
"230 -38 LINE",
"224 38 LINE",
"256 6 OFFCURVE",
"294 -12 OFFCURVE",
"336 -12 CURVE SMOOTH",
"442 -12 OFFCURVE",
"544 86 OFFCURVE",
"544 258 CURVE SMOOTH",
"544 412 OFFCURVE",
"468 512 OFFCURVE",
"350 512 CURVE SMOOTH",
"300 512 OFFCURVE",
"251 488 OFFCURVE",
"214 454 CURVE",
"210 454 LINE",
"198 500 LINE",
"58 500 LINE",
"58 -176 LINE"
);
},
{
closed = 1;
nodes = (
"272 128 OFFCURVE",
"250 134 OFFCURVE",
"230 152 CURVE",
"230 336 LINE",
"252 362 OFFCURVE",
"272 372 OFFCURVE",
"298 372 CURVE SMOOTH",
"344 372 OFFCURVE",
"368 338 OFFCURVE",
"368 256 CURVE SMOOTH",
"368 160 OFFCURVE",
"334 128 OFFCURVE",
"294 128 CURVE SMOOTH"
);
}
);
width = 580;
}
);
leftKerningGroup = LAT_N_LC_RIGHT;
rightKerningGroup = LAT_O_LC_LEFT;
unicode = 0070;
},
{
glyphname = q;
lastChange = "2015-11-05 20:56:23 +0000";
layers = (
{
anchors = (
{
name = aboveLC;
position = "{266, 500}";
},
{
name = belowLC;
position = "{430, -230}";
}
);
layerId = "786F3AE7-681A-4E36-83D7-614DB6CCA2F0";
name = Regular;
paths = (
{
closed = 1;
nodes = (
"444 -222 LINE",
"444 478 LINE",
"418 478 LINE",
"414 434 LINE",
"412 434 LINE",
"366 468 OFFCURVE",
"326 490 OFFCURVE",
"268 490 CURVE SMOOTH",
"152 490 OFFCURVE",
"54 392 OFFCURVE",
"54 238 CURVE SMOOTH",
"54 76 OFFCURVE",
"132 -12 OFFCURVE",
"252 -12 CURVE SMOOTH",
"318 -12 OFFCURVE",
"372 24 OFFCURVE",
"416 66 CURVE",
"414 -32 LINE",
"414 -222 LINE"
);
},
{
closed = 1;
nodes = (
"146 16 OFFCURVE",
"86 106 OFFCURVE",
"86 238 CURVE SMOOTH",
"86 362 OFFCURVE",
"164 462 OFFCURVE",
"266 462 CURVE SMOOTH",
"316 462 OFFCURVE",
"360 444 OFFCURVE",
"414 396 CURVE",
"414 100 LINE",
"360 46 OFFCURVE",
"310 16 OFFCURVE",
"254 16 CURVE SMOOTH"
);
}
);
width = 540;
},
{
anchors = (
{
name = aboveLC;
position = "{310, 520}";
},
{
name = belowLC;
position = "{430, -200}";
}
);
layerId = "A57419AF-C607-4C6D-867D-F9F312359F5B";
name = Bold;
paths = (
{
closed = 1;
nodes = (
"522 -176 LINE",
"522 500 LINE",
"388 500 LINE",
"374 450 LINE",
"370 450 LINE",
"332 494 OFFCURVE",
"293 512 OFFCURVE",
"240 512 CURVE SMOOTH",
"138 512 OFFCURVE",
"36 414 OFFCURVE",
"36 250 CURVE SMOOTH",
"36 88 OFFCURVE",
"116 -12 OFFCURVE",
"240 -12 CURVE SMOOTH",
"280 -12 OFFCURVE",
"326 8 OFFCURVE",
"356 38 CURVE",
"350 -33 LINE",
"350 -176 LINE"
);
},
{
closed = 1;
nodes = (
"240 128 OFFCURVE",
"212 162 OFFCURVE",
"212 252 CURVE SMOOTH",
"212 340 OFFCURVE",
"246 372 OFFCURVE",
"282 372 CURVE SMOOTH",
"304 372 OFFCURVE",
"330 366 OFFCURVE",
"350 348 CURVE",
"350 164 LINE",
"332 136 OFFCURVE",
"312 128 OFFCURVE",
"286 128 CURVE SMOOTH"
);
}
);
width = 580;
}
);
leftKerningGroup = LAT_O_LC_RIGHT;
rightKerningGroup = LAT_U_LC_LEFT;
unicode = 0071;
},
{
color = (204,204,153,1);
glyphname = r;
lastChange = "2015-11-05 20:56:23 +0000";
layers = (
{
anchors = (
{
name = aboveLC;
position = "{192, 500}";
},
{
name = baseLC;
position = "{153, 0}";
},
{
name = belowLC;
position = "{110, -20}";
}
);
layerId = "786F3AE7-681A-4E36-83D7-614DB6CCA2F0";
name = Regular;
paths = (
{
closed = 1;
nodes = (
"126 0 LINE",
"126 332 LINE",
"164 426 OFFCURVE",
"216 460 OFFCURVE",
"260 460 CURVE SMOOTH",
"278 460 OFFCURVE",
"286 458 OFFCURVE",
"302 452 CURVE",
"310 480 LINE",
"294 488 OFFCURVE",
"280 490 OFFCURVE",
"264 490 CURVE SMOOTH",
"206 490 OFFCURVE",
"160 446 OFFCURVE",
"128 388 CURVE",
"126 388 LINE",
"122 478 LINE",
"96 478 LINE",
"96 0 LINE"
);
}
);
width = 306;
},
{
anchors = (
{
name = aboveLC;
position = "{250, 520}";
},
{
name = baseLC;
position = "{150, 0}";
},
{
name = belowLC;
position = "{144, -20}";
}
);
layerId = "A57419AF-C607-4C6D-867D-F9F312359F5B";
name = Bold;
paths = (
{
closed = 1;
nodes = (
"230 0 LINE",
"230 278 LINE",
"254 340 OFFCURVE",
"298 362 OFFCURVE",
"334 362 CURVE SMOOTH",
"356 362 OFFCURVE",
"372 358 OFFCURVE",
"390 354 CURVE",
"418 502 LINE",
"404 508 OFFCURVE",
"387 512 OFFCURVE",
"356 512 CURVE SMOOTH",
"307 512 OFFCURVE",
"251 482 OFFCURVE",
"214 414 CURVE",
"210 414 LINE",
"198 500 LINE",
"58 500 LINE",
"58 0 LINE"
);
}
);
width = 418;
}
);
leftKerningGroup = LAT_N_LC_RIGHT;
rightKerningGroup = LAT_R_LC_LEFT;
unicode = 0072;
userData = {
com.typemytype.robofont.mark = (
0.8,
0.8,
0.6,
1
);
};
},
{
glyphname = s;
lastChange = "2015-11-05 20:56:23 +0000";
layers = (
{
anchors = (
{
name = aboveLC;
position = "{206, 500}";
},
{
name = baseLC;
position = "{216, 0}";
},
{
name = belowLC;
position = "{216, -20}";
}
);
layerId = "786F3AE7-681A-4E36-83D7-614DB6CCA2F0";
name = Regular;
paths = (
{
closed = 1;
nodes = (
"308 -12 OFFCURVE",
"364 50 OFFCURVE",
"364 120 CURVE SMOOTH",
"364 214 OFFCURVE",
"280 237 OFFCURVE",
"204 266 CURVE SMOOTH",
"146 288 OFFCURVE",
"88 310 OFFCURVE",
"88 368 CURVE SMOOTH",
"88 415 OFFCURVE",
"124 462 OFFCURVE",
"204 462 CURVE SMOOTH",
"254 462 OFFCURVE",
"288 442 OFFCURVE",
"320 418 CURVE",
"338 442 LINE",
"304 470 OFFCURVE",
"254 490 OFFCURVE",
"206 490 CURVE SMOOTH",
"108 490 OFFCURVE",
"56 432 OFFCURVE",
"56 366 CURVE SMOOTH",
"56 284 OFFCURVE",
"138 256 OFFCURVE",
"212 230 CURVE SMOOTH",
"268 210 OFFCURVE",
"332 182 OFFCURVE",
"332 118 CURVE SMOOTH",
"332 64 OFFCURVE",
"290 16 OFFCURVE",
"210 16 CURVE SMOOTH",
"138 16 OFFCURVE",
"94 44 OFFCURVE",
"54 78 CURVE",
"34 54 LINE",
"76 18 OFFCURVE",
"136 -12 OFFCURVE",
"208 -12 CURVE SMOOTH"
);
}
);
width = 400;
},
{
anchors = (
{
name = aboveLC;
position = "{250, 520}";
},
{
name = baseLC;
position = "{230, 0}";
},
{
name = belowLC;
position = "{230, -20}";
}
);
layerId = "A57419AF-C607-4C6D-867D-F9F312359F5B";
name = Bold;
paths = (
{
closed = 1;
nodes = (
"352 -12 OFFCURVE",
"426 60 OFFCURVE",
"426 154 CURVE SMOOTH",
"426 244 OFFCURVE",
"358 282 OFFCURVE",
"298 304 CURVE SMOOTH",
"248 322 OFFCURVE",
"204 332 OFFCURVE",
"204 358 CURVE SMOOTH",
"204 378 OFFCURVE",
"219 386 OFFCURVE",
"248 386 CURVE SMOOTH",
"279 386 OFFCURVE",
"314 370 OFFCURVE",
"350 344 CURVE",
"426 446 LINE",
"382 479 OFFCURVE",
"324 512 OFFCURVE",
"242 512 CURVE SMOOTH",
"124 512 OFFCURVE",
"44 448 OFFCURVE",
"44 350 CURVE SMOOTH",
"44 268 OFFCURVE",
"112 225 OFFCURVE",
"170 202 CURVE SMOOTH",
"220 182 OFFCURVE",
"266 170 OFFCURVE",
"266 144 CURVE SMOOTH",
"266 124 OFFCURVE",
"252 114 OFFCURVE",
"216 114 CURVE SMOOTH",
"181 114 OFFCURVE",
"140 130 OFFCURVE",
"94 164 CURVE",
"18 58 LINE",
"70 16 OFFCURVE",
"148 -12 OFFCURVE",
"212 -12 CURVE SMOOTH"
);
}
);
width = 452;
}
);
leftKerningGroup = LAT_S_LC_RIGHT;
rightKerningGroup = LAT_S_LC_LEFT;
unicode = 0073;
},
{
glyphname = t;
lastChange = "2015-11-05 20:56:23 +0000";
layers = (
{
anchors = (
{
name = aboveLC;
position = "{124, 630}";
},
{
name = baseLC;
position = "{202, 0}";
},
{
name = belowLC;
position = "{194, -20}";
}
);
layerId = "786F3AE7-681A-4E36-83D7-614DB6CCA2F0";
name = Regular;
paths = (
{
closed = 1;
nodes = (
"234 -12 OFFCURVE",
"264 -4 OFFCURVE",
"292 6 CURVE",
"282 32 LINE",
"264 24 OFFCURVE",
"238 16 OFFCURVE",
"220 16 CURVE SMOOTH",
"150 16 OFFCURVE",
"136 60 OFFCURVE",
"136 122 CURVE SMOOTH",
"136 450 LINE",
"278 450 LINE",
"278 478 LINE",
"136 478 LINE",
"136 618 LINE",
"110 618 LINE",
"106 478 LINE",
"30 474 LINE",
"30 450 LINE",
"106 450 LINE",
"106 126 LINE SMOOTH",
"106 44 OFFCURVE",
"130 -12 OFFCURVE",
"218 -12 CURVE SMOOTH"
);
}
);
width = 302;
},
{
anchors = (
{
name = aboveLC;
position = "{176, 660}";
},
{
name = baseLC;
position = "{240, 0}";
},
{
name = belowLC;
position = "{230, -20}";
}
);
layerId = "A57419AF-C607-4C6D-867D-F9F312359F5B";
name = Bold;
paths = (
{
closed = 1;
nodes = (
"319 -12 OFFCURVE",
"356 -2 OFFCURVE",
"382 6 CURVE",
"356 130 LINE",
"344 126 OFFCURVE",
"328 122 OFFCURVE",
"312 122 CURVE SMOOTH",
"280 122 OFFCURVE",
"252 140 OFFCURVE",
"252 195 CURVE SMOOTH",
"252 366 LINE",
"366 366 LINE",
"366 500 LINE",
"252 500 LINE",
"252 630 LINE",
"110 630 LINE",
"90 500 LINE",
"14 494 LINE",
"14 366 LINE",
"80 366 LINE",
"80 192 LINE SMOOTH",
"80 70 OFFCURVE",
"134 -12 OFFCURVE",
"264 -12 CURVE SMOOTH"
);
}
);
width = 400;
}
);
leftKerningGroup = LAT_T_LC_RIGHT;
rightKerningGroup = LAT_T_LC_LEFT;
unicode = 0074;
},
{
color = (204,204,153,1);
glyphname = u;
lastChange = "2015-11-05 20:56:23 +0000";
layers = (
{
anchors = (
{
name = aboveLC;
position = "{262, 500}";
},
{
name = baseLC;
position = "{262, 0}";
},
{
name = belowLC;
position = "{280, -20}";
},
{
name = hornLC;
position = "{396, 488}";
},
{
name = ogonekLC;
position = "{406, 0}";
}
);
layerId = "786F3AE7-681A-4E36-83D7-614DB6CCA2F0";
name = Regular;
paths = (
{
closed = 1;
nodes = (
"298 -12 OFFCURVE",
"348 26 OFFCURVE",
"396 82 CURVE",
"398 82 LINE",
"402 0 LINE",
"428 0 LINE",
"428 478 LINE",
"398 478 LINE",
"398 120 LINE",
"338 48 OFFCURVE",
"294 16 OFFCURVE",
"234 16 CURVE SMOOTH",
"152 16 OFFCURVE",
"118 68 OFFCURVE",
"118 174 CURVE SMOOTH",
"118 478 LINE",
"88 478 LINE",
"88 170 LINE SMOOTH",
"88 46 OFFCURVE",
"134 -12 OFFCURVE",
"232 -12 CURVE SMOOTH"
);
}
);
width = 524;
},
{
anchors = (
{
name = aboveLC;
position = "{300, 520}";
},
{
name = baseLC;
position = "{450, 0}";
},
{
name = belowLC;
position = "{290, -20}";
},
{
name = hornLC;
position = "{438, 510}";
},
{
name = ogonekLC;
position = "{410, 0}";
}
);
layerId = "A57419AF-C607-4C6D-867D-F9F312359F5B";
name = Bold;
paths = (
{
closed = 1;
nodes = (
"278 -12 OFFCURVE",
"324 18 OFFCURVE",
"364 66 CURVE",
"368 66 LINE",
"380 0 LINE",
"520 0 LINE",
"520 500 LINE",
"348 500 LINE",
"348 178 LINE",
"326 146 OFFCURVE",
"308 134 OFFCURVE",
"276 134 CURVE SMOOTH",
"242 134 OFFCURVE",
"226 150 OFFCURVE",
"226 214 CURVE SMOOTH",
"226 500 LINE",
"54 500 LINE",
"54 192 LINE SMOOTH",
"54 68 OFFCURVE",
"100 -12 OFFCURVE",
"210 -12 CURVE SMOOTH"
);
}
);
width = 578;
}
);
leftKerningGroup = LAT_U_LC_RIGHT;
rightKerningGroup = LAT_U_LC_LEFT;
unicode = 0075;
userData = {
com.typemytype.robofont.mark = (
0.8,
0.8,
0.6,
1
);
};
},
{
glyphname = v;
lastChange = "2015-11-05 20:56:23 +0000";
layers = (
{
anchors = (
{
name = aboveLC;
position = "{212, 500}";
},
{
name = belowLC;
position = "{212, -20}";
}
);
layerId = "786F3AE7-681A-4E36-83D7-614DB6CCA2F0";
name = Regular;
paths = (
{
closed = 1;
nodes = (
"230 0 LINE",
"410 478 LINE",
"378 478 LINE",
"264 168 LINE SMOOTH",
"248 122 OFFCURVE",
"230 74 OFFCURVE",
"214 32 CURVE",
"210 32 LINE",
"194 74 OFFCURVE",
"176 122 OFFCURVE",
"160 168 CURVE SMOOTH",
"46 478 LINE",
"12 478 LINE",
"194 0 LINE"
);
}
);
width = 422;
},
{
anchors = (
{
name = aboveLC;
position = "{274, 520}";
},
{
name = belowLC;
position = "{274, -20}";
}
);
layerId = "A57419AF-C607-4C6D-867D-F9F312359F5B";
name = Bold;
paths = (
{
closed = 1;
nodes = (
"374 0 LINE",
"532 500 LINE",
"368 500 LINE",
"314 282 LINE SMOOTH",
"302 232 OFFCURVE",
"290 180 OFFCURVE",
"278 126 CURVE",
"274 126 LINE",
"262 180 OFFCURVE",
"250 232 OFFCURVE",
"238 282 CURVE SMOOTH",
"184 500 LINE",
"12 500 LINE",
"176 0 LINE"
);
}
);
width = 544;
}
);
leftKerningGroup = LAT_V_LC_RIGHT;
rightKerningGroup = LAT_V_LC_LEFT;
unicode = 0076;
},
{
glyphname = w;
lastChange = "2015-11-05 20:56:23 +0000";
layers = (
{
anchors = (
{
name = aboveLC;
position = "{336, 500}";
},
{
name = belowLC;
position = "{336, -20}";
}
);
layerId = "786F3AE7-681A-4E36-83D7-614DB6CCA2F0";
name = Regular;
paths = (
{
closed = 1;
nodes = (
"206 0 LINE",
"294 310 LINE",
"310 356 OFFCURVE",
"322 402 OFFCURVE",
"334 448 CURVE",
"338 448 LINE",
"352 402 OFFCURVE",
"362 358 OFFCURVE",
"376 312 CURVE",
"466 0 LINE",
"508 0 LINE",
"648 478 LINE",
"616 478 LINE",
"526 156 LINE",
"514 112 OFFCURVE",
"502 72 OFFCURVE",
"490 30 CURVE",
"486 30 LINE",
"474 72 OFFCURVE",
"462 112 OFFCURVE",
"450 156 CURVE",
"358 478 LINE",
"316 478 LINE",
"224 156 LINE",
"212 112 OFFCURVE",
"200 72 OFFCURVE",
"188 30 CURVE",
"184 30 LINE",
"174 72 OFFCURVE",
"162 112 OFFCURVE",
"150 156 CURVE",
"58 478 LINE",
"24 478 LINE",
"168 0 LINE"
);
}
);
width = 672;
},
{
anchors = (
{
name = aboveLC;
position = "{400, 520}";
},
{
name = belowLC;
position = "{400, -20}";
}
);
layerId = "A57419AF-C607-4C6D-867D-F9F312359F5B";
name = Bold;
paths = (
{
closed = 1;
nodes = (
"340 0 LINE",
"374 174 LINE",
"382 220 OFFCURVE",
"388 266 OFFCURVE",
"396 321 CURVE",
"400 321 LINE",
"408 266 OFFCURVE",
"416 220 OFFCURVE",
"424 174 CURVE",
"460 0 LINE",
"660 0 LINE",
"774 500 LINE",
"616 500 LINE",
"578 290 LINE",
"570 240 OFFCURVE",
"566 190 OFFCURVE",
"558 138 CURVE",
"554 138 LINE",
"544 190 OFFCURVE",
"536 240 OFFCURVE",
"524 290 CURVE",
"476 500 LINE",
"330 500 LINE",
"284 290 LINE",
"272 242 OFFCURVE",
"264 190 OFFCURVE",
"256 138 CURVE",
"252 138 LINE",
"244 190 OFFCURVE",
"240 240 OFFCURVE",
"232 290 CURVE",
"194 500 LINE",
"24 500 LINE",
"144 0 LINE"
);
}
);
width = 798;
}
);
leftKerningGroup = LAT_W_LC_RIGHT;
rightKerningGroup = LAT_W_LC_LEFT;
unicode = 0077;
},
{
color = (204,204,153,1);
glyphname = x;
lastChange = "2015-11-05 20:56:23 +0000";
layers = (
{
anchors = (
{
name = aboveLC;
position = "{196, 500}";
},
{
name = baseLC;
position = "{196, 0}";
},
{
name = belowLC;
position = "{196, -20}";
}
);
layerId = "786F3AE7-681A-4E36-83D7-614DB6CCA2F0";
name = Regular;
paths = (
{
closed = 1;
nodes = (
"46 0 LINE",
"134 138 LINE",
"154 168 OFFCURVE",
"172 198 OFFCURVE",
"192 226 CURVE",
"196 226 LINE",
"216 198 OFFCURVE",
"236 168 OFFCURVE",
"254 138 CURVE",
"344 0 LINE",
"378 0 LINE",
"214 248 LINE",
"364 478 LINE",
"332 478 LINE",
"252 350 LINE",
"234 324 OFFCURVE",
"218 298 OFFCURVE",
"200 272 CURVE",
"196 272 LINE",
"178 298 OFFCURVE",
"160 324 OFFCURVE",
"144 350 CURVE",
"62 478 LINE",
"28 478 LINE",
"178 250 LINE",
"14 0 LINE"
);
}
);
width = 392;
},
{
anchors = (
{
name = aboveLC;
position = "{270, 520}";
},
{
name = baseLC;
position = "{430, 0}";
},
{
name = belowLC;
position = "{270, -20}";
}
);
layerId = "A57419AF-C607-4C6D-867D-F9F312359F5B";
name = Bold;
paths = (
{
closed = 1;
nodes = (
"192 0 LINE",
"220 70 LINE",
"231 99 OFFCURVE",
"243 128 OFFCURVE",
"254 156 CURVE",
"258 156 LINE",
"273 128 OFFCURVE",
"287 98 OFFCURVE",
"302 70 CURVE",
"342 0 LINE",
"526 0 LINE",
"376 240 LINE",
"518 500 LINE",
"340 500 LINE",
"316 430 LINE",
"307 402 OFFCURVE",
"295 372 OFFCURVE",
"286 344 CURVE",
"282 344 LINE",
"269 372 OFFCURVE",
"255 402 OFFCURVE",
"242 430 CURVE",
"206 500 LINE",
"22 500 LINE",
"164 260 LINE",
"14 0 LINE"
);
}
);
width = 540;
}
);
leftKerningGroup = LAT_X_LC_RIGHT;
rightKerningGroup = LAT_X_LC_LEFT;
unicode = 0078;
userData = {
com.typemytype.robofont.mark = (
0.8,
0.8,
0.6,
1
);
};
},
{
color = (204,204,153,1);
glyphname = y;
lastChange = "2015-11-05 20:56:23 +0000";
layers = (
{
anchors = (
{
name = aboveLC;
position = "{224, 500}";
},
{
name = belowLC;
position = "{178, -230}";
},
{
name = ogonekLC;
position = "{212, 0}";
}
);
layerId = "786F3AE7-681A-4E36-83D7-614DB6CCA2F0";
name = Regular;
paths = (
{
closed = 1;
nodes = (
"148 -222 OFFCURVE",
"196 -142 OFFCURVE",
"220 -68 CURVE",
"412 478 LINE",
"380 478 LINE",
"272 164 LINE SMOOTH",
"258 124 OFFCURVE",
"242 72 OFFCURVE",
"226 30 CURVE",
"222 30 LINE",
"204 72 OFFCURVE",
"184 124 OFFCURVE",
"168 164 CURVE SMOOTH",
"46 478 LINE",
"12 478 LINE",
"210 -12 LINE",
"196 -56 LINE SMOOTH",
"170 -134 OFFCURVE",
"128 -192 OFFCURVE",
"68 -192 CURVE SMOOTH",
"54 -192 OFFCURVE",
"38 -188 OFFCURVE",
"28 -184 CURVE",
"20 -212 LINE",
"32 -218 OFFCURVE",
"50 -222 OFFCURVE",
"66 -222 CURVE SMOOTH"
);
}
);
width = 424;
},
{
anchors = (
{
name = aboveLC;
position = "{280, 520}";
},
{
name = belowLC;
position = "{260, -200}";
},
{
name = ogonekLC;
position = "{270, 0}";
}
);
layerId = "A57419AF-C607-4C6D-867D-F9F312359F5B";
name = Bold;
paths = (
{
closed = 1;
nodes = (
"256 -188 OFFCURVE",
"310 -127 OFFCURVE",
"362 8 CURVE",
"530 500 LINE",
"366 500 LINE",
"316 308 LINE SMOOTH",
"304 260 OFFCURVE",
"294 214 OFFCURVE",
"284 166 CURVE",
"280 166 LINE",
"268 216 OFFCURVE",
"258 262 OFFCURVE",
"244 308 CURVE SMOOTH",
"184 500 LINE",
"12 500 LINE",
"202 18 LINE",
"196 -4 LINE SMOOTH",
"186 -34 OFFCURVE",
"164 -54 OFFCURVE",
"118 -54 CURVE SMOOTH",
"108 -54 OFFCURVE",
"95 -50 OFFCURVE",
"86 -48 CURVE",
"56 -178 LINE",
"78 -184 OFFCURVE",
"98 -188 OFFCURVE",
"132 -188 CURVE SMOOTH"
);
}
);
width = 542;
}
);
leftKerningGroup = LAT_Y_LC_RIGHT;
rightKerningGroup = LAT_Y_LC_LEFT;
unicode = 0079;
userData = {
com.typemytype.robofont.mark = (
0.8,
0.8,
0.6,
1
);
};
},
{
color = (204,204,153,1);
glyphname = z;
lastChange = "2015-11-05 20:56:23 +0000";
layers = (
{
anchors = (
{
name = aboveLC;
position = "{216, 500}";
},
{
name = baseLC;
position = "{198, 0}";
},
{
name = belowLC;
position = "{214, -20}";
}
);
layerId = "786F3AE7-681A-4E36-83D7-614DB6CCA2F0";
name = Regular;
paths = (
{
closed = 1;
nodes = (
"370 0 LINE",
"370 28 LINE",
"66 28 LINE",
"360 462 LINE",
"360 478 LINE",
"58 478 LINE",
"58 450 LINE",
"320 450 LINE",
"26 16 LINE",
"26 0 LINE"
);
}
);
width = 396;
},
{
anchors = (
{
name = aboveLC;
position = "{260, 520}";
},
{
name = baseLC;
position = "{250, 0}";
},
{
name = belowLC;
position = "{250, -20}";
}
);
layerId = "A57419AF-C607-4C6D-867D-F9F312359F5B";
name = Bold;
paths = (
{
closed = 1;
nodes = (
"450 0 LINE",
"450 134 LINE",
"254 134 LINE",
"444 408 LINE",
"444 500 LINE",
"62 500 LINE",
"62 366 LINE",
"230 366 LINE",
"40 92 LINE",
"40 0 LINE"
);
}
);
width = 474;
}
);
leftKerningGroup = LAT_Z_LC_RIGHT;
rightKerningGroup = LAT_Z_LC_LEFT;
unicode = 007A;
userData = {
com.typemytype.robofont.mark = (
0.8,
0.8,
0.6,
1
);
};
},
{
color = (204,204,153,1);
glyphname = ae;
lastChange = "2015-11-05 20:56:23 +0000";
layers = (
{
anchors = (
{
name = aboveLC;
position = "{414, 500}";
},
{
name = baseLC;
position = "{392, 0}";
},
{
name = belowLC;
position = "{428, -20}";
}
);
layerId = "786F3AE7-681A-4E36-83D7-614DB6CCA2F0";
name = Regular;
paths = (
{
closed = 1;
nodes = (
"266 -12 OFFCURVE",
"348 28 OFFCURVE",
"410 90 CURVE",
"444 40 OFFCURVE",
"494 -12 OFFCURVE",
"582 -12 CURVE",
"654 -12 OFFCURVE",
"690 12 OFFCURVE",
"726 34 CURVE",
"712 60 LINE",
"676 34 OFFCURVE",
"638 16 OFFCURVE",
"584 16 CURVE SMOOTH",
"482 16 OFFCURVE",
"404 110 OFFCURVE",
"406 238 CURVE",
"744 238 LINE",
"746 250 OFFCURVE",
"746 260 OFFCURVE",
"746 270 CURVE SMOOTH",
"746 412 OFFCURVE",
"680 490 OFFCURVE",
"570 490 CURVE",
"498 490 OFFCURVE",
"434 440 OFFCURVE",
"400 364 CURVE",
"386 440 OFFCURVE",
"340 490 OFFCURVE",
"260 490 CURVE SMOOTH",
"188 490 OFFCURVE",
"122 450 OFFCURVE",
"92 428 CURVE",
"108 404 LINE",
"138 428 OFFCURVE",
"196 462 OFFCURVE",
"258 462 CURVE SMOOTH",
"358 462 OFFCURVE",
"378 376 OFFCURVE",
"376 298 CURVE",
"168 274 OFFCURVE",
"68 224 OFFCURVE",
"68 116 CURVE SMOOTH",
"68 26 OFFCURVE",
"132 -12 OFFCURVE",
"206 -12 CURVE SMOOTH"
);
},
{
closed = 1;
nodes = (
"150 16 OFFCURVE",
"100 44 OFFCURVE",
"100 118 CURVE SMOOTH",
"100 200 OFFCURVE",
"176 248 OFFCURVE",
"376 272 CURVE",
"376 244 LINE SMOOTH",
"376 196 OFFCURVE",
"384 146 OFFCURVE",
"398 116 CURVE",
"340 52 OFFCURVE",
"262 16 OFFCURVE",
"208 16 CURVE SMOOTH"
);
},
{
closed = 1;
nodes = (
"416 380 OFFCURVE",
"486 462 OFFCURVE",
"570 462 CURVE SMOOTH",
"660 462 OFFCURVE",
"716 396 OFFCURVE",
"716 264 CURVE",
"406 264 LINE"
);
}
);
width = 784;
},
{
anchors = (
{
name = aboveLC;
position = "{410, 520}";
},
{
name = baseLC;
position = "{540, 0}";
},
{
name = belowLC;
position = "{404, -20}";
}
);
layerId = "A57419AF-C607-4C6D-867D-F9F312359F5B";
name = Bold;
paths = (
{
closed = 1;
nodes = (
"259 -12 OFFCURVE",
"308 5 OFFCURVE",
"380 60 CURVE",
"423 15 OFFCURVE",
"480 -12 OFFCURVE",
"550 -12 CURVE SMOOTH",
"606 -12 OFFCURVE",
"678 8 OFFCURVE",
"732 46 CURVE",
"674 156 LINE",
"638 136 OFFCURVE",
"608 122 OFFCURVE",
"574 122 CURVE SMOOTH",
"523 122 OFFCURVE",
"482 142 OFFCURVE",
"468 198 CURVE",
"743 198 LINE",
"746 210 OFFCURVE",
"750 236 OFFCURVE",
"750 266 CURVE SMOOTH",
"750 400 OFFCURVE",
"684 512 OFFCURVE",
"548 512 CURVE",
"492 512 OFFCURVE",
"450 490 OFFCURVE",
"406 448 CURVE",
"374 488 OFFCURVE",
"326 512 OFFCURVE",
"268 512 CURVE SMOOTH",
"196 512 OFFCURVE",
"128 488 OFFCURVE",
"58 446 CURVE",
"118 334 LINE",
"170 362 OFFCURVE",
"208 376 OFFCURVE",
"244 376 CURVE SMOOTH",
"289 376 OFFCURVE",
"308 360 OFFCURVE",
"312 325 CURVE",
"120 305 OFFCURVE",
"42 246 OFFCURVE",
"42 142 CURVE SMOOTH",
"42 60 OFFCURVE",
"98 -12 OFFCURVE",
"192 -12 CURVE SMOOTH"
);
},
{
closed = 1;
nodes = (
"222 120 OFFCURVE",
"206 133 OFFCURVE",
"206 156 CURVE SMOOTH",
"206 185 OFFCURVE",
"235 210 OFFCURVE",
"310 222 CURVE",
"312 203 LINE SMOOTH",
"314 186 OFFCURVE",
"318 168 OFFCURVE",
"324 150 CURVE",
"304 132 OFFCURVE",
"281 120 OFFCURVE",
"252 120 CURVE SMOOTH"
);
},
{
closed = 1;
nodes = (
"476 360 OFFCURVE",
"504 382 OFFCURVE",
"542 382 CURVE SMOOTH",
"588 382 OFFCURVE",
"604 346 OFFCURVE",
"604 302 CURVE",
"468 302 LINE"
);
}
);
width = 786;
}
);
leftKerningGroup = LAT_A_LC_RIGHT;
rightKerningGroup = LAT_E_LC_LEFT;
unicode = 00E6;
userData = {
com.typemytype.robofont.mark = (
0.8,
0.8,
0.6,
1
);
};
},
{
color = (255,119,77,1);
glyphname = lslash;
lastChange = "2015-11-05 20:56:23 +0000";
layers = (
{
anchors = (
{
name = aboveUC;
position = "{110, 730}";
},
{
name = belowLC;
position = "{134, -20}";
}
);
components = (
{
name = l;
}
);
layerId = "786F3AE7-681A-4E36-83D7-614DB6CCA2F0";
name = Regular;
paths = (
{
closed = 1;
nodes = (
"105 382 LINE",
"117 388 LINE",
"198 444 LINE",
"184 466 LINE",
"117 420 LINE",
"105 414 LINE",
"14 354 LINE",
"28 332 LINE"
);
}
);
width = 230;
},
{
associatedMasterId = "786F3AE7-681A-4E36-83D7-614DB6CCA2F0";
layerId = "70DC111B-EE66-45DE-8224-4421982766E1";
name = mask;
paths = (
{
closed = 1;
nodes = (
"30 332 LINE",
"105 382 LINE",
"117 388 LINE",
"200 444 LINE",
"200 476 LINE",
"117 420 LINE",
"105 414 LINE",
"30 364 LINE"
);
}
);
width = 230;
},
{
anchors = (
{
name = aboveUC;
position = "{159, 730}";
},
{
name = belowLC;
position = "{159, -20}";
}
);
components = (
{
name = l;
transform = "{1, 0, 0, 1, 12, 0}";
}
);
layerId = "A57419AF-C607-4C6D-867D-F9F312359F5B";
name = Bold;
paths = (
{
closed = 1;
nodes = (
"78 260 LINE",
"209 320 LINE",
"346 394 LINE",
"288 500 LINE",
"209 456 LINE",
"78 396 LINE",
"-28 338 LINE",
"30 232 LINE"
);
}
);
width = 318;
}
);
leftKerningGroup = LAT_LSLASH_LC_RIGHT;
rightKerningGroup = LAT_LSLASH_LC_LEFT;
unicode = 0142;
userData = {
com.typemytype.robofont.layerData = {
mask = {
anchors = (
);
components = (
);
contours = (
{
points = (
{
segmentType = line;
smooth = 0;
x = 30;
y = 332;
},
{
segmentType = line;
smooth = 0;
x = 105;
y = 382;
},
{
segmentType = line;
smooth = 0;
x = 117;
y = 388;
},
{
segmentType = line;
smooth = 0;
x = 200;
y = 444;
},
{
segmentType = line;
smooth = 0;
x = 200;
y = 476;
},
{
segmentType = line;
smooth = 0;
x = 117;
y = 420;
},
{
segmentType = line;
smooth = 0;
x = 105;
y = 414;
},
{
segmentType = line;
smooth = 0;
x = 30;
y = 364;
}
);
}
);
lib = {
};
name = lslash;
unicodes = (
);
width = 230;
};
};
com.typemytype.robofont.mark = (
1,
0.465,
0.3,
1
);
};
},
{
color = (204,204,153,1);
glyphname = oslash;
lastChange = "2015-11-05 20:56:23 +0000";
layers = (
{
anchors = (
{
name = aboveLC;
position = "{266, 500}";
},
{
name = baseLC;
position = "{266, 0}";
},
{
name = belowLC;
position = "{266, -20}";
}
);
layerId = "786F3AE7-681A-4E36-83D7-614DB6CCA2F0";
name = Regular;
paths = (
{
closed = 1;
nodes = (
"486 480 LINE",
"464 498 LINE",
"46 -4 LINE",
"68 -22 LINE"
);
},
{
closed = 1;
nodes = (
"380 -12 OFFCURVE",
"478 80 OFFCURVE",
"478 238 CURVE SMOOTH",
"478 398 OFFCURVE",
"380 490 OFFCURVE",
"266 490 CURVE SMOOTH",
"152 490 OFFCURVE",
"54 398 OFFCURVE",
"54 238 CURVE SMOOTH",
"54 80 OFFCURVE",
"152 -12 OFFCURVE",
"266 -12 CURVE SMOOTH"
);
},
{
closed = 1;
nodes = (
"164 16 OFFCURVE",
"86 106 OFFCURVE",
"86 238 CURVE SMOOTH",
"86 370 OFFCURVE",
"164 462 OFFCURVE",
"266 462 CURVE SMOOTH",
"368 462 OFFCURVE",
"446 370 OFFCURVE",
"446 238 CURVE SMOOTH",
"446 106 OFFCURVE",
"368 16 OFFCURVE",
"266 16 CURVE SMOOTH"
);
}
);
width = 532;
},
{
anchors = (
{
name = aboveLC;
position = "{280, 520}";
},
{
name = baseLC;
position = "{280, 0}";
},
{
name = belowLC;
position = "{280, -20}";
}
);
layerId = "A57419AF-C607-4C6D-867D-F9F312359F5B";
name = Bold;
paths = (
{
closed = 1;
nodes = (
"408 -12 OFFCURVE",
"528 84 OFFCURVE",
"528 250 CURVE SMOOTH",
"528 416 OFFCURVE",
"408 512 OFFCURVE",
"280 512 CURVE SMOOTH",
"152 512 OFFCURVE",
"32 416 OFFCURVE",
"32 250 CURVE SMOOTH",
"32 84 OFFCURVE",
"152 -12 OFFCURVE",
"280 -12 CURVE SMOOTH"
);
},
{
closed = 1;
nodes = (
"514 480 LINE",
"452 528 LINE",
"46 22 LINE",
"108 -26 LINE"
);
},
{
closed = 1;
nodes = (
"226 120 OFFCURVE",
"198 162 OFFCURVE",
"198 260 CURVE SMOOTH",
"198 332 OFFCURVE",
"228 380 OFFCURVE",
"280 380 CURVE SMOOTH",
"334 380 OFFCURVE",
"362 338 OFFCURVE",
"362 240 CURVE SMOOTH",
"362 168 OFFCURVE",
"332 120 OFFCURVE",
"280 120 CURVE SMOOTH"
);
}
);
width = 560;
}
);
leftKerningGroup = LAT_O_LC_RIGHT;
rightKerningGroup = LAT_O_LC_LEFT;
unicode = 00F8;
userData = {
com.typemytype.robofont.mark = (
0.8,
0.8,
0.6,
1
);
};
},
{
color = (204,204,153,1);
glyphname = oe;
lastChange = "2015-11-05 20:56:23 +0000";
layers = (
{
anchors = (
{
name = aboveLC;
position = "{452, 500}";
},
{
name = baseLC;
position = "{426, 0}";
},
{
name = belowLC;
position = "{426, -20}";
}
);
layerId = "786F3AE7-681A-4E36-83D7-614DB6CCA2F0";
name = Regular;
paths = (
{
closed = 1;
nodes = (
"348 -12 OFFCURVE",
"416 38 OFFCURVE",
"452 136 CURVE",
"486 46 OFFCURVE",
"558 -12 OFFCURVE",
"646 -12 CURVE",
"718 -12 OFFCURVE",
"758 12 OFFCURVE",
"794 34 CURVE",
"780 60 LINE",
"744 34 OFFCURVE",
"702 16 OFFCURVE",
"648 16 CURVE SMOOTH",
"546 16 OFFCURVE",
"466 110 OFFCURVE",
"468 238 CURVE",
"812 238 LINE",
"814 250 OFFCURVE",
"814 260 OFFCURVE",
"814 270 CURVE SMOOTH",
"814 412 OFFCURVE",
"744 490 OFFCURVE",
"634 490 CURVE",
"554 490 OFFCURVE",
"486 432 OFFCURVE",
"452 340 CURVE",
"418 440 OFFCURVE",
"340 490 OFFCURVE",
"262 490 CURVE SMOOTH",
"152 490 OFFCURVE",
"54 398 OFFCURVE",
"54 238 CURVE SMOOTH",
"54 80 OFFCURVE",
"152 -12 OFFCURVE",
"262 -12 CURVE SMOOTH"
);
},
{
closed = 1;
nodes = (
"162 16 OFFCURVE",
"86 106 OFFCURVE",
"86 238 CURVE SMOOTH",
"86 370 OFFCURVE",
"162 462 OFFCURVE",
"262 462 CURVE SMOOTH",
"364 462 OFFCURVE",
"438 370 OFFCURVE",
"438 238 CURVE SMOOTH",
"438 106 OFFCURVE",
"364 16 OFFCURVE",
"262 16 CURVE SMOOTH"
);
},
{
closed = 1;
nodes = (
"478 380 OFFCURVE",
"550 462 OFFCURVE",
"634 462 CURVE SMOOTH",
"724 462 OFFCURVE",
"784 396 OFFCURVE",
"784 264 CURVE",
"468 264 LINE"
);
}
);
width = 852;
},
{
anchors = (
{
name = aboveLC;
position = "{420, 520}";
},
{
name = baseLC;
position = "{408, 0}";
},
{
name = belowLC;
position = "{408, -20}";
}
);
layerId = "A57419AF-C607-4C6D-867D-F9F312359F5B";
name = Bold;
paths = (
{
closed = 1;
nodes = (
"338 -12 OFFCURVE",
"386 14 OFFCURVE",
"428 62 CURVE",
"470 14 OFFCURVE",
"526 -12 OFFCURVE",
"580 -12 CURVE SMOOTH",
"636 -12 OFFCURVE",
"708 8 OFFCURVE",
"762 46 CURVE",
"704 156 LINE",
"668 136 OFFCURVE",
"638 122 OFFCURVE",
"604 122 CURVE SMOOTH",
"553 122 OFFCURVE",
"512 142 OFFCURVE",
"498 198 CURVE",
"773 198 LINE",
"776 210 OFFCURVE",
"780 236 OFFCURVE",
"780 266 CURVE SMOOTH",
"780 400 OFFCURVE",
"714 512 OFFCURVE",
"578 512 CURVE SMOOTH",
"522 512 OFFCURVE",
"468 486 OFFCURVE",
"426 438 CURVE",
"388 482 OFFCURVE",
"340 512 OFFCURVE",
"272 512 CURVE SMOOTH",
"142 512 OFFCURVE",
"32 416 OFFCURVE",
"32 250 CURVE SMOOTH",
"32 84 OFFCURVE",
"138 -12 OFFCURVE",
"268 -12 CURVE SMOOTH"
);
},
{
closed = 1;
nodes = (
"228 126 OFFCURVE",
"206 174 OFFCURVE",
"206 250 CURVE SMOOTH",
"206 326 OFFCURVE",
"228 374 OFFCURVE",
"272 374 CURVE SMOOTH",
"316 374 OFFCURVE",
"340 326 OFFCURVE",
"340 250 CURVE SMOOTH",
"340 174 OFFCURVE",
"316 126 OFFCURVE",
"272 126 CURVE SMOOTH"
);
},
{
closed = 1;
nodes = (
"506 360 OFFCURVE",
"534 382 OFFCURVE",
"572 382 CURVE SMOOTH",
"618 382 OFFCURVE",
"634 346 OFFCURVE",
"634 302 CURVE",
"498 302 LINE"
);
}
);
width = 816;
}
);
leftKerningGroup = LAT_O_LC_RIGHT;
rightKerningGroup = LAT_E_LC_LEFT;
unicode = 0153;
userData = {
com.typemytype.robofont.mark = (
0.8,
0.8,
0.6,
1
);
};
},
{
glyphname = germandbls;
lastChange = "2015-11-05 20:56:23 +0000";
layers = (
{
layerId = "786F3AE7-681A-4E36-83D7-614DB6CCA2F0";
name = Regular;
paths = (
{
closed = 1;
nodes = (
"440 -12 OFFCURVE",
"500 46 OFFCURVE",
"500 124 CURVE SMOOTH",
"500 294 OFFCURVE",
"286 256 OFFCURVE",
"286 378 CURVE SMOOTH",
"286 462 OFFCURVE",
"388 498 OFFCURVE",
"388 602 CURVE SMOOTH",
"388 676 OFFCURVE",
"338 732 OFFCURVE",
"258 732 CURVE SMOOTH",
"162 732 OFFCURVE",
"96 660 OFFCURVE",
"96 538 CURVE SMOOTH",
"96 0 LINE",
"126 0 LINE",
"126 524 LINE SMOOTH",
"126 648 OFFCURVE",
"178 704 OFFCURVE",
"256 704 CURVE SMOOTH",
"322 704 OFFCURVE",
"356 660 OFFCURVE",
"356 600 CURVE SMOOTH",
"356 508 OFFCURVE",
"254 476 OFFCURVE",
"254 376 CURVE SMOOTH",
"254 230 OFFCURVE",
"468 270 OFFCURVE",
"468 122 CURVE SMOOTH",
"468 68 OFFCURVE",
"432 16 OFFCURVE",
"360 16 CURVE SMOOTH",
"316 16 OFFCURVE",
"282 32 OFFCURVE",
"244 64 CURVE",
"226 40 LINE",
"262 8 OFFCURVE",
"308 -12 OFFCURVE",
"360 -12 CURVE SMOOTH"
);
}
);
width = 530;
},
{
layerId = "A57419AF-C607-4C6D-867D-F9F312359F5B";
name = Bold;
paths = (
{
closed = 1;
nodes = (
"564 -12 OFFCURVE",
"628 64 OFFCURVE",
"628 158 CURVE SMOOTH",
"628 308 OFFCURVE",
"460 312 OFFCURVE",
"460 366 CURVE SMOOTH",
"460 410 OFFCURVE",
"532 438 OFFCURVE",
"532 532 CURVE SMOOTH",
"532 620 OFFCURVE",
"460 706 OFFCURVE",
"312 706 CURVE SMOOTH",
"137 706 OFFCURVE",
"58 606 OFFCURVE",
"58 476 CURVE SMOOTH",
"58 0 LINE",
"228 0 LINE",
"228 458 LINE SMOOTH",
"228 526 OFFCURVE",
"255 572 OFFCURVE",
"312 572 CURVE SMOOTH",
"348 572 OFFCURVE",
"368 546 OFFCURVE",
"368 512 CURVE SMOOTH",
"368 442 OFFCURVE",
"304 416 OFFCURVE",
"304 344 CURVE SMOOTH",
"304 216 OFFCURVE",
"472 210 OFFCURVE",
"472 150 CURVE SMOOTH",
"472 128 OFFCURVE",
"454 114 OFFCURVE",
"428 114 CURVE SMOOTH",
"400 114 OFFCURVE",
"370 124 OFFCURVE",
"338 148 CURVE",
"280 32 LINE",
"330 4 OFFCURVE",
"374 -12 OFFCURVE",
"434 -12 CURVE SMOOTH"
);
}
);
width = 654;
}
);
leftKerningGroup = LAT_L_LC_RIGHT;
rightKerningGroup = LAT_GERMANDBLS_LC_LEFT;
unicode = 00DF;
},
{
color = (204,204,153,1);
glyphname = eth;
lastChange = "2015-11-05 20:56:23 +0000";
layers = (
{
anchors = (
{
name = aboveUC;
position = "{266, 730}";
},
{
name = belowLC;
position = "{266, -20}";
}
);
layerId = "786F3AE7-681A-4E36-83D7-614DB6CCA2F0";
name = Regular;
paths = (
{
closed = 1;
nodes = (
"382 -12 OFFCURVE",
"464 90 OFFCURVE",
"464 250 CURVE SMOOTH",
"464 510 OFFCURVE",
"326 638 OFFCURVE",
"172 722 CURVE",
"156 700 LINE",
"304 614 OFFCURVE",
"432 510 OFFCURVE",
"432 250 CURVE SMOOTH",
"432 122 OFFCURVE",
"382 16 OFFCURVE",
"266 16 CURVE SMOOTH",
"172 16 OFFCURVE",
"94 100 OFFCURVE",
"94 218 CURVE SMOOTH",
"94 320 OFFCURVE",
"153 412 OFFCURVE",
"268 412 CURVE SMOOTH",
"322 412 OFFCURVE",
"378 394 OFFCURVE",
"434 308 CURVE",
"434 346 LINE",
"392 408 OFFCURVE",
"334 440 OFFCURVE",
"270 440 CURVE SMOOTH",
"144 440 OFFCURVE",
"62 348 OFFCURVE",
"62 218 CURVE SMOOTH",
"62 74 OFFCURVE",
"162 -12 OFFCURVE",
"266 -12 CURVE SMOOTH"
);
},
{
closed = 1;
nodes = (
"464 678 LINE",
"452 700 LINE",
"150 542 LINE",
"162 520 LINE"
);
}
);
width = 532;
},
{
anchors = (
{
name = aboveUC;
position = "{283, 730}";
},
{
name = belowLC;
position = "{283, -20}";
}
);
layerId = "A57419AF-C607-4C6D-867D-F9F312359F5B";
name = Bold;
paths = (
{
closed = 1;
nodes = (
"428 -12 OFFCURVE",
"520 108 OFFCURVE",
"520 270 CURVE SMOOTH",
"520 526 OFFCURVE",
"348 658 OFFCURVE",
"177 744 CURVE",
"103 640 LINE",
"282 550 OFFCURVE",
"360 453 OFFCURVE",
"360 260 CURVE SMOOTH",
"360 162 OFFCURVE",
"324 126 OFFCURVE",
"280 126 CURVE SMOOTH",
"234 126 OFFCURVE",
"194 160 OFFCURVE",
"194 230 CURVE SMOOTH",
"194 305 OFFCURVE",
"231 332 OFFCURVE",
"277 332 CURVE SMOOTH",
"310 332 OFFCURVE",
"340 321 OFFCURVE",
"366 292 CURVE",
"364 378 LINE",
"344 438 OFFCURVE",
"290 458 OFFCURVE",
"240 458 CURVE SMOOTH",
"140 458 OFFCURVE",
"38 376 OFFCURVE",
"38 230 CURVE SMOOTH",
"38 82 OFFCURVE",
"146 -12 OFFCURVE",
"274 -12 CURVE SMOOTH"
);
},
{
closed = 1;
nodes = (
"502 658 LINE",
"458 733 LINE",
"72 539 LINE",
"116 465 LINE"
);
}
);
width = 566;
}
);
leftKerningGroup = LAT_ETH_LC_RIGHT;
rightKerningGroup = LAT_ETH_LC_LEFT;
unicode = 00F0;
userData = {
com.typemytype.robofont.mark = (
0.8,
0.8,
0.6,
1
);
};
},
{
color = (204,204,153,1);
glyphname = thorn;
lastChange = "2015-11-05 20:56:23 +0000";
layers = (
{
anchors = (
{
name = aboveLC;
position = "{114, 730}";
},
{
name = aboveUC;
position = "{270, 730}";
},
{
name = belowLC;
position = "{276, -20}";
}
);
layerId = "786F3AE7-681A-4E36-83D7-614DB6CCA2F0";
name = Regular;
paths = (
{
closed = 1;
nodes = (
"126 -222 LINE",
"126 -42 LINE",
"126 48 LINE",
"178 10 OFFCURVE",
"228 -12 OFFCURVE",
"274 -12 CURVE SMOOTH",
"388 -12 OFFCURVE",
"486 84 OFFCURVE",
"486 246 CURVE SMOOTH",
"486 394 OFFCURVE",
"424 490 OFFCURVE",
"294 490 CURVE SMOOTH",
"234 490 OFFCURVE",
"176 454 OFFCURVE",
"126 416 CURVE",
"126 510 LINE",
"126 722 LINE",
"96 722 LINE",
"96 -222 LINE"
);
},
{
closed = 1;
nodes = (
"238 16 OFFCURVE",
"184 34 OFFCURVE",
"126 82 CURVE",
"126 378 LINE",
"188 432 OFFCURVE",
"242 462 OFFCURVE",
"292 462 CURVE SMOOTH",
"410 462 OFFCURVE",
"454 368 OFFCURVE",
"454 246 CURVE SMOOTH",
"454 112 OFFCURVE",
"380 16 OFFCURVE",
"276 16 CURVE SMOOTH"
);
}
);
width = 540;
},
{
anchors = (
{
name = aboveLC;
position = "{290, 730}";
},
{
name = aboveUC;
position = "{146, 730}";
},
{
name = belowLC;
position = "{297, -20}";
}
);
layerId = "A57419AF-C607-4C6D-867D-F9F312359F5B";
name = Bold;
paths = (
{
closed = 1;
nodes = (
"230 -176 LINE",
"230 -38 LINE",
"226 32 LINE",
"256 4 OFFCURVE",
"288 -12 OFFCURVE",
"336 -12 CURVE SMOOTH",
"442 -12 OFFCURVE",
"544 86 OFFCURVE",
"544 258 CURVE SMOOTH",
"544 412 OFFCURVE",
"464 512 OFFCURVE",
"340 512 CURVE SMOOTH",
"298 512 OFFCURVE",
"257 496 OFFCURVE",
"226 468 CURVE",
"230 533 LINE",
"230 696 LINE",
"58 696 LINE",
"58 -176 LINE"
);
},
{
closed = 1;
nodes = (
"272 128 OFFCURVE",
"250 134 OFFCURVE",
"230 152 CURVE",
"230 336 LINE",
"252 362 OFFCURVE",
"272 372 OFFCURVE",
"298 372 CURVE SMOOTH",
"344 372 OFFCURVE",
"368 338 OFFCURVE",
"368 256 CURVE SMOOTH",
"368 160 OFFCURVE",
"334 128 OFFCURVE",
"294 128 CURVE SMOOTH"
);
}
);
width = 580;
}
);
leftKerningGroup = LAT_L_LC_RIGHT;
rightKerningGroup = LAT_O_LC_LEFT;
unicode = 00FE;
userData = {
com.typemytype.robofont.mark = (
0.8,
0.8,
0.6,
1
);
};
},
{
glyphname = eogonek;
lastChange = "2015-11-05 20:56:23 +0000";
layers = (
{
anchors = (
{
name = aboveLC;
position = "{260, 500}";
}
);
layerId = "786F3AE7-681A-4E36-83D7-614DB6CCA2F0";
name = Regular;
paths = (
{
closed = 1;
nodes = (
"374 -202 OFFCURVE",
"400 -192 OFFCURVE",
"414 -180 CURVE",
"400 -160 LINE",
"386 -170 OFFCURVE",
"374 -174 OFFCURVE",
"356 -174 CURVE SMOOTH",
"330 -174 OFFCURVE",
"306 -156 OFFCURVE",
"306 -120 CURVE SMOOTH",
"306 -76 OFFCURVE",
"334 -30 OFFCURVE",
"420 34 CURVE",
"406 60 LINE",
"370 34 OFFCURVE",
"328 16 OFFCURVE",
"274 16 CURVE",
"160 16 OFFCURVE",
"86 110 OFFCURVE",
"86 238 CURVE",
"438 238 LINE",
"440 250 OFFCURVE",
"440 260 OFFCURVE",
"440 270 CURVE SMOOTH",
"440 412 OFFCURVE",
"370 490 OFFCURVE",
"260 490 CURVE SMOOTH",
"154 490 OFFCURVE",
"54 394 OFFCURVE",
"54 238 CURVE SMOOTH",
"54 82 OFFCURVE",
"152 -12 OFFCURVE",
"272 -12 CURVE",
"296 -12 OFFCURVE",
"318 -10 OFFCURVE",
"340 -2 CURVE",
"312 -26 OFFCURVE",
"276 -72 OFFCURVE",
"276 -122 CURVE SMOOTH",
"276 -176 OFFCURVE",
"310 -202 OFFCURVE",
"354 -202 CURVE SMOOTH"
);
},
{
closed = 1;
nodes = (
"96 388 OFFCURVE",
"174 462 OFFCURVE",
"260 462 CURVE SMOOTH",
"350 462 OFFCURVE",
"410 398 OFFCURVE",
"410 266 CURVE",
"86 266 LINE"
);
}
);
width = 478;
},
{
anchors = (
{
name = aboveLC;
position = "{272, 520}";
}
);
layerId = "A57419AF-C607-4C6D-867D-F9F312359F5B";
name = Bold;
paths = (
{
closed = 1;
nodes = (
"398 -212 OFFCURVE",
"446 -198 OFFCURVE",
"474 -176 CURVE",
"440 -100 LINE",
"431 -106 OFFCURVE",
"419 -112 OFFCURVE",
"407 -112 CURVE SMOOTH",
"384 -112 OFFCURVE",
"366 -101 OFFCURVE",
"366 -78 CURVE SMOOTH",
"366 -40 OFFCURVE",
"384 -14 OFFCURVE",
"472 46 CURVE",
"416 148 LINE",
"380 128 OFFCURVE",
"348 118 OFFCURVE",
"314 118 CURVE",
"258 118 OFFCURVE",
"214 138 OFFCURVE",
"198 198 CURVE",
"483 198 LINE",
"486 210 OFFCURVE",
"490 240 OFFCURVE",
"490 270 CURVE SMOOTH",
"490 404 OFFCURVE",
"420 512 OFFCURVE",
"272 512 CURVE SMOOTH",
"150 512 OFFCURVE",
"32 412 OFFCURVE",
"32 250 CURVE SMOOTH",
"32 84 OFFCURVE",
"144 -12 OFFCURVE",
"290 -12 CURVE",
"294 -12 OFFCURVE",
"298 -12 OFFCURVE",
"308 -10 CURVE",
"284 -32 OFFCURVE",
"254 -70 OFFCURVE",
"254 -118 CURVE SMOOTH",
"254 -180 OFFCURVE",
"302 -212 OFFCURVE",
"364 -212 CURVE SMOOTH"
);
},
{
closed = 1;
nodes = (
"206 360 OFFCURVE",
"238 382 OFFCURVE",
"276 382 CURVE SMOOTH",
"328 382 OFFCURVE",
"344 348 OFFCURVE",
"344 310 CURVE",
"196 310 LINE"
);
}
);
width = 526;
}
);
leftKerningGroup = LAT_O_LC_RIGHT;
rightKerningGroup = LAT_E_LC_LEFT;
unicode = 0119;
},
{
glyphname = hbar;
lastChange = "2015-11-05 20:56:23 +0000";
layers = (
{
layerId = "786F3AE7-681A-4E36-83D7-614DB6CCA2F0";
name = Regular;
paths = (
{
closed = 1;
nodes = (
"126 0 LINE",
"126 334 LINE",
"188 398 OFFCURVE",
"232 430 OFFCURVE",
"292 430 CURVE SMOOTH",
"374 430 OFFCURVE",
"408 378 OFFCURVE",
"408 272 CURVE SMOOTH",
"408 0 LINE",
"438 0 LINE",
"438 276 LINE SMOOTH",
"438 400 OFFCURVE",
"392 458 OFFCURVE",
"294 458 CURVE SMOOTH",
"228 458 OFFCURVE",
"178 420 OFFCURVE",
"126 368 CURVE",
"126 476 LINE",
"126 722 LINE",
"96 722 LINE",
"96 0 LINE"
);
},
{
closed = 1;
nodes = (
"318 584 LINE",
"318 612 LINE",
"96 612 LINE",
"18 608 LINE",
"18 584 LINE"
);
}
);
width = 522;
},
{
layerId = "A57419AF-C607-4C6D-867D-F9F312359F5B";
name = Bold;
paths = (
{
closed = 1;
nodes = (
"230 0 LINE",
"230 276 LINE",
"256 300 OFFCURVE",
"274 314 OFFCURVE",
"306 314 CURVE SMOOTH",
"340 314 OFFCURVE",
"356 298 OFFCURVE",
"356 234 CURVE SMOOTH",
"356 0 LINE",
"528 0 LINE",
"528 256 LINE SMOOTH",
"528 380 OFFCURVE",
"482 460 OFFCURVE",
"372 460 CURVE SMOOTH",
"304 460 OFFCURVE",
"256 426 OFFCURVE",
"222 396 CURVE",
"230 482 LINE",
"230 696 LINE",
"58 696 LINE",
"58 0 LINE"
);
},
{
closed = 1;
nodes = (
"394 550 LINE",
"394 630 LINE",
"68 630 LINE",
"-8 624 LINE",
"-8 550 LINE"
);
}
);
width = 582;
}
);
leftKerningGroup = LAT_HBAR_LC_RIGHT;
rightKerningGroup = LAT_N_LC_LEFT;
unicode = 0127;
},
{
glyphname = aturned;
lastChange = "2015-11-05 20:56:23 +0000";
layers = (
{
anchors = (
{
name = aboveLC;
position = "{270, 500}";
},
{
name = belowLC;
position = "{272, -20}";
},
{
name = ogonekLC;
position = "{324, 0}";
}
);
layerId = "786F3AE7-681A-4E36-83D7-614DB6CCA2F0";
name = Regular;
paths = (
{
closed = 1;
nodes = (
"337 -12 OFFCURVE",
"400 28 OFFCURVE",
"428 50 CURVE",
"412 74 LINE",
"384 50 OFFCURVE",
"330 16 OFFCURVE",
"266 16 CURVE SMOOTH",
"142 16 OFFCURVE",
"116 108 OFFCURVE",
"118 180 CURVE",
"334 205 OFFCURVE",
"432 258 OFFCURVE",
"432 371 CURVE SMOOTH",
"432 455 OFFCURVE",
"373 490 OFFCURVE",
"304 490 CURVE SMOOTH",
"240 490 OFFCURVE",
"173 456 OFFCURVE",
"120 404 CURVE",
"118 404 LINE",
"114 478 LINE",
"88 478 LINE",
"88 178 LINE SMOOTH",
"88 77 OFFCURVE",
"128 -12 OFFCURVE",
"264 -12 CURVE SMOOTH"
);
},
{
closed = 1;
nodes = (
"118 368 LINE",
"186 436 OFFCURVE",
"246 462 OFFCURVE",
"302 462 CURVE SMOOTH",
"355 462 OFFCURVE",
"400 437 OFFCURVE",
"400 370 CURVE SMOOTH",
"400 283 OFFCURVE",
"328 232 OFFCURVE",
"118 206 CURVE"
);
}
);
width = 494;
},
{
anchors = (
{
name = aboveLC;
position = "{285, 520}";
},
{
name = belowLC;
position = "{288, -20}";
},
{
name = ogonekLC;
position = "{360, 0}";
}
);
layerId = "A57419AF-C607-4C6D-867D-F9F312359F5B";
name = Bold;
paths = (
{
closed = 1;
nodes = (
"353 -12 OFFCURVE",
"423 12 OFFCURVE",
"490 54 CURVE",
"430 166 LINE",
"378 138 OFFCURVE",
"343 124 OFFCURVE",
"306 124 CURVE SMOOTH",
"256 124 OFFCURVE",
"229 138 OFFCURVE",
"224 174 CURVE",
"416 195 OFFCURVE",
"496 266 OFFCURVE",
"496 372 CURVE SMOOTH",
"496 449 OFFCURVE",
"448 512 OFFCURVE",
"360 512 CURVE SMOOTH",
"294 512 OFFCURVE",
"244 484 OFFCURVE",
"208 442 CURVE",
"204 442 LINE",
"192 500 LINE",
"52 500 LINE",
"52 226 LINE SMOOTH",
"52 62 OFFCURVE",
"138 -12 OFFCURVE",
"280 -12 CURVE SMOOTH"
);
},
{
closed = 1;
nodes = (
"224 336 LINE",
"243 362 OFFCURVE",
"264 380 OFFCURVE",
"292 380 CURVE SMOOTH",
"316 380 OFFCURVE",
"332 367 OFFCURVE",
"332 344 CURVE SMOOTH",
"332 316 OFFCURVE",
"306 290 OFFCURVE",
"224 278 CURVE"
);
}
);
width = 542;
}
);
leftKerningGroup = LAT_U_LC_RIGHT;
rightKerningGroup = LAT_E_LC_LEFT;
unicode = 0250;
},
{
color = (204,204,153,1);
glyphname = alphalatin;
lastChange = "2015-11-05 11:33:06 +0000";
layers = (
{
anchors = (
{
name = aboveLC;
position = "{268, 502}";
},
{
name = baseLC;
position = "{270, 0}";
},
{
name = belowLC;
position = "{268, -22}";
}
);
layerId = "786F3AE7-681A-4E36-83D7-614DB6CCA2F0";
name = Regular;
paths = (
{
closed = 1;
nodes = (
"318 -12 OFFCURVE",
"372 24 OFFCURVE",
"412 64 CURVE",
"414 64 LINE",
"414 14 OFFCURVE",
"424 -12 OFFCURVE",
"462 -12 CURVE SMOOTH",
"474 -12 OFFCURVE",
"480 -10 OFFCURVE",
"488 -8 CURVE",
"482 18 LINE",
"472 16 OFFCURVE",
"468 16 OFFCURVE",
"464 16 CURVE SMOOTH",
"452 16 OFFCURVE",
"444 26 OFFCURVE",
"444 46 CURVE SMOOTH",
"444 478 LINE",
"416 478 LINE",
"414 432 LINE",
"412 432 LINE",
"366 468 OFFCURVE",
"326 490 OFFCURVE",
"268 490 CURVE SMOOTH",
"152 490 OFFCURVE",
"54 392 OFFCURVE",
"54 238 CURVE SMOOTH",
"54 76 OFFCURVE",
"132 -12 OFFCURVE",
"252 -12 CURVE SMOOTH"
);
},
{
closed = 1;
nodes = (
"146 16 OFFCURVE",
"86 106 OFFCURVE",
"86 238 CURVE SMOOTH",
"86 362 OFFCURVE",
"164 462 OFFCURVE",
"266 462 CURVE SMOOTH",
"316 462 OFFCURVE",
"360 444 OFFCURVE",
"414 396 CURVE",
"414 100 LINE",
"360 46 OFFCURVE",
"310 16 OFFCURVE",
"254 16 CURVE SMOOTH"
);
}
);
width = 540;
},
{
anchors = (
{
name = aboveLC;
position = "{306, 522}";
},
{
name = baseLC;
position = "{290, 0}";
},
{
name = belowLC;
position = "{308, -22}";
}
);
layerId = "A57419AF-C607-4C6D-867D-F9F312359F5B";
name = Bold;
paths = (
{
closed = 1;
nodes = (
"286 -12 OFFCURVE",
"341 16 OFFCURVE",
"372 52 CURVE",
"376 52 LINE",
"394 12 OFFCURVE",
"432 -12 OFFCURVE",
"484 -12 CURVE SMOOTH",
"516 -12 OFFCURVE",
"534 -8 OFFCURVE",
"550 0 CURVE",
"554 128 LINE",
"548 126 OFFCURVE",
"544 126 OFFCURVE",
"542 126 CURVE SMOOTH",
"530 126 OFFCURVE",
"522 134 OFFCURVE",
"522 160 CURVE SMOOTH",
"522 500 LINE",
"388 500 LINE",
"374 450 LINE",
"370 450 LINE",
"332 494 OFFCURVE",
"292 512 OFFCURVE",
"244 512 CURVE SMOOTH",
"142 512 OFFCURVE",
"36 414 OFFCURVE",
"36 250 CURVE SMOOTH",
"36 88 OFFCURVE",
"116 -12 OFFCURVE",
"240 -12 CURVE SMOOTH"
);
},
{
closed = 1;
nodes = (
"240 128 OFFCURVE",
"212 162 OFFCURVE",
"212 252 CURVE SMOOTH",
"212 340 OFFCURVE",
"246 372 OFFCURVE",
"282 372 CURVE SMOOTH",
"304 372 OFFCURVE",
"330 366 OFFCURVE",
"350 348 CURVE",
"350 164 LINE",
"332 136 OFFCURVE",
"312 128 OFFCURVE",
"286 128 CURVE SMOOTH"
);
}
);
width = 580;
}
);
leftKerningGroup = LAT_O_LC_RIGHT;
rightKerningGroup = LAT_U_LC_LEFT;
userData = {
com.typemytype.robofont.mark = (
0.8,
0.8,
0.6,
1
);
};
},
{
color = (204,204,153,1);
glyphname = oopen;
lastChange = "2015-11-05 20:56:23 +0000";
layers = (
{
anchors = (
{
name = aboveLC;
position = "{223, 500}";
},
{
name = baseLC;
position = "{223, 0}";
},
{
name = belowLC;
position = "{223, -20}";
}
);
layerId = "786F3AE7-681A-4E36-83D7-614DB6CCA2F0";
name = Regular;
paths = (
{
closed = 1;
nodes = (
"298 -12 OFFCURVE",
"392 80 OFFCURVE",
"392 238 CURVE SMOOTH",
"392 400 OFFCURVE",
"296 490 OFFCURVE",
"190 490 CURVE SMOOTH",
"114 490 OFFCURVE",
"74 462 OFFCURVE",
"38 430 CURVE",
"58 408 LINE",
"92 440 OFFCURVE",
"130 462 OFFCURVE",
"188 462 CURVE SMOOTH",
"284 462 OFFCURVE",
"360 372 OFFCURVE",
"360 238 CURVE SMOOTH",
"360 106 OFFCURVE",
"286 16 OFFCURVE",
"178 16 CURVE SMOOTH",
"124 16 OFFCURVE",
"78 42 OFFCURVE",
"44 74 CURVE",
"26 52 LINE",
"66 16 OFFCURVE",
"116 -12 OFFCURVE",
"178 -12 CURVE SMOOTH"
);
}
);
width = 446;
},
{
anchors = (
{
name = aboveLC;
position = "{236, 520}";
},
{
name = baseLC;
position = "{236, 0}";
},
{
name = belowLC;
position = "{236, -20}";
}
);
layerId = "A57419AF-C607-4C6D-867D-F9F312359F5B";
name = Bold;
paths = (
{
closed = 1;
nodes = (
"328 -12 OFFCURVE",
"440 84 OFFCURVE",
"440 250 CURVE SMOOTH",
"440 418 OFFCURVE",
"326 512 OFFCURVE",
"192 512 CURVE SMOOTH",
"124 512 OFFCURVE",
"64 490 OFFCURVE",
"26 460 CURVE",
"106 350 LINE",
"128 368 OFFCURVE",
"144 374 OFFCURVE",
"172 374 CURVE SMOOTH",
"226 374 OFFCURVE",
"264 326 OFFCURVE",
"264 250 CURVE SMOOTH",
"264 174 OFFCURVE",
"222 126 OFFCURVE",
"168 126 CURVE SMOOTH",
"140 126 OFFCURVE",
"112 140 OFFCURVE",
"88 158 CURVE",
"22 46 LINE",
"72 2 OFFCURVE",
"136 -12 OFFCURVE",
"188 -12 CURVE SMOOTH"
);
}
);
width = 472;
}
);
rightKerningGroup = LAT_O_LC_LEFT;
unicode = 0254;
userData = {
com.typemytype.robofont.mark = (
0.8,
0.8,
0.6,
1
);
};
},
{
color = (204,204,153,1);
glyphname = schwa;
lastChange = "2015-11-05 20:56:23 +0000";
layers = (
{
anchors = (
{
name = aboveLC;
position = "{232, 500}";
},
{
name = baseLC;
position = "{239, 0}";
},
{
name = belowLC;
position = "{230, -20}";
},
{
name = ogonekLC;
position = "{230, 0}";
}
);
layerId = "786F3AE7-681A-4E36-83D7-614DB6CCA2F0";
name = Regular;
paths = (
{
closed = 1;
nodes = (
"342 -12 OFFCURVE",
"424 84 OFFCURVE",
"424 240 CURVE SMOOTH",
"424 400 OFFCURVE",
"340 490 OFFCURVE",
"224 490 CURVE SMOOTH",
"152 490 OFFCURVE",
"106 466 OFFCURVE",
"68 440 CURVE",
"82 414 LINE",
"121 442 OFFCURVE",
"164 462 OFFCURVE",
"222 462 CURVE SMOOTH",
"330 462 OFFCURVE",
"392 370 OFFCURVE",
"392 252 CURVE",
"40 252 LINE",
"38 240 OFFCURVE",
"38 228 OFFCURVE",
"38 218 CURVE SMOOTH",
"38 66 OFFCURVE",
"120 -12 OFFCURVE",
"228 -12 CURVE SMOOTH"
);
},
{
closed = 1;
nodes = (
"136 16 OFFCURVE",
"68 80 OFFCURVE",
"68 224 CURVE",
"392 224 LINE",
"383 96 OFFCURVE",
"324 16 OFFCURVE",
"228 16 CURVE SMOOTH"
);
}
);
width = 478;
},
{
anchors = (
{
name = aboveLC;
position = "{260, 520}";
},
{
name = baseLC;
position = "{263, 0}";
},
{
name = belowLC;
position = "{258, -20}";
},
{
name = ogonekLC;
position = "{258, 0}";
}
);
layerId = "A57419AF-C607-4C6D-867D-F9F312359F5B";
name = Bold;
paths = (
{
closed = 1;
nodes = (
"380 -12 OFFCURVE",
"494 88 OFFCURVE",
"494 250 CURVE SMOOTH",
"494 412 OFFCURVE",
"390 512 OFFCURVE",
"256 512 CURVE SMOOTH",
"196 512 OFFCURVE",
"125 500 OFFCURVE",
"68 462 CURVE",
"124 352 LINE",
"158 372 OFFCURVE",
"192 382 OFFCURVE",
"226 382 CURVE SMOOTH",
"278 382 OFFCURVE",
"314 362 OFFCURVE",
"328 302 CURVE",
"43 302 LINE",
"40 290 OFFCURVE",
"36 260 OFFCURVE",
"36 230 CURVE SMOOTH",
"36 96 OFFCURVE",
"106 -12 OFFCURVE",
"254 -12 CURVE SMOOTH"
);
},
{
closed = 1;
nodes = (
"198 118 OFFCURVE",
"182 152 OFFCURVE",
"182 190 CURVE",
"330 190 LINE",
"320 136 OFFCURVE",
"288 118 OFFCURVE",
"250 118 CURVE SMOOTH"
);
}
);
width = 526;
}
);
leftKerningGroup = LAT_SCHWA_LC_RIGHT;
rightKerningGroup = LAT_O_LC_LEFT;
unicode = 0259;
userData = {
com.typemytype.robofont.mark = (
0.8,
0.8,
0.6,
1
);
};
},
{
color = (204,204,153,1);
glyphname = eopen;
lastChange = "2015-11-05 20:56:23 +0000";
layers = (
{
anchors = (
{
name = aboveLC;
position = "{230, 500}";
},
{
name = baseLC;
position = "{211, 0}";
},
{
name = belowLC;
position = "{246, -20}";
}
);
layerId = "786F3AE7-681A-4E36-83D7-614DB6CCA2F0";
name = Regular;
paths = (
{
closed = 1;
nodes = (
"302 -12 OFFCURVE",
"348 6 OFFCURVE",
"400 47 CURVE",
"383 71 LINE",
"334 32 OFFCURVE",
"294 16 OFFCURVE",
"238 16 CURVE SMOOTH",
"148 16 OFFCURVE",
"86 60 OFFCURVE",
"86 129 CURVE SMOOTH",
"86 197 OFFCURVE",
"146 238 OFFCURVE",
"248 238 CURVE",
"306 238 LINE",
"306 266 LINE",
"262 266 LINE",
"159 266 OFFCURVE",
"114 310 OFFCURVE",
"114 366 CURVE SMOOTH",
"114 432 OFFCURVE",
"171 462 OFFCURVE",
"236 462 CURVE SMOOTH",
"284 462 OFFCURVE",
"321 444 OFFCURVE",
"360 416 CURVE",
"376 439 LINE",
"339 470 OFFCURVE",
"296 490 OFFCURVE",
"238 490 CURVE SMOOTH",
"154 490 OFFCURVE",
"82 448 OFFCURVE",
"82 368 CURVE SMOOTH",
"82 318 OFFCURVE",
"114 276 OFFCURVE",
"164 256 CURVE",
"164 252 LINE",
"112 238 OFFCURVE",
"54 200 OFFCURVE",
"54 128 CURVE SMOOTH",
"54 46 OFFCURVE",
"126 -12 OFFCURVE",
"234 -12 CURVE SMOOTH"
);
}
);
width = 422;
},
{
anchors = (
{
name = aboveLC;
position = "{268, 520}";
},
{
name = baseLC;
position = "{235, 0}";
},
{
name = belowLC;
position = "{256, -20}";
}
);
layerId = "A57419AF-C607-4C6D-867D-F9F312359F5B";
name = Bold;
paths = (
{
closed = 1;
nodes = (
"337 -12 OFFCURVE",
"390 -2 OFFCURVE",
"452 36 CURVE",
"386 144 LINE",
"352 126 OFFCURVE",
"317 118 OFFCURVE",
"293 118 CURVE SMOOTH",
"246 118 OFFCURVE",
"212 134 OFFCURVE",
"212 162 CURVE SMOOTH",
"212 190 OFFCURVE",
"229 198 OFFCURVE",
"270 198 CURVE",
"359 198 LINE",
"359 310 LINE",
"286 310 LINE",
"252 310 OFFCURVE",
"234 318 OFFCURVE",
"234 342 CURVE SMOOTH",
"234 364 OFFCURVE",
"252 382 OFFCURVE",
"288 382 CURVE SMOOTH",
"322 382 OFFCURVE",
"348 374 OFFCURVE",
"380 358 CURVE",
"442 468 LINE",
"390 498 OFFCURVE",
"336 512 OFFCURVE",
"278 512 CURVE SMOOTH",
"166 512 OFFCURVE",
"66 469 OFFCURVE",
"66 366 CURVE SMOOTH",
"66 328 OFFCURVE",
"90 282 OFFCURVE",
"147 266 CURVE",
"147 262 LINE",
"84 246 OFFCURVE",
"44 210 OFFCURVE",
"44 144 CURVE SMOOTH",
"44 40 OFFCURVE",
"162 -12 OFFCURVE",
"276 -12 CURVE SMOOTH"
);
}
);
width = 470;
}
);
unicode = 025B;
userData = {
com.typemytype.robofont.mark = (
0.8,
0.8,
0.6,
1
);
};
},
{
glyphname = gscript;
lastChange = "2015-11-05 20:56:23 +0000";
layers = (
{
anchors = (
{
name = aboveLC;
position = "{274, 500}";
},
{
name = belowLC;
position = "{260, -230}";
}
);
layerId = "786F3AE7-681A-4E36-83D7-614DB6CCA2F0";
name = Regular;
paths = (
{
closed = 1;
nodes = (
"376 -234 OFFCURVE",
"444 -160 OFFCURVE",
"444 -48 CURVE SMOOTH",
"444 478 LINE",
"416 478 LINE",
"412 434 LINE",
"410 434 LINE",
"366 468 OFFCURVE",
"326 490 OFFCURVE",
"268 490 CURVE SMOOTH",
"152 490 OFFCURVE",
"54 396 OFFCURVE",
"54 244 CURVE SMOOTH",
"54 84 OFFCURVE",
"132 -2 OFFCURVE",
"252 -2 CURVE SMOOTH",
"318 -2 OFFCURVE",
"374 35 OFFCURVE",
"414 76 CURVE",
"414 -40 LINE",
"414 -144 OFFCURVE",
"360 -207 OFFCURVE",
"258 -207 CURVE SMOOTH",
"206 -207 OFFCURVE",
"156 -192 OFFCURVE",
"108 -156 CURVE",
"92 -182 LINE",
"138 -214 OFFCURVE",
"192 -234 OFFCURVE",
"258 -234 CURVE SMOOTH"
);
},
{
closed = 1;
nodes = (
"146 26 OFFCURVE",
"86 114 OFFCURVE",
"86 244 CURVE SMOOTH",
"86 366 OFFCURVE",
"164 462 OFFCURVE",
"266 462 CURVE SMOOTH",
"316 462 OFFCURVE",
"360 444 OFFCURVE",
"414 396 CURVE",
"414 110 LINE",
"360 56 OFFCURVE",
"310 26 OFFCURVE",
"254 26 CURVE SMOOTH"
);
}
);
width = 540;
},
{
anchors = (
{
name = aboveLC;
position = "{310, 520}";
},
{
name = belowLC;
position = "{310, -200}";
}
);
layerId = "A57419AF-C607-4C6D-867D-F9F312359F5B";
name = Bold;
paths = (
{
closed = 1;
nodes = (
"432 -186 OFFCURVE",
"528 -116 OFFCURVE",
"528 16 CURVE SMOOTH",
"528 500 LINE",
"390 500 LINE",
"378 454 LINE",
"374 454 LINE",
"338 496 OFFCURVE",
"298 512 OFFCURVE",
"250 512 CURVE SMOOTH",
"148 512 OFFCURVE",
"42 412 OFFCURVE",
"42 260 CURVE SMOOTH",
"42 120 OFFCURVE",
"122 16 OFFCURVE",
"246 16 CURVE SMOOTH",
"288 16 OFFCURVE",
"329 32 OFFCURVE",
"360 60 CURVE",
"356 10 LINE",
"350 -25 OFFCURVE",
"328 -52 OFFCURVE",
"262 -52 CURVE SMOOTH",
"224 -52 OFFCURVE",
"174 -42 OFFCURVE",
"128 -18 CURVE",
"72 -130 LINE",
"132 -168 OFFCURVE",
"210 -186 OFFCURVE",
"262 -186 CURVE SMOOTH"
);
},
{
closed = 1;
nodes = (
"246 154 OFFCURVE",
"216 191 OFFCURVE",
"216 262 CURVE SMOOTH",
"216 337 OFFCURVE",
"250 372 OFFCURVE",
"288 372 CURVE SMOOTH",
"310 372 OFFCURVE",
"336 366 OFFCURVE",
"356 348 CURVE",
"356 192 LINE",
"336 162 OFFCURVE",
"318 154 OFFCURVE",
"292 154 CURVE SMOOTH"
);
}
);
width = 592;
}
);
leftKerningGroup = LAT_O_LC_RIGHT;
rightKerningGroup = LAT_U_LC_LEFT;
unicode = 210A;
},
{
glyphname = gammalatin;
lastChange = "2015-11-05 11:32:42 +0000";
layers = (
{
anchors = (
{
name = aboveLC;
position = "{212, 500}";
},
{
name = belowLC;
position = "{212, -20}";
}
);
layerId = "786F3AE7-681A-4E36-83D7-614DB6CCA2F0";
name = Regular;
paths = (
{
closed = 1;
nodes = (
"230 20 LINE",
"410 478 LINE",
"378 478 LINE",
"264 178 LINE",
"248 132 OFFCURVE",
"230 94 OFFCURVE",
"214 52 CURVE",
"210 52 LINE",
"194 94 OFFCURVE",
"176 132 OFFCURVE",
"160 178 CURVE",
"46 478 LINE",
"12 478 LINE",
"194 20 LINE"
);
},
{
closed = 1;
nodes = (
"264 -234 OFFCURVE",
"288 -196 OFFCURVE",
"288 -142 CURVE SMOOTH",
"288 -97 OFFCURVE",
"264 -46 OFFCURVE",
"230 32 CURVE",
"193 32 LINE",
"160 -46 OFFCURVE",
"136 -97 OFFCURVE",
"136 -142 CURVE SMOOTH",
"136 -196 OFFCURVE",
"160 -234 OFFCURVE",
"212 -234 CURVE SMOOTH"
);
},
{
closed = 1;
nodes = (
"180 -206 OFFCURVE",
"168 -178 OFFCURVE",
"168 -144 CURVE SMOOTH",
"168 -106 OFFCURVE",
"186 -48 OFFCURVE",
"210 0 CURVE",
"214 0 LINE",
"238 -48 OFFCURVE",
"256 -102 OFFCURVE",
"256 -144 CURVE SMOOTH",
"256 -178 OFFCURVE",
"244 -206 OFFCURVE",
"212 -206 CURVE SMOOTH"
);
}
);
width = 422;
},
{
anchors = (
{
name = aboveLC;
position = "{274, 520}";
},
{
name = belowLC;
position = "{274, -20}";
}
);
layerId = "A57419AF-C607-4C6D-867D-F9F312359F5B";
name = Bold;
paths = (
{
closed = 1;
nodes = (
"374 69 LINE",
"532 500 LINE",
"368 500 LINE",
"314 312 LINE",
"302 270 OFFCURVE",
"290 241 OFFCURVE",
"278 195 CURVE",
"274 195 LINE",
"262 241 OFFCURVE",
"250 270 OFFCURVE",
"238 312 CURVE",
"184 500 LINE",
"12 500 LINE",
"176 69 LINE"
);
},
{
closed = 1;
nodes = (
"258 -100 OFFCURVE",
"244 -86 OFFCURVE",
"244 -62 CURVE SMOOTH",
"244 -37 OFFCURVE",
"252 -12 OFFCURVE",
"272 30 CURVE",
"277 30 LINE",
"300 -12 OFFCURVE",
"308 -37 OFFCURVE",
"308 -62 CURVE SMOOTH",
"308 -86 OFFCURVE",
"294 -100 OFFCURVE",
"276 -100 CURVE SMOOTH"
);
},
{
closed = 1;
nodes = (
"378 -206 OFFCURVE",
"446 -144 OFFCURVE",
"446 -50 CURVE SMOOTH",
"446 14 OFFCURVE",
"414 56 OFFCURVE",
"358 152 CURVE",
"194 152 LINE",
"138 56 OFFCURVE",
"106 14 OFFCURVE",
"106 -50 CURVE SMOOTH",
"106 -144 OFFCURVE",
"174 -206 OFFCURVE",
"276 -206 CURVE SMOOTH"
);
}
);
width = 544;
}
);
leftKerningGroup = LAT_Y_LC_RIGHT;
rightKerningGroup = LAT_Y_LC_LEFT;
},
{
glyphname = ismall;
lastChange = "2015-11-05 11:32:41 +0000";
layers = (
{
anchors = (
{
name = aboveLC;
position = "{150, 500}";
},
{
name = belowLC;
position = "{150, -20}";
},
{
name = ogonekUC;
position = "{124, 0}";
}
);
layerId = "786F3AE7-681A-4E36-83D7-614DB6CCA2F0";
name = Regular;
paths = (
{
closed = 1;
nodes = (
"256 0 LINE",
"256 28 LINE",
"164 28 LINE",
"164 450 LINE",
"256 450 LINE",
"256 478 LINE",
"42 478 LINE",
"42 450 LINE",
"134 450 LINE",
"134 28 LINE",
"42 28 LINE",
"42 0 LINE"
);
}
);
width = 298;
},
{
anchors = (
{
name = aboveLC;
position = "{208, 520}";
},
{
name = belowLC;
position = "{208, -20}";
},
{
name = ogonekUC;
position = "{190, 0}";
}
);
layerId = "A57419AF-C607-4C6D-867D-F9F312359F5B";
name = Bold;
paths = (
{
closed = 1;
nodes = (
"362 0 LINE",
"362 134 LINE",
"294 134 LINE",
"294 366 LINE",
"362 366 LINE",
"362 500 LINE",
"54 500 LINE",
"54 366 LINE",
"122 366 LINE",
"122 134 LINE",
"54 134 LINE",
"54 0 LINE"
);
}
);
width = 416;
}
);
},
{
color = (204,204,153,1);
glyphname = rsmall;
lastChange = "2015-11-05 11:32:42 +0000";
layers = (
{
anchors = (
{
name = aboveLC;
position = "{233, 500}";
},
{
name = aboveUC;
position = "{248, 500}";
},
{
name = belowLC;
position = "{270, -20}";
}
);
layerId = "786F3AE7-681A-4E36-83D7-614DB6CCA2F0";
name = Regular;
paths = (
{
closed = 1;
nodes = (
"126 0 LINE",
"126 216 LINE",
"250 216 LINE",
"338 216 OFFCURVE",
"409 256 OFFCURVE",
"409 350 CURVE SMOOTH",
"409 444 OFFCURVE",
"340 478 OFFCURVE",
"242 478 CURVE SMOOTH",
"96 478 LINE",
"96 0 LINE"
);
},
{
closed = 1;
nodes = (
"420 0 LINE",
"268 230 LINE",
"244 218 LINE",
"386 0 LINE"
);
},
{
closed = 1;
nodes = (
"126 450 LINE",
"232 450 LINE SMOOTH",
"321 450 OFFCURVE",
"377 421 OFFCURVE",
"377 350 CURVE SMOOTH",
"377 279 OFFCURVE",
"321 244 OFFCURVE",
"232 244 CURVE SMOOTH",
"126 244 LINE"
);
}
);
width = 466;
},
{
anchors = (
{
name = aboveLC;
position = "{273, 520}";
},
{
name = aboveUC;
position = "{272, 520}";
},
{
name = belowLC;
position = "{292, -20}";
}
);
layerId = "A57419AF-C607-4C6D-867D-F9F312359F5B";
name = Bold;
paths = (
{
closed = 1;
nodes = (
"230 0 LINE",
"230 150 LINE",
"272 150 LINE",
"368 150 OFFCURVE",
"488 198 OFFCURVE",
"488 328 CURVE SMOOTH",
"488 458 OFFCURVE",
"392 500 OFFCURVE",
"275 500 CURVE SMOOTH",
"58 500 LINE",
"58 0 LINE"
);
},
{
closed = 1;
nodes = (
"538 0 LINE",
"385 242 LINE",
"244 196 LINE",
"347 0 LINE"
);
},
{
closed = 1;
nodes = (
"230 375 LINE",
"255 375 LINE SMOOTH",
"299 375 OFFCURVE",
"319 357 OFFCURVE",
"319 323 CURVE SMOOTH",
"319 290 OFFCURVE",
"299 265 OFFCURVE",
"255 265 CURVE SMOOTH",
"230 265 LINE"
);
}
);
width = 546;
}
);
leftKerningGroup = LAT_N_LC_RIGHT;
userData = {
com.typemytype.robofont.mark = (
0.8,
0.8,
0.6,
1
);
};
},
{
color = (204,204,153,1);
glyphname = rsmallinverted;
lastChange = "2015-11-05 11:32:42 +0000";
layers = (
{
anchors = (
{
name = aboveLC;
position = "{233, 500}";
},
{
name = aboveUC;
position = "{248, 500}";
},
{
name = belowLC;
position = "{270, -20}";
}
);
layerId = "786F3AE7-681A-4E36-83D7-614DB6CCA2F0";
name = Regular;
paths = (
{
closed = 1;
nodes = (
"370 0 LINE",
"370 478 LINE",
"340 478 LINE",
"340 266 LINE",
"216 266 LINE",
"128 266 OFFCURVE",
"57 224 OFFCURVE",
"57 130 CURVE SMOOTH",
"57 36 OFFCURVE",
"126 0 OFFCURVE",
"224 0 CURVE SMOOTH"
);
},
{
closed = 1;
nodes = (
"145 28 OFFCURVE",
"89 59 OFFCURVE",
"89 130 CURVE SMOOTH",
"89 201 OFFCURVE",
"145 238 OFFCURVE",
"234 238 CURVE SMOOTH",
"340 238 LINE",
"340 28 LINE",
"234 28 LINE SMOOTH"
);
},
{
closed = 1;
nodes = (
"222 264 LINE",
"80 478 LINE",
"46 478 LINE",
"198 252 LINE"
);
}
);
width = 466;
},
{
anchors = (
{
name = aboveLC;
position = "{273, 520}";
},
{
name = aboveUC;
position = "{273, 564}";
},
{
name = belowLC;
position = "{273, -20}";
}
);
layerId = "A57419AF-C607-4C6D-867D-F9F312359F5B";
name = Bold;
paths = (
{
closed = 1;
nodes = (
"488 0 LINE",
"488 500 LINE",
"316 500 LINE",
"316 350 LINE",
"274 350 LINE",
"178 350 OFFCURVE",
"58 302 OFFCURVE",
"58 172 CURVE SMOOTH",
"58 42 OFFCURVE",
"154 0 OFFCURVE",
"271 0 CURVE SMOOTH"
);
},
{
closed = 1;
nodes = (
"247 125 OFFCURVE",
"227 143 OFFCURVE",
"227 177 CURVE SMOOTH",
"227 210 OFFCURVE",
"247 235 OFFCURVE",
"291 235 CURVE SMOOTH",
"316 235 LINE",
"316 125 LINE",
"291 125 LINE SMOOTH"
);
},
{
closed = 1;
nodes = (
"302 304 LINE",
"199 500 LINE",
"8 500 LINE",
"161 258 LINE"
);
}
);
width = 546;
}
);
rightKerningGroup = LAT_U_LC_LEFT;
userData = {
com.typemytype.robofont.mark = (
0.8,
0.8,
0.6,
1
);
};
},
{
color = (204,204,153,1);
glyphname = esh;
lastChange = "2015-11-05 20:56:23 +0000";
layers = (
{
anchors = (
{
name = aboveUC;
position = "{111, 730}";
},
{
name = belowLC;
position = "{111, -20}";
}
);
layerId = "786F3AE7-681A-4E36-83D7-614DB6CCA2F0";
name = Regular;
paths = (
{
closed = 1;
nodes = (
"94 -234 OFFCURVE",
"126 -194 OFFCURVE",
"126 -102 CURVE SMOOTH",
"126 600 LINE SMOOTH",
"126 662 OFFCURVE",
"138 708 OFFCURVE",
"202 708 CURVE SMOOTH",
"218 708 OFFCURVE",
"234 702 OFFCURVE",
"244 698 CURVE",
"252 724 LINE",
"240 730 OFFCURVE",
"221 736 OFFCURVE",
"204 736 CURVE SMOOTH",
"131 736 OFFCURVE",
"96 696 OFFCURVE",
"96 604 CURVE SMOOTH",
"96 -98 LINE",
"96 -160 OFFCURVE",
"86 -206 OFFCURVE",
"30 -206 CURVE SMOOTH",
"10 -206 OFFCURVE",
"-10 -200 OFFCURVE",
"-22 -196 CURVE",
"-30 -222 LINE",
"-16 -228 OFFCURVE",
"8 -234 OFFCURVE",
"28 -234 CURVE SMOOTH"
);
}
);
width = 222;
},
{
anchors = (
{
name = aboveUC;
position = "{145, 730}";
},
{
name = belowLC;
position = "{145, -20}";
}
);
layerId = "A57419AF-C607-4C6D-867D-F9F312359F5B";
name = Bold;
paths = (
{
closed = 1;
nodes = (
"188 -188 OFFCURVE",
"232 -86 OFFCURVE",
"232 26 CURVE SMOOTH",
"232 500 LINE SMOOTH",
"232 554 OFFCURVE",
"249 574 OFFCURVE",
"292 574 CURVE SMOOTH",
"301 574 OFFCURVE",
"308 572 OFFCURVE",
"318 568 CURVE",
"348 694 LINE",
"328 702 OFFCURVE",
"305 708 OFFCURVE",
"264 708 CURVE SMOOTH",
"106 708 OFFCURVE",
"60 606 OFFCURVE",
"60 494 CURVE SMOOTH",
"60 20 LINE",
"60 -34 OFFCURVE",
"46 -54 OFFCURVE",
"10 -54 CURVE SMOOTH",
"-2 -54 OFFCURVE",
"-12 -52 OFFCURVE",
"-26 -48 CURVE",
"-56 -174 LINE",
"-34 -182 OFFCURVE",
"-8 -188 OFFCURVE",
"38 -188 CURVE SMOOTH"
);
}
);
width = 290;
}
);
leftKerningGroup = LAT_J_LC_RIGHT;
unicode = 0283;
userData = {
com.typemytype.robofont.mark = (
0.8,
0.8,
0.6,
1
);
};
},
{
glyphname = upsilonlatin;
lastChange = "2015-11-05 11:32:41 +0000";
layers = (
{
anchors = (
{
name = aboveLC;
position = "{264, 500}";
},
{
name = belowLC;
position = "{264, -20}";
}
);
layerId = "786F3AE7-681A-4E36-83D7-614DB6CCA2F0";
name = Regular;
paths = (
{
closed = 1;
nodes = (
"396 -12 OFFCURVE",
"472 96 OFFCURVE",
"472 216 CURVE SMOOTH",
"472 330 OFFCURVE",
"420 406 OFFCURVE",
"374 448 CURVE",
"374 450 LINE",
"484 450 LINE",
"484 478 LINE",
"322 478 LINE",
"322 458 LINE",
"388 414 OFFCURVE",
"440 334 OFFCURVE",
"440 222 CURVE SMOOTH",
"440 114 OFFCURVE",
"378 16 OFFCURVE",
"264 16 CURVE",
"150 16 OFFCURVE",
"88 114 OFFCURVE",
"88 222 CURVE SMOOTH",
"88 334 OFFCURVE",
"140 414 OFFCURVE",
"206 458 CURVE",
"206 478 LINE",
"44 478 LINE",
"44 450 LINE",
"154 450 LINE",
"154 448 LINE",
"108 406 OFFCURVE",
"56 330 OFFCURVE",
"56 216 CURVE SMOOTH",
"56 96 OFFCURVE",
"132 -12 OFFCURVE",
"264 -12 CURVE"
);
}
);
width = 528;
},
{
anchors = (
{
name = aboveLC;
position = "{282, 520}";
},
{
name = belowLC;
position = "{282, -20}";
}
);
layerId = "A57419AF-C607-4C6D-867D-F9F312359F5B";
name = Bold;
paths = (
{
closed = 1;
nodes = (
"439 -12 OFFCURVE",
"528 95 OFFCURVE",
"528 198 CURVE SMOOTH",
"528 270 OFFCURVE",
"496 328 OFFCURVE",
"462 363 CURVE",
"462 366 LINE",
"538 366 LINE",
"538 500 LINE",
"313 500 LINE",
"313 389 LINE",
"344 342 OFFCURVE",
"356 304 OFFCURVE",
"356 235 CURVE SMOOTH",
"356 172 OFFCURVE",
"334 126 OFFCURVE",
"282 126 CURVE",
"230 126 OFFCURVE",
"208 172 OFFCURVE",
"208 235 CURVE SMOOTH",
"208 304 OFFCURVE",
"220 342 OFFCURVE",
"251 389 CURVE",
"251 500 LINE",
"26 500 LINE",
"26 366 LINE",
"102 366 LINE",
"102 363 LINE",
"68 328 OFFCURVE",
"36 270 OFFCURVE",
"36 198 CURVE SMOOTH",
"36 95 OFFCURVE",
"125 -12 OFFCURVE",
"282 -12 CURVE"
);
}
);
width = 564;
}
);
},
{
color = (204,204,153,1);
glyphname = yturned;
lastChange = "2015-11-05 20:56:23 +0000";
layers = (
{
anchors = (
{
name = aboveLC;
position = "{224, 500}";
},
{
name = aboveUC;
position = "{212, 730}";
},
{
name = belowLC;
position = "{220, -20}";
}
);
layerId = "786F3AE7-681A-4E36-83D7-614DB6CCA2F0";
name = Regular;
paths = (
{
closed = 1;
nodes = (
"44 0 LINE",
"152 314 LINE SMOOTH",
"166 354 OFFCURVE",
"182 406 OFFCURVE",
"198 448 CURVE",
"202 448 LINE",
"220 406 OFFCURVE",
"240 354 OFFCURVE",
"256 314 CURVE SMOOTH",
"378 0 LINE",
"412 0 LINE",
"214 490 LINE",
"240 568 LINE SMOOTH",
"266 646 OFFCURVE",
"308 704 OFFCURVE",
"368 704 CURVE SMOOTH",
"382 704 OFFCURVE",
"398 700 OFFCURVE",
"408 696 CURVE",
"416 724 LINE",
"404 730 OFFCURVE",
"386 734 OFFCURVE",
"370 734 CURVE SMOOTH",
"288 734 OFFCURVE",
"240 654 OFFCURVE",
"216 580 CURVE",
"12 0 LINE"
);
}
);
width = 424;
},
{
anchors = (
{
name = aboveLC;
position = "{276, 520}";
},
{
name = aboveUC;
position = "{271, 730}";
},
{
name = belowLC;
position = "{272, -20}";
}
);
layerId = "A57419AF-C607-4C6D-867D-F9F312359F5B";
name = Bold;
paths = (
{
closed = 1;
nodes = (
"176 0 LINE",
"226 192 LINE SMOOTH",
"238 240 OFFCURVE",
"248 286 OFFCURVE",
"258 334 CURVE",
"262 334 LINE",
"274 284 OFFCURVE",
"284 238 OFFCURVE",
"298 192 CURVE SMOOTH",
"358 0 LINE",
"530 0 LINE",
"340 482 LINE",
"354 524 LINE SMOOTH",
"364 554 OFFCURVE",
"386 574 OFFCURVE",
"432 574 CURVE SMOOTH",
"442 574 OFFCURVE",
"455 570 OFFCURVE",
"464 568 CURVE",
"494 698 LINE",
"472 704 OFFCURVE",
"452 708 OFFCURVE",
"418 708 CURVE SMOOTH",
"294 708 OFFCURVE",
"240 647 OFFCURVE",
"188 512 CURVE",
"12 0 LINE"
);
}
);
width = 542;
}
);
unicode = 028E;
userData = {
com.typemytype.robofont.mark = (
0.8,
0.8,
0.6,
1
);
};
},
{
color = (204,204,153,1);
glyphname = ezh;
lastChange = "2015-11-05 20:56:23 +0000";
layers = (
{
anchors = (
{
name = aboveLC;
position = "{174, 515}";
},
{
name = belowLC;
position = "{198, -20}";
}
);
layerId = "786F3AE7-681A-4E36-83D7-614DB6CCA2F0";
name = Regular;
paths = (
{
closed = 1;
nodes = (
"285 -234 OFFCURVE",
"380 -158 OFFCURVE",
"380 -22 CURVE SMOOTH",
"380 106 OFFCURVE",
"286 194 OFFCURVE",
"140 162 CURVE",
"360 462 LINE",
"360 478 LINE",
"48 478 LINE",
"48 450 LINE",
"320 450 LINE",
"96 146 LINE",
"116 120 LINE",
"140 132 OFFCURVE",
"154 140 OFFCURVE",
"184 140 CURVE SMOOTH",
"292 140 OFFCURVE",
"348 77 OFFCURVE",
"348 -24 CURVE SMOOTH",
"348 -132 OFFCURVE",
"275 -206 OFFCURVE",
"192 -206 CURVE SMOOTH",
"105 -206 OFFCURVE",
"58 -172 OFFCURVE",
"22 -137 CURVE",
"2 -159 LINE",
"40 -194 OFFCURVE",
"93 -234 OFFCURVE",
"190 -234 CURVE SMOOTH"
);
}
);
width = 396;
},
{
anchors = (
{
name = aboveLC;
position = "{210, 527}";
},
{
name = belowLC;
position = "{237, -20}";
}
);
layerId = "A57419AF-C607-4C6D-867D-F9F312359F5B";
name = Bold;
paths = (
{
closed = 1;
nodes = (
"345 -188 OFFCURVE",
"452 -104 OFFCURVE",
"452 44 CURVE SMOOTH",
"452 143 OFFCURVE",
"396 218 OFFCURVE",
"294 235 CURVE",
"428 408 LINE",
"428 500 LINE",
"36 500 LINE",
"36 366 LINE",
"224 366 LINE",
"88 188 LINE",
"142 108 LINE",
"164 116 OFFCURVE",
"172 118 OFFCURVE",
"198 118 CURVE SMOOTH",
"246 118 OFFCURVE",
"280 90 OFFCURVE",
"280 40 CURVE SMOOTH",
"280 -18 OFFCURVE",
"246 -50 OFFCURVE",
"194 -50 CURVE SMOOTH",
"152 -50 OFFCURVE",
"114 -28 OFFCURVE",
"82 0 CURVE",
"6 -106 LINE",
"54 -152 OFFCURVE",
"121 -188 OFFCURVE",
"216 -188 CURVE SMOOTH"
);
}
);
width = 474;
}
);
rightKerningGroup = LAT_EZH_LC_LEFT;
unicode = 0292;
userData = {
com.typemytype.robofont.mark = (
0.8,
0.8,
0.6,
1
);
};
},
{
color = (204,204,153,1);
glyphname = glottalstop;
lastChange = "2015-11-05 20:56:23 +0000";
layers = (
{
anchors = (
{
name = aboveUC;
position = "{196, 730}";
},
{
name = belowLC;
position = "{196, -20}";
}
);
layerId = "786F3AE7-681A-4E36-83D7-614DB6CCA2F0";
name = Regular;
paths = (
{
closed = 1;
nodes = (
"190 0 LINE",
"190 308 LINE",
"294 370 OFFCURVE",
"370 434 OFFCURVE",
"370 552 CURVE SMOOTH",
"370 670 OFFCURVE",
"290 734 OFFCURVE",
"184 734 CURVE SMOOTH",
"92 734 OFFCURVE",
"38 688 OFFCURVE",
"2 648 CURVE",
"22 626 LINE",
"56 666 OFFCURVE",
"104 706 OFFCURVE",
"186 706 CURVE SMOOTH",
"284 706 OFFCURVE",
"338 644 OFFCURVE",
"338 554 CURVE SMOOTH",
"338 454 OFFCURVE",
"278 392 OFFCURVE",
"160 330 CURVE",
"160 0 LINE"
);
}
);
width = 392;
},
{
anchors = (
{
name = aboveUC;
position = "{230, 730}";
},
{
name = belowLC;
position = "{230, -20}";
}
);
layerId = "A57419AF-C607-4C6D-867D-F9F312359F5B";
name = Bold;
paths = (
{
closed = 1;
nodes = (
"294 0 LINE",
"294 252 LINE",
"382 325 OFFCURVE",
"444 390 OFFCURVE",
"444 498 CURVE SMOOTH",
"444 639 OFFCURVE",
"336 708 OFFCURVE",
"212 708 CURVE SMOOTH",
"113 708 OFFCURVE",
"42 670 OFFCURVE",
"-8 618 CURVE",
"76 510 LINE",
"108 544 OFFCURVE",
"148 570 OFFCURVE",
"192 570 CURVE SMOOTH",
"240 570 OFFCURVE",
"272 543 OFFCURVE",
"272 490 CURVE SMOOTH",
"272 432 OFFCURVE",
"235 390 OFFCURVE",
"122 314 CURVE",
"122 0 LINE"
);
}
);
width = 460;
}
);
unicode = 0294;
userData = {
com.typemytype.robofont.mark = (
0.8,
0.8,
0.6,
1
);
};
},
{
color = (204,204,153,1);
glyphname = glottalstopreversed;
lastChange = "2015-11-05 20:56:23 +0000";
layers = (
{
anchors = (
{
name = aboveUC;
position = "{196, 730}";
},
{
name = belowLC;
position = "{196, -20}";
}
);
layerId = "786F3AE7-681A-4E36-83D7-614DB6CCA2F0";
name = Regular;
paths = (
{
closed = 1;
nodes = (
"232 0 LINE",
"232 330 LINE",
"114 392 OFFCURVE",
"54 454 OFFCURVE",
"54 554 CURVE SMOOTH",
"54 644 OFFCURVE",
"112 706 OFFCURVE",
"216 706 CURVE SMOOTH",
"293 706 OFFCURVE",
"338 666 OFFCURVE",
"370 626 CURVE",
"390 648 LINE",
"356 688 OFFCURVE",
"305 734 OFFCURVE",
"218 734 CURVE SMOOTH",
"106 734 OFFCURVE",
"22 670 OFFCURVE",
"22 552 CURVE SMOOTH",
"22 434 OFFCURVE",
"98 370 OFFCURVE",
"202 308 CURVE",
"202 0 LINE"
);
}
);
width = 392;
},
{
anchors = (
{
name = aboveUC;
position = "{265, 730}";
},
{
name = belowLC;
position = "{265, -20}";
}
);
layerId = "A57419AF-C607-4C6D-867D-F9F312359F5B";
name = Bold;
paths = (
{
closed = 1;
nodes = (
"368 0 LINE",
"368 314 LINE",
"255 390 OFFCURVE",
"218 432 OFFCURVE",
"218 490 CURVE SMOOTH",
"218 543 OFFCURVE",
"254 570 OFFCURVE",
"308 570 CURVE SMOOTH",
"348 570 OFFCURVE",
"385 544 OFFCURVE",
"414 510 CURVE",
"498 618 LINE",
"450 670 OFFCURVE",
"382 708 OFFCURVE",
"288 708 CURVE SMOOTH",
"159 708 OFFCURVE",
"46 639 OFFCURVE",
"46 498 CURVE SMOOTH",
"46 390 OFFCURVE",
"108 325 OFFCURVE",
"196 252 CURVE",
"196 0 LINE"
);
}
);
width = 530;
}
);
unicode = 0295;
userData = {
com.typemytype.robofont.mark = (
0.8,
0.8,
0.6,
1
);
};
},
{
color = (255,119,77,1);
glyphname = dezh;
lastChange = "2015-11-05 20:56:23 +0000";
layers = (
{
anchors = (
{
name = aboveUC;
position = "{420, 730}";
},
{
name = belowLC;
position = "{292, -20}";
}
);
components = (
{
name = d;
},
{
name = ezh;
transform = "{1, 0, 0, 1, 448, 0}";
}
);
layerId = "786F3AE7-681A-4E36-83D7-614DB6CCA2F0";
name = Regular;
paths = (
{
closed = 1;
nodes = (
"522 450 LINE",
"522 478 LINE",
"437 478 LINE",
"437 450 LINE"
);
}
);
width = 844;
},
{
anchors = (
{
name = aboveUC;
position = "{478, 730}";
},
{
name = belowLC;
position = "{478, -20}";
}
);
components = (
{
name = ezh;
transform = "{1, 0, 0, 1, 482, 0}";
},
{
name = d;
}
);
layerId = "A57419AF-C607-4C6D-867D-F9F312359F5B";
name = Bold;
paths = (
{
closed = 1;
nodes = (
"646 366 LINE",
"646 500 LINE",
"411 500 LINE",
"411 366 LINE"
);
}
);
width = 956;
}
);
unicode = 02A4;
userData = {
com.typemytype.robofont.mark = (
1,
0.465,
0.3,
1
);
};
},
{
color = (255,0,0,1);
glyphname = ts;
lastChange = "2015-11-05 20:56:23 +0000";
layers = (
{
anchors = (
{
name = aboveUC;
position = "{151, 730}";
},
{
name = belowLC;
position = "{151, -20}";
}
);
layerId = "786F3AE7-681A-4E36-83D7-614DB6CCA2F0";
name = Regular;
paths = (
{
closed = 1;
nodes = (
"394 -234 OFFCURVE",
"426 -194 OFFCURVE",
"426 -102 CURVE SMOOTH",
"426 600 LINE SMOOTH",
"426 662 OFFCURVE",
"438 708 OFFCURVE",
"502 708 CURVE SMOOTH",
"518 708 OFFCURVE",
"534 702 OFFCURVE",
"544 698 CURVE",
"552 724 LINE",
"540 730 OFFCURVE",
"521 736 OFFCURVE",
"504 736 CURVE SMOOTH",
"431 736 OFFCURVE",
"396 696 OFFCURVE",
"396 604 CURVE SMOOTH",
"396 -98 LINE",
"396 -160 OFFCURVE",
"386 -206 OFFCURVE",
"330 -206 CURVE SMOOTH",
"310 -206 OFFCURVE",
"290 -200 OFFCURVE",
"278 -196 CURVE",
"270 -222 LINE",
"284 -228 OFFCURVE",
"308 -234 OFFCURVE",
"328 -234 CURVE SMOOTH"
);
},
{
closed = 1;
nodes = (
"234 -12 OFFCURVE",
"264 -4 OFFCURVE",
"292 6 CURVE",
"282 32 LINE",
"264 24 OFFCURVE",
"238 16 OFFCURVE",
"220 16 CURVE SMOOTH",
"150 16 OFFCURVE",
"136 60 OFFCURVE",
"136 122 CURVE SMOOTH",
"136 450 LINE",
"278 450 LINE",
"278 478 LINE",
"136 478 LINE",
"136 618 LINE",
"110 618 LINE",
"106 478 LINE",
"30 474 LINE",
"30 450 LINE",
"106 450 LINE",
"106 126 LINE SMOOTH",
"106 44 OFFCURVE",
"130 -12 OFFCURVE",
"218 -12 CURVE SMOOTH"
);
}
);
width = 302;
},
{
anchors = (
{
name = aboveUC;
position = "{344, 730}";
},
{
name = belowLC;
position = "{344, -20}";
}
);
components = (
{
name = s;
transform = "{1, 0, 0, 1, 360, 0}";
}
);
layerId = "A57419AF-C607-4C6D-867D-F9F312359F5B";
name = Bold;
paths = (
{
closed = 1;
nodes = (
"319 -12 OFFCURVE",
"356 -2 OFFCURVE",
"382 6 CURVE",
"356 130 LINE",
"344 126 OFFCURVE",
"328 122 OFFCURVE",
"312 122 CURVE SMOOTH",
"280 122 OFFCURVE",
"252 140 OFFCURVE",
"252 195 CURVE SMOOTH",
"252 366 LINE",
"366 366 LINE",
"366 500 LINE",
"252 500 LINE",
"252 630 LINE",
"110 630 LINE",
"90 500 LINE",
"14 494 LINE",
"14 366 LINE",
"80 366 LINE",
"80 192 LINE SMOOTH",
"80 70 OFFCURVE",
"134 -12 OFFCURVE",
"264 -12 CURVE SMOOTH"
);
}
);
width = 688;
}
);
unicode = 02A6;
userData = {
com.typemytype.robofont.mark = (
1,
0,
0,
1
);
};
},
{
color = (204,204,153,1);
glyphname = tesh;
lastChange = "2015-11-05 20:56:23 +0000";
layers = (
{
anchors = (
{
name = aboveUC;
position = "{151, 730}";
},
{
name = belowLC;
position = "{151, -20}";
}
);
layerId = "786F3AE7-681A-4E36-83D7-614DB6CCA2F0";
name = Regular;
paths = (
{
closed = 1;
nodes = (
"394 -234 OFFCURVE",
"426 -194 OFFCURVE",
"426 -102 CURVE SMOOTH",
"426 600 LINE SMOOTH",
"426 662 OFFCURVE",
"438 708 OFFCURVE",
"502 708 CURVE SMOOTH",
"518 708 OFFCURVE",
"534 702 OFFCURVE",
"544 698 CURVE",
"552 724 LINE",
"540 730 OFFCURVE",
"521 736 OFFCURVE",
"504 736 CURVE SMOOTH",
"431 736 OFFCURVE",
"396 696 OFFCURVE",
"396 604 CURVE SMOOTH",
"396 -98 LINE",
"396 -160 OFFCURVE",
"386 -206 OFFCURVE",
"330 -206 CURVE SMOOTH",
"310 -206 OFFCURVE",
"290 -200 OFFCURVE",
"278 -196 CURVE",
"270 -222 LINE",
"284 -228 OFFCURVE",
"308 -234 OFFCURVE",
"328 -234 CURVE SMOOTH"
);
},
{
closed = 1;
nodes = (
"234 -12 OFFCURVE",
"264 -4 OFFCURVE",
"292 6 CURVE",
"282 32 LINE",
"264 24 OFFCURVE",
"238 16 OFFCURVE",
"220 16 CURVE SMOOTH",
"150 16 OFFCURVE",
"136 60 OFFCURVE",
"136 122 CURVE SMOOTH",
"136 450 LINE",
"278 450 LINE",
"278 478 LINE",
"136 478 LINE",
"136 618 LINE",
"110 618 LINE",
"106 478 LINE",
"30 474 LINE",
"30 450 LINE",
"106 450 LINE",
"106 126 LINE SMOOTH",
"106 44 OFFCURVE",
"130 -12 OFFCURVE",
"218 -12 CURVE SMOOTH"
);
}
);
width = 302;
},
{
anchors = (
{
name = aboveUC;
position = "{344, 730}";
},
{
name = belowLC;
position = "{344, -20}";
}
);
layerId = "A57419AF-C607-4C6D-867D-F9F312359F5B";
name = Bold;
paths = (
{
closed = 1;
nodes = (
"586 -188 OFFCURVE",
"630 -86 OFFCURVE",
"630 26 CURVE SMOOTH",
"630 500 LINE SMOOTH",
"630 554 OFFCURVE",
"647 574 OFFCURVE",
"690 574 CURVE SMOOTH",
"699 574 OFFCURVE",
"706 572 OFFCURVE",
"716 568 CURVE",
"746 694 LINE",
"726 702 OFFCURVE",
"703 708 OFFCURVE",
"662 708 CURVE SMOOTH",
"504 708 OFFCURVE",
"458 606 OFFCURVE",
"458 494 CURVE SMOOTH",
"458 20 LINE",
"458 -34 OFFCURVE",
"444 -54 OFFCURVE",
"408 -54 CURVE SMOOTH",
"396 -54 OFFCURVE",
"386 -52 OFFCURVE",
"372 -48 CURVE",
"342 -174 LINE",
"364 -182 OFFCURVE",
"390 -188 OFFCURVE",
"436 -188 CURVE SMOOTH"
);
},
{
closed = 1;
nodes = (
"319 -12 OFFCURVE",
"356 -2 OFFCURVE",
"382 6 CURVE",
"356 130 LINE",
"344 126 OFFCURVE",
"328 122 OFFCURVE",
"312 122 CURVE SMOOTH",
"280 122 OFFCURVE",
"252 140 OFFCURVE",
"252 195 CURVE SMOOTH",
"252 366 LINE",
"366 366 LINE",
"366 500 LINE",
"252 500 LINE",
"252 630 LINE",
"110 630 LINE",
"90 500 LINE",
"14 494 LINE",
"14 366 LINE",
"80 366 LINE",
"80 192 LINE SMOOTH",
"80 70 OFFCURVE",
"134 -12 OFFCURVE",
"264 -12 CURVE SMOOTH"
);
}
);
width = 688;
}
);
unicode = 02A7;
userData = {
com.typemytype.robofont.mark = (
0.8,
0.8,
0.6,
1
);
};
},
{
glyphname = theta;
lastChange = "2015-11-05 20:56:23 +0000";
layers = (
{
layerId = "786F3AE7-681A-4E36-83D7-614DB6CCA2F0";
name = Regular;
paths = (
{
closed = 1;
nodes = (
"366 -12 OFFCURVE",
"432 98 OFFCURVE",
"432 364 CURVE SMOOTH",
"432 598 OFFCURVE",
"366 734 OFFCURVE",
"250 734 CURVE SMOOTH",
"134 734 OFFCURVE",
"68 598 OFFCURVE",
"68 364 CURVE SMOOTH",
"68 98 OFFCURVE",
"134 -12 OFFCURVE",
"250 -12 CURVE SMOOTH"
);
},
{
closed = 1;
nodes = (
"162 16 OFFCURVE",
"100 114 OFFCURVE",
"100 364 CURVE SMOOTH",
"100 586 OFFCURVE",
"162 706 OFFCURVE",
"250 706 CURVE SMOOTH",
"338 706 OFFCURVE",
"400 586 OFFCURVE",
"400 364 CURVE SMOOTH",
"400 114 OFFCURVE",
"338 16 OFFCURVE",
"250 16 CURVE SMOOTH"
);
},
{
closed = 1;
nodes = (
"86 380 LINE",
"414 380 LINE",
"414 352 LINE",
"86 352 LINE"
);
}
);
width = 500;
},
{
layerId = "A57419AF-C607-4C6D-867D-F9F312359F5B";
name = Bold;
paths = (
{
closed = 1;
nodes = (
"420 -12 OFFCURVE",
"516 110 OFFCURVE",
"516 350 CURVE SMOOTH",
"516 595 OFFCURVE",
"420 708 OFFCURVE",
"280 708 CURVE SMOOTH",
"140 708 OFFCURVE",
"44 596 OFFCURVE",
"44 350 CURVE SMOOTH",
"44 110 OFFCURVE",
"140 -12 OFFCURVE",
"280 -12 CURVE SMOOTH"
);
},
{
closed = 1;
nodes = (
"242 126 OFFCURVE",
"210 164 OFFCURVE",
"210 350 CURVE SMOOTH",
"210 544 OFFCURVE",
"242 570 OFFCURVE",
"280 570 CURVE SMOOTH",
"318 570 OFFCURVE",
"350 544 OFFCURVE",
"350 350 CURVE SMOOTH",
"350 164 OFFCURVE",
"318 126 OFFCURVE",
"280 126 CURVE SMOOTH"
);
},
{
closed = 1;
nodes = (
"136 406 LINE",
"424 406 LINE",
"424 294 LINE",
"136 294 LINE"
);
}
);
width = 560;
}
);
leftKerningGroup = GRK_THETA_LC_RIGHT;
rightKerningGroup = GRK_THETA_LC_LEFT;
unicode = 03B8;
},
{
glyphname = chi;
lastChange = "2015-11-05 20:56:23 +0000";
layers = (
{
layerId = "786F3AE7-681A-4E36-83D7-614DB6CCA2F0";
name = Regular;
paths = (
{
closed = 1;
nodes = (
"220 134 LINE",
"224 134 LINE",
"418 -192 LINE",
"446 -180 LINE",
"238 162 LINE",
"412 478 LINE",
"378 478 LINE",
"224 192 LINE",
"220 192 LINE",
"46 490 LINE",
"16 478 LINE",
"206 162 LINE",
"10 -180 LINE",
"38 -192 LINE"
);
}
);
width = 444;
},
{
layerId = "A57419AF-C607-4C6D-867D-F9F312359F5B";
name = Bold;
paths = (
{
closed = 1;
nodes = (
"278 30 LINE",
"282 30 LINE",
"390 -188 LINE",
"560 -152 LINE",
"364 170 LINE",
"534 500 LINE",
"356 500 LINE",
"282 316 LINE",
"278 316 LINE",
"176 512 LINE",
"6 476 LINE",
"195 166 LINE",
"8 -176 LINE",
"186 -188 LINE"
);
}
);
width = 544;
}
);
leftKerningGroup = GRK_CHI_LC_RIGHT;
rightKerningGroup = GRK_CHI_LC_LEFT;
unicode = 03C7;
},
